Unageo-Italic-Light.ufo
<glyph name="exclam" format="2">
  <advance width="277"/>
  <unicode hex="0021"/>
  <outline>
    <contour>
      <point x="209" y="700" type="line"/>
      <point x="266" y="700" type="line"/>
      <point x="194" y="193" type="line"/>
      <point x="137" y="193" type="line"/>
    </contour>
    <contour>
      <point x="150" y="78" type="curve" smooth="yes"/>
      <point x="162" y="78"/>
      <point x="172" y="73"/>
      <point x="179" y="64" type="curve" smooth="yes"/>
      <point x="186" y="55"/>
      <point x="189" y="45"/>
      <point x="187" y="32" type="curve" smooth="yes"/>
      <point x="185" y="19"/>
      <point x="180" y="9"/>
      <point x="170" y="-0" type="curve" smooth="yes"/>
      <point x="160" y="-9"/>
      <point x="149" y="-14"/>
      <point x="137" y="-14" type="curve" smooth="yes"/>
      <point x="125" y="-14"/>
      <point x="115" y="-9"/>
      <point x="108" y="-0" type="curve" smooth="yes"/>
      <point x="101" y="9"/>
      <point x="97" y="19"/>
      <point x="99" y="32" type="curve" smooth="yes"/>
      <point x="101" y="45"/>
      <point x="107" y="55"/>
      <point x="117" y="64" type="curve" smooth="yes"/>
      <point x="127" y="73"/>
      <point x="138" y="78"/>
    </contour>
  </outline>
</glyph>
<glyph name="quotedbl" format="2">
  <advance width="554"/>
  <unicode hex="0022"/>
  <outline>
    <contour>
      <point x="425.903" y="716" type="line"/>
      <point x="619.903" y="716" type="line"/>
      <point x="552.189" y="440" type="line"/>
      <point x="406.189" y="440" type="line"/>
    </contour>
    <contour>
      <point x="191.903" y="716" type="line"/>
      <point x="385.903" y="716" type="line"/>
      <point x="318.189" y="440" type="line"/>
      <point x="172.189" y="440" type="line"/>
    </contour>
  </outline>
</glyph>
<glyph name="numbersign" format="2">
  <advance width="639"/>
  <unicode hex="0023"/>
  <outline>
    <contour>
      <point x="526.219" y="700" type="line"/>
      <point x="698.84" y="700" type="line"/>
      <point x="647.294" y="546" type="line"/>
      <point x="734.626" y="546" type="line"/>
      <point x="677.725" y="376" type="line"/>
      <point x="590.394" y="376" type="line"/>
      <point x="569.642" y="314" type="line"/>
      <point x="676.973" y="314" type="line"/>
      <point x="620.073" y="144" type="line"/>
      <point x="512.741" y="144" type="line"/>
      <point x="464.543" y="0" type="line"/>
      <point x="291.92" y="0" type="line"/>
      <point x="340.119" y="144" type="line"/>
      <point x="277.748" y="144" type="line"/>
      <point x="229.549" y="0" type="line"/>
      <point x="56.9258" y="0" type="line"/>
      <point x="105.125" y="144" type="line"/>
      <point x="0.0810547" y="144" type="line"/>
      <point x="56.9824" y="314" type="line"/>
      <point x="162.025" y="314" type="line"/>
      <point x="182.778" y="376" type="line"/>
      <point x="77.7344" y="376" type="line"/>
      <point x="134.634" y="546" type="line"/>
      <point x="239.679" y="546" type="line"/>
      <point x="291.225" y="700" type="line"/>
      <point x="463.848" y="700" type="line"/>
      <point x="412.302" y="546" type="line"/>
      <point x="474.673" y="546" type="line"/>
    </contour>
    <contour>
      <point x="417.772" y="376" type="line"/>
      <point x="355.401" y="376" type="line"/>
      <point x="334.648" y="314" type="line"/>
      <point x="397.02" y="314" type="line"/>
    </contour>
  </outline>
</glyph>
<glyph name="dollar" format="2">
  <advance width="560"/>
  <unicode hex="0024"/>
  <outline>
    <contour>
      <point x="314.282" y="791" type="line"/>
      <point x="484.282" y="791" type="line"/>
      <point x="469.666" y="698.719" type="line"/>
      <point x="490.132" y="691.33"/>
      <point x="508.898" y="680.859"/>
      <point x="525.967" y="667.307" type="curve" smooth="yes"/>
      <point x="563.489" y="637.512"/>
      <point x="584.833" y="599.04"/>
      <point x="589.995" y="551.891" type="curve"/>
      <point x="418.582" y="507.826" type="line"/>
      <point x="417.847" y="518.063"/>
      <point x="412.164" y="526.318"/>
      <point x="401.533" y="532.591" type="curve" smooth="yes"/>
      <point x="390.901" y="538.863"/>
      <point x="377.672" y="542"/>
      <point x="361.845" y="542" type="curve" smooth="yes"/>
      <point x="343.178" y="542"/>
      <point x="326.878" y="538"/>
      <point x="312.943" y="530" type="curve" smooth="yes"/>
      <point x="299.01" y="522"/>
      <point x="290.882" y="510.667"/>
      <point x="288.559" y="496" type="curve" smooth="yes"/>
      <point x="287.163" y="487.187"/>
      <point x="289.958" y="479.382"/>
      <point x="296.944" y="472.585" type="curve" smooth="yes"/>
      <point x="307.925" y="461.899"/>
      <point x="329.263" y="453.704"/>
      <point x="360.956" y="448" type="curve" smooth="yes"/>
      <point x="429.056" y="436"/>
      <point x="482.096" y="411"/>
      <point x="520.077" y="373" type="curve" smooth="yes"/>
      <point x="558.059" y="335"/>
      <point x="571.929" y="283.667"/>
      <point x="561.687" y="219" type="curve" smooth="yes"/>
      <point x="551.339" y="153.667"/>
      <point x="518.153" y="98.833"/>
      <point x="462.132" y="54.5" type="curve" smooth="yes"/>
      <point x="429.953" y="29.0352"/>
      <point x="395.578" y="10.8838"/>
      <point x="359.007" y="0.0458984" type="curve"/>
      <point x="344.587" y="-91" type="line"/>
      <point x="174.587" y="-91" type="line"/>
      <point x="189.271" y="1.70605" type="line"/>
      <point x="166.781" y="9.65527"/>
      <point x="146.129" y="21.0625"/>
      <point x="127.313" y="35.9287" type="curve" smooth="yes"/>
      <point x="86.873" y="67.8809"/>
      <point x="63.9082" y="109.004"/>
      <point x="58.418" y="159.297" type="curve"/>
      <point x="229.264" y="203.213" type="line"/>
      <point x="230.708" y="190.02"/>
      <point x="238.275" y="179.186"/>
      <point x="251.965" y="170.71" type="curve" smooth="yes"/>
      <point x="265.654" y="162.235"/>
      <point x="282.008" y="157.998"/>
      <point x="301.024" y="157.998" type="curve" smooth="yes"/>
      <point x="323.811" y="157.998"/>
      <point x="343.878" y="163.492"/>
      <point x="361.226" y="174.481" type="curve" smooth="yes"/>
      <point x="378.574" y="185.471"/>
      <point x="388.728" y="200.31"/>
      <point x="391.688" y="219" type="curve" smooth="yes"/>
      <point x="393.9" y="232.965"/>
      <point x="389.829" y="244.951"/>
      <point x="379.476" y="254.958" type="curve" smooth="yes"/>
      <point x="365.981" y="268"/>
      <point x="341.817" y="277.681"/>
      <point x="306.981" y="284" type="curve" smooth="yes"/>
      <point x="244.109" y="295.333"/>
      <point x="194.612" y="318.5"/>
      <point x="158.489" y="353.5" type="curve" smooth="yes"/>
      <point x="122.365" y="388.5"/>
      <point x="109.056" y="436"/>
      <point x="118.559" y="496" type="curve" smooth="yes"/>
      <point x="128.272" y="557.333"/>
      <point x="159.403" y="608.667"/>
      <point x="211.95" y="650" type="curve" smooth="yes"/>
      <point x="239.398" y="671.591"/>
      <point x="268.592" y="687.543"/>
      <point x="299.529" y="697.855" type="curve"/>
    </contour>
  </outline>
</glyph>
<glyph name="percent" format="2">
  <advance width="862"/>
  <unicode hex="0025"/>
  <outline>
    <contour>
      <point x="700.148" y="304" type="curve" smooth="yes"/>
      <point x="743.148" y="304"/>
      <point x="778.614" y="288"/>
      <point x="804.705" y="257" type="curve" smooth="yes"/>
      <point x="830.795" y="226"/>
      <point x="839.935" y="189"/>
      <point x="833.124" y="146" type="curve" smooth="yes"/>
      <point x="826.313" y="103"/>
      <point x="805.453" y="66"/>
      <point x="769.543" y="35" type="curve" smooth="yes"/>
      <point x="733.634" y="4"/>
      <point x="693.1" y="-12"/>
      <point x="650.1" y="-12" type="curve" smooth="yes"/>
      <point x="607.1" y="-12"/>
      <point x="572.634" y="4"/>
      <point x="546.543" y="35" type="curve" smooth="yes"/>
      <point x="520.453" y="66"/>
      <point x="510.313" y="103"/>
      <point x="517.124" y="146" type="curve" smooth="yes"/>
      <point x="523.935" y="189"/>
      <point x="545.795" y="226"/>
      <point x="581.705" y="257" type="curve" smooth="yes"/>
      <point x="617.614" y="288"/>
      <point x="657.148" y="304"/>
    </contour>
    <contour>
      <point x="690.646" y="244" type="curve" smooth="yes"/>
      <point x="663.646" y="244"/>
      <point x="639.062" y="234"/>
      <point x="617.053" y="215" type="curve" smooth="yes"/>
      <point x="595.043" y="196"/>
      <point x="581.4" y="173"/>
      <point x="577.124" y="146" type="curve" smooth="yes"/>
      <point x="572.848" y="119"/>
      <point x="579.205" y="96"/>
      <point x="595.195" y="77" type="curve" smooth="yes"/>
      <point x="611.187" y="58"/>
      <point x="632.603" y="48"/>
      <point x="659.603" y="48" type="curve" smooth="yes"/>
      <point x="686.603" y="48"/>
      <point x="711.187" y="58"/>
      <point x="733.195" y="77" type="curve" smooth="yes"/>
      <point x="755.205" y="96"/>
      <point x="768.848" y="119"/>
      <point x="773.124" y="146" type="curve" smooth="yes"/>
      <point x="777.4" y="173"/>
      <point x="771.043" y="196"/>
      <point x="755.053" y="215" type="curve" smooth="yes"/>
      <point x="739.062" y="234"/>
      <point x="717.646" y="244"/>
    </contour>
    <contour>
      <point x="750.869" y="700" type="line"/>
      <point x="794.484" y="666" type="line"/>
      <point x="223" y="0" type="line"/>
      <point x="179.385" y="34" type="line"/>
    </contour>
    <contour>
      <point x="323.77" y="712" type="curve" smooth="yes"/>
      <point x="366.77" y="712"/>
      <point x="401.394" y="697"/>
      <point x="427.484" y="666" type="curve" smooth="yes"/>
      <point x="453.574" y="635"/>
      <point x="463.556" y="597"/>
      <point x="456.745" y="554" type="curve" smooth="yes"/>
      <point x="449.935" y="511"/>
      <point x="427.916" y="473"/>
      <point x="392.006" y="442" type="curve" smooth="yes"/>
      <point x="356.096" y="411"/>
      <point x="316.721" y="396"/>
      <point x="273.721" y="396" type="curve" smooth="yes"/>
      <point x="230.721" y="396"/>
      <point x="196.096" y="411"/>
      <point x="170.006" y="442" type="curve" smooth="yes"/>
      <point x="143.916" y="473"/>
      <point x="133.935" y="511"/>
      <point x="140.745" y="554" type="curve" smooth="yes"/>
      <point x="147.556" y="597"/>
      <point x="169.574" y="635"/>
      <point x="205.484" y="666" type="curve" smooth="yes"/>
      <point x="241.394" y="697"/>
      <point x="280.77" y="712"/>
    </contour>
    <contour>
      <point x="314.267" y="652" type="curve" smooth="yes"/>
      <point x="287.267" y="652"/>
      <point x="262.841" y="643"/>
      <point x="240.832" y="624" type="curve" smooth="yes"/>
      <point x="218.822" y="605"/>
      <point x="205.021" y="581"/>
      <point x="200.745" y="554" type="curve" smooth="yes"/>
      <point x="196.469" y="527"/>
      <point x="202.667" y="503"/>
      <point x="218.658" y="484" type="curve" smooth="yes"/>
      <point x="234.648" y="465"/>
      <point x="256.224" y="456"/>
      <point x="283.224" y="456" type="curve" smooth="yes"/>
      <point x="310.224" y="456"/>
      <point x="334.648" y="465"/>
      <point x="356.658" y="484" type="curve" smooth="yes"/>
      <point x="378.667" y="503"/>
      <point x="392.469" y="527"/>
      <point x="396.745" y="554" type="curve" smooth="yes"/>
      <point x="401.021" y="581"/>
      <point x="394.822" y="605"/>
      <point x="378.832" y="624" type="curve" smooth="yes"/>
      <point x="362.841" y="643"/>
      <point x="341.267" y="652"/>
    </contour>
  </outline>
</glyph>
<glyph name="ampersand" format="2">
  <advance width="609"/>
  <unicode hex="0026"/>
  <outline>
    <contour>
      <point x="246" y="-12" type="curve" smooth="yes"/>
      <point x="193" y="-12"/>
      <point x="150" y="4"/>
      <point x="118" y="38" type="curve" smooth="yes"/>
      <point x="86" y="72"/>
      <point x="73" y="115"/>
      <point x="80" y="167" type="curve" smooth="yes"/>
      <point x="85" y="202"/>
      <point x="100" y="236"/>
      <point x="124" y="269" type="curve" smooth="yes"/>
      <point x="150" y="304"/>
      <point x="186" y="337"/>
      <point x="233" y="368" type="curve" smooth="yes"/>
      <point x="268" y="391"/>
      <point x="297" y="410"/>
      <point x="318" y="424" type="curve" smooth="yes"/>
      <point x="347" y="443"/>
      <point x="362" y="454"/>
      <point x="366" y="457" type="curve" smooth="yes"/>
      <point x="413" y="492"/>
      <point x="438" y="526"/>
      <point x="442" y="559" type="curve" smooth="yes"/>
      <point x="445" y="588"/>
      <point x="440" y="611"/>
      <point x="423" y="628" type="curve" smooth="yes"/>
      <point x="406" y="645"/>
      <point x="385" y="653"/>
      <point x="360" y="652" type="curve" smooth="yes"/>
      <point x="335" y="651"/>
      <point x="312" y="642"/>
      <point x="291" y="624" type="curve" smooth="yes"/>
      <point x="270" y="606"/>
      <point x="258" y="585"/>
      <point x="255" y="561" type="curve" smooth="yes"/>
      <point x="252" y="538"/>
      <point x="257" y="515"/>
      <point x="272" y="493" type="curve" smooth="yes"/>
      <point x="596" y="0" type="line"/>
      <point x="522" y="0" type="line"/>
      <point x="221" y="456" type="line" smooth="yes"/>
      <point x="199" y="489"/>
      <point x="192" y="524"/>
      <point x="198" y="561" type="curve" smooth="yes"/>
      <point x="205" y="604"/>
      <point x="224" y="640"/>
      <point x="258" y="669" type="curve" smooth="yes"/>
      <point x="292" y="698"/>
      <point x="329" y="712"/>
      <point x="368" y="712" type="curve" smooth="yes"/>
      <point x="412" y="712"/>
      <point x="447" y="697"/>
      <point x="472" y="668" type="curve" smooth="yes"/>
      <point x="497" y="639"/>
      <point x="506" y="603"/>
      <point x="499" y="559" type="curve" smooth="yes"/>
      <point x="495" y="534"/>
      <point x="486" y="509"/>
      <point x="470" y="486" type="curve" smooth="yes"/>
      <point x="455" y="464"/>
      <point x="435" y="442"/>
      <point x="410" y="422" type="curve" smooth="yes"/>
      <point x="395" y="410"/>
      <point x="376" y="397"/>
      <point x="352" y="380" type="curve" smooth="yes"/>
      <point x="327" y="362"/>
      <point x="296" y="342"/>
      <point x="260" y="319" type="curve" smooth="yes"/>
      <point x="221" y="294"/>
      <point x="190" y="268"/>
      <point x="170" y="241" type="curve" smooth="yes"/>
      <point x="152" y="217"/>
      <point x="140" y="192"/>
      <point x="137" y="167" type="curve" smooth="yes"/>
      <point x="132" y="130"/>
      <point x="142" y="101"/>
      <point x="166" y="80" type="curve" smooth="yes"/>
      <point x="190" y="59"/>
      <point x="220" y="48"/>
      <point x="255" y="48" type="curve" smooth="yes"/>
      <point x="292" y="48"/>
      <point x="326" y="54"/>
      <point x="357" y="66" type="curve" smooth="yes"/>
      <point x="388" y="78"/>
      <point x="415" y="95"/>
      <point x="439" y="118" type="curve" smooth="yes"/>
      <point x="491" y="167"/>
      <point x="529" y="231"/>
      <point x="553" y="309" type="curve"/>
      <point x="610" y="309" type="line"/>
      <point x="579" y="208"/>
      <point x="535" y="130"/>
      <point x="477" y="76" type="curve" smooth="yes"/>
      <point x="446" y="47"/>
      <point x="409" y="25"/>
      <point x="367" y="10" type="curve" smooth="yes"/>
      <point x="325" y="-5"/>
      <point x="285" y="-12"/>
    </contour>
  </outline>
</glyph>
<glyph name="quotesingle" format="2">
  <advance width="180"/>
  <unicode hex="0027"/>
  <outline>
    <contour>
      <point x="158" y="716" type="line"/>
      <point x="224" y="716" type="line"/>
      <point x="186" y="510" type="line"/>
      <point x="138" y="510" type="line"/>
    </contour>
  </outline>
</glyph>
<glyph name="parenleft" format="2">
  <advance width="325"/>
  <unicode hex="0028"/>
  <outline>
    <contour>
      <point x="357" y="799" type="curve"/>
      <point x="393" y="757" type="line"/>
      <point x="336" y="701"/>
      <point x="289" y="638"/>
      <point x="252" y="567" type="curve" smooth="yes"/>
      <point x="215" y="496"/>
      <point x="190" y="424"/>
      <point x="178" y="350" type="curve" smooth="yes"/>
      <point x="166" y="276"/>
      <point x="168" y="204"/>
      <point x="183" y="134" type="curve" smooth="yes"/>
      <point x="198" y="64"/>
      <point x="225" y="0"/>
      <point x="263" y="-56" type="curve"/>
      <point x="214" y="-99" type="line"/>
      <point x="170" y="-37"/>
      <point x="140" y="33"/>
      <point x="123" y="110" type="curve" smooth="yes"/>
      <point x="106" y="187"/>
      <point x="105" y="267"/>
      <point x="118" y="350" type="curve" smooth="yes"/>
      <point x="131" y="433"/>
      <point x="158" y="512"/>
      <point x="199" y="589" type="curve" smooth="yes"/>
      <point x="240" y="666"/>
      <point x="293" y="737"/>
    </contour>
  </outline>
</glyph>
<glyph name="parenright" format="2">
  <advance width="304"/>
  <unicode hex="0029"/>
  <outline>
    <contour>
      <point x="201" y="799" type="curve"/>
      <point x="243" y="736"/>
      <point x="273" y="667"/>
      <point x="289" y="590" type="curve" smooth="yes"/>
      <point x="305" y="513"/>
      <point x="308" y="432"/>
      <point x="296" y="350" type="curve" smooth="yes"/>
      <point x="284" y="268"/>
      <point x="260" y="187"/>
      <point x="222" y="110" type="curve" smooth="yes"/>
      <point x="184" y="33"/>
      <point x="135" y="-36"/>
      <point x="75" y="-99" type="curve"/>
      <point x="75" y="-99"/>
      <point x="75" y="-100"/>
      <point x="41" y="-56" type="curve"/>
      <point x="94" y="0"/>
      <point x="138" y="64"/>
      <point x="172" y="134" type="curve" smooth="yes"/>
      <point x="206" y="204"/>
      <point x="228" y="276"/>
      <point x="239" y="350" type="curve" smooth="yes"/>
      <point x="249" y="424"/>
      <point x="247" y="497"/>
      <point x="232" y="568" type="curve" smooth="yes"/>
      <point x="217" y="639"/>
      <point x="192" y="702"/>
      <point x="154" y="758" type="curve"/>
      <point x="154" y="758"/>
      <point x="154" y="757"/>
    </contour>
  </outline>
</glyph>
<glyph name="asterisk" format="2">
  <advance width="481"/>
  <unicode hex="002A"/>
  <outline>
    <contour>
      <point x="162" y="571" type="line"/>
      <point x="189" y="628" type="line"/>
      <point x="341" y="577" type="line"/>
      <point x="314" y="520" type="line"/>
    </contour>
    <contour>
      <point x="230" y="395" type="line"/>
      <point x="186" y="430" type="line"/>
      <point x="306" y="565" type="line"/>
      <point x="349" y="530" type="line"/>
    </contour>
    <contour>
      <point x="432" y="430" type="line"/>
      <point x="378" y="395" type="line"/>
      <point x="301" y="530" type="line"/>
      <point x="354" y="565" type="line"/>
    </contour>
    <contour>
      <point x="491" y="628" type="line"/>
      <point x="500" y="571" type="line"/>
      <point x="332" y="520" type="line"/>
      <point x="323" y="577" type="line"/>
    </contour>
    <contour>
      <point x="324" y="716" type="line"/>
      <point x="384" y="716" type="line"/>
      <point x="358" y="548" type="line"/>
      <point x="298" y="548" type="line"/>
    </contour>
  </outline>
</glyph>
<glyph name="plus" format="2">
  <advance width="589"/>
  <unicode hex="002B"/>
  <outline>
    <contour>
      <point x="340" y="523" type="line"/>
      <point x="397" y="523" type="line"/>
      <point x="370" y="329" type="line"/>
      <point x="554" y="329" type="line"/>
      <point x="546" y="269" type="line"/>
      <point x="361" y="269" type="line"/>
      <point x="334" y="73" type="line"/>
      <point x="277" y="73" type="line"/>
      <point x="304" y="269" type="line"/>
      <point x="119" y="269" type="line"/>
      <point x="127" y="329" type="line"/>
      <point x="313" y="329" type="line"/>
    </contour>
  </outline>
</glyph>
<glyph name="comma" format="2">
  <advance width="292"/>
  <unicode hex="002C"/>
  <outline>
    <contour>
      <point x="110.124" y="146" type="curve"/>
      <point x="290.124" y="146" type="line"/>
      <point x="273.969" y="44"/>
      <point x="224.962" y="-42.333"/>
      <point x="143.103" y="-113" type="curve"/>
      <point x="3.10254" y="-113" type="line"/>
      <point x="60.0449" y="-31.2861"/>
      <point x="95.7188" y="55.0479"/>
    </contour>
  </outline>
</glyph>
<glyph name="hyphen" format="2">
  <advance width="425"/>
  <unicode hex="002D"/>
  <outline>
    <contour>
      <point x="105.447" y="268" type="line"/>
      <point x="114.95" y="328" type="line"/>
      <point x="414.95" y="328" type="line"/>
      <point x="405.447" y="268" type="line"/>
    </contour>
  </outline>
</glyph>
<glyph name="period" format="2">
  <advance width="197"/>
  <unicode hex="002E"/>
  <outline>
    <contour>
      <point x="150" y="32" type="curve" smooth="yes"/>
      <point x="148" y="19"/>
      <point x="141" y="9"/>
      <point x="131" y="0" type="curve" smooth="yes"/>
      <point x="121" y="-9"/>
      <point x="110" y="-14"/>
      <point x="97" y="-14" type="curve" smooth="yes"/>
      <point x="84" y="-14"/>
      <point x="74" y="-9"/>
      <point x="66" y="0" type="curve" smooth="yes"/>
      <point x="58" y="9"/>
      <point x="56" y="19"/>
      <point x="58" y="32" type="curve" smooth="yes"/>
      <point x="60" y="45"/>
      <point x="66" y="55"/>
      <point x="76" y="64" type="curve" smooth="yes"/>
      <point x="86" y="73"/>
      <point x="98" y="78"/>
      <point x="111" y="78" type="curve" smooth="yes"/>
      <point x="124" y="78"/>
      <point x="133" y="73"/>
      <point x="141" y="64" type="curve" smooth="yes"/>
      <point x="149" y="55"/>
      <point x="152" y="45"/>
    </contour>
  </outline>
</glyph>
<glyph name="slash" format="2">
  <advance width="455"/>
  <unicode hex="002F"/>
  <outline>
    <contour>
      <point x="393.864" y="747" type="line"/>
      <point x="546.881" y="693.762" type="line"/>
      <point x="165.34" y="-87.8613" type="line"/>
      <point x="12.3252" y="-34.6211" type="line"/>
    </contour>
  </outline>
</glyph>
<glyph name="zero" format="2">
  <advance width="641"/>
  <unicode hex="0030"/>
  <outline>
    <contour>
      <point x="424" y="652" type="curve" smooth="yes"/>
      <point x="389" y="652"/>
      <point x="357" y="643"/>
      <point x="327" y="625" type="curve" smooth="yes"/>
      <point x="297" y="607"/>
      <point x="271" y="584"/>
      <point x="250" y="555" type="curve" smooth="yes"/>
      <point x="229" y="526"/>
      <point x="213" y="493"/>
      <point x="199" y="458" type="curve" smooth="yes"/>
      <point x="185" y="423"/>
      <point x="174" y="388"/>
      <point x="168" y="350" type="curve" smooth="yes"/>
      <point x="162" y="312"/>
      <point x="162" y="277"/>
      <point x="164" y="242" type="curve" smooth="yes"/>
      <point x="166" y="207"/>
      <point x="174" y="174"/>
      <point x="185" y="145" type="curve" smooth="yes"/>
      <point x="196" y="116"/>
      <point x="216" y="93"/>
      <point x="240" y="75" type="curve" smooth="yes"/>
      <point x="264" y="57"/>
      <point x="294" y="48"/>
      <point x="329" y="48" type="curve" smooth="yes"/>
      <point x="364" y="48"/>
      <point x="396" y="57"/>
      <point x="426" y="75" type="curve" smooth="yes"/>
      <point x="456" y="93"/>
      <point x="482" y="116"/>
      <point x="503" y="145" type="curve" smooth="yes"/>
      <point x="524" y="174"/>
      <point x="541" y="207"/>
      <point x="555" y="242" type="curve" smooth="yes"/>
      <point x="569" y="277"/>
      <point x="578" y="312"/>
      <point x="584" y="350" type="curve" smooth="yes"/>
      <point x="590" y="388"/>
      <point x="592" y="423"/>
      <point x="590" y="458" type="curve" smooth="yes"/>
      <point x="588" y="493"/>
      <point x="579" y="526"/>
      <point x="568" y="555" type="curve" smooth="yes"/>
      <point x="557" y="584"/>
      <point x="537" y="607"/>
      <point x="513" y="625" type="curve" smooth="yes"/>
      <point x="489" y="643"/>
      <point x="459" y="652"/>
    </contour>
    <contour>
      <point x="434" y="712" type="curve" smooth="yes"/>
      <point x="491" y="712"/>
      <point x="537" y="694"/>
      <point x="573" y="658" type="curve" smooth="yes"/>
      <point x="609" y="622"/>
      <point x="633" y="577"/>
      <point x="644" y="524" type="curve" smooth="yes"/>
      <point x="655" y="471"/>
      <point x="654" y="412"/>
      <point x="644" y="350" type="curve" smooth="yes"/>
      <point x="634" y="288"/>
      <point x="616" y="229"/>
      <point x="589" y="176" type="curve" smooth="yes"/>
      <point x="562" y="123"/>
      <point x="524" y="78"/>
      <point x="476" y="42" type="curve" smooth="yes"/>
      <point x="428" y="6"/>
      <point x="376" y="-12"/>
      <point x="319" y="-12" type="curve" smooth="yes"/>
      <point x="262" y="-12"/>
      <point x="215" y="6"/>
      <point x="179" y="42" type="curve" smooth="yes"/>
      <point x="143" y="78"/>
      <point x="121" y="123"/>
      <point x="110" y="176" type="curve" smooth="yes"/>
      <point x="99" y="229"/>
      <point x="98" y="288"/>
      <point x="108" y="350" type="curve" smooth="yes"/>
      <point x="118" y="412"/>
      <point x="138" y="471"/>
      <point x="165" y="524" type="curve" smooth="yes"/>
      <point x="192" y="577"/>
      <point x="228" y="622"/>
      <point x="276" y="658" type="curve" smooth="yes"/>
      <point x="324" y="694"/>
      <point x="377" y="712"/>
    </contour>
  </outline>
</glyph>
<glyph name="one" format="2">
  <advance width="411"/>
  <unicode hex="0031"/>
  <outline>
    <contour>
      <point x="339.869" y="700" type="line"/>
      <point x="399.869" y="700" type="line"/>
      <point x="289" y="0" type="line"/>
      <point x="229" y="0" type="line"/>
      <point x="327.515" y="622" type="line"/>
      <point x="189.201" y="519" type="line"/>
      <point x="157.487" y="565" type="line"/>
    </contour>
  </outline>
</glyph>
<glyph name="two" format="2">
  <advance width="526"/>
  <unicode hex="0032"/>
  <outline>
    <contour>
      <point x="357" y="712" type="curve" smooth="yes"/>
      <point x="415" y="712"/>
      <point x="460" y="692"/>
      <point x="495" y="651" type="curve" smooth="yes"/>
      <point x="530" y="610"/>
      <point x="542" y="560"/>
      <point x="533" y="502" type="curve" smooth="yes"/>
      <point x="525" y="454"/>
      <point x="493" y="404"/>
      <point x="438" y="351" type="curve" smooth="yes"/>
      <point x="123" y="60" type="line"/>
      <point x="469" y="60" type="line"/>
      <point x="459" y="0" type="line"/>
      <point x="33" y="0" type="line"/>
      <point x="43" y="60" type="line"/>
      <point x="398" y="388" type="line" smooth="yes"/>
      <point x="441" y="428"/>
      <point x="467" y="466"/>
      <point x="473" y="502" type="curve" smooth="yes"/>
      <point x="480" y="545"/>
      <point x="471" y="581"/>
      <point x="447" y="609" type="curve" smooth="yes"/>
      <point x="423" y="637"/>
      <point x="390" y="652"/>
      <point x="347" y="652" type="curve" smooth="yes"/>
      <point x="312" y="652"/>
      <point x="280" y="643"/>
      <point x="251" y="623" type="curve" smooth="yes"/>
      <point x="222" y="603"/>
      <point x="200" y="576"/>
      <point x="186" y="542" type="curve"/>
      <point x="131" y="559" type="line"/>
      <point x="151" y="604"/>
      <point x="182" y="641"/>
      <point x="223" y="669" type="curve" smooth="yes"/>
      <point x="264" y="697"/>
      <point x="310" y="712"/>
    </contour>
  </outline>
</glyph>
<glyph name="four" format="2">
  <advance width="581"/>
  <unicode hex="0034"/>
  <outline>
    <contour>
      <point x="379" y="701" type="line"/>
      <point x="429" y="676" type="line"/>
      <point x="157" y="242" type="line"/>
      <point x="393" y="242" type="line"/>
      <point x="425" y="440" type="line"/>
      <point x="485" y="440" type="line"/>
      <point x="453" y="242" type="line"/>
      <point x="587" y="242" type="line"/>
      <point x="578" y="182" type="line"/>
      <point x="444" y="182" type="line"/>
      <point x="415" y="0" type="line"/>
      <point x="355" y="0" type="line"/>
      <point x="384" y="182" type="line"/>
      <point x="82" y="182" type="line"/>
      <point x="91" y="242" type="line"/>
    </contour>
  </outline>
</glyph>
<glyph name="five" format="2">
  <advance width="547"/>
  <unicode hex="0035"/>
  <outline>
    <contour>
      <point x="193.686" y="700" type="line"/>
      <point x="583.686" y="700" type="line"/>
      <point x="556.76" y="530" type="line"/>
      <point x="336.76" y="530" type="line"/>
      <point x="325.673" y="460" type="line"/>
      <point x="351.856" y="460" type="line" smooth="yes"/>
      <point x="416.523" y="460"/>
      <point x="468.188" y="436.833"/>
      <point x="506.85" y="390.5" type="curve" smooth="yes"/>
      <point x="545.511" y="344.167"/>
      <point x="559.667" y="288.333"/>
      <point x="549.319" y="223" type="curve" smooth="yes"/>
      <point x="539.077" y="158.333"/>
      <point x="507.313" y="103"/>
      <point x="454.028" y="57" type="curve" smooth="yes"/>
      <point x="400.742" y="11"/>
      <point x="341.767" y="-12"/>
      <point x="277.1" y="-12" type="curve" smooth="yes"/>
      <point x="215.349" y="-11.9424"/>
      <point x="164.969" y="3.82812"/>
      <point x="125.958" y="35.3105" type="curve" smooth="yes"/>
      <point x="86.9473" y="66.793"/>
      <point x="64.3486" y="108.363"/>
      <point x="58.1611" y="160.021" type="curve"/>
      <point x="230.254" y="189.541" type="line"/>
      <point x="238.986" y="168.514"/>
      <point x="262.242" y="158"/>
      <point x="300.024" y="158" type="curve" smooth="yes"/>
      <point x="320.691" y="158"/>
      <point x="338.335" y="164.167"/>
      <point x="352.955" y="176.5" type="curve" smooth="yes"/>
      <point x="367.575" y="188.833"/>
      <point x="376.363" y="204.333"/>
      <point x="379.319" y="223" type="curve" smooth="yes"/>
      <point x="382.171" y="241"/>
      <point x="378.319" y="256.667"/>
      <point x="367.764" y="270" type="curve" smooth="yes"/>
      <point x="357.209" y="283.333"/>
      <point x="342.932" y="290"/>
      <point x="324.932" y="290" type="curve" smooth="yes"/>
      <point x="128.748" y="290" type="line"/>
    </contour>
  </outline>
</glyph>
<glyph name="six" format="2">
  <advance width="510"/>
  <unicode hex="0036"/>
  <outline>
    <contour>
      <point x="318" y="387" type="curve" smooth="yes"/>
      <point x="273" y="387"/>
      <point x="233" y="371"/>
      <point x="197" y="338" type="curve" smooth="yes"/>
      <point x="161" y="305"/>
      <point x="140" y="265"/>
      <point x="133" y="218" type="curve" smooth="yes"/>
      <point x="126" y="171"/>
      <point x="136" y="130"/>
      <point x="163" y="97" type="curve" smooth="yes"/>
      <point x="190" y="64"/>
      <point x="225" y="48"/>
      <point x="270" y="48" type="curve" smooth="yes"/>
      <point x="315" y="48"/>
      <point x="356" y="64"/>
      <point x="392" y="97" type="curve" smooth="yes"/>
      <point x="428" y="130"/>
      <point x="448" y="171"/>
      <point x="455" y="218" type="curve" smooth="yes"/>
      <point x="462" y="265"/>
      <point x="452" y="305"/>
      <point x="425" y="338" type="curve" smooth="yes"/>
      <point x="398" y="371"/>
      <point x="363" y="387"/>
    </contour>
    <contour>
      <point x="383" y="712" type="line"/>
      <point x="449" y="712" type="line"/>
      <point x="258" y="435" type="line"/>
      <point x="282" y="443"/>
      <point x="304" y="447"/>
      <point x="326" y="447" type="curve" smooth="yes"/>
      <point x="386" y="447"/>
      <point x="435" y="425"/>
      <point x="471" y="380" type="curve" smooth="yes"/>
      <point x="507" y="335"/>
      <point x="521" y="281"/>
      <point x="512" y="218" type="curve" smooth="yes"/>
      <point x="503" y="155"/>
      <point x="475" y="100"/>
      <point x="426" y="55" type="curve" smooth="yes"/>
      <point x="377" y="10"/>
      <point x="322" y="-12"/>
      <point x="262" y="-12" type="curve" smooth="yes"/>
      <point x="202" y="-12"/>
      <point x="153" y="10"/>
      <point x="117" y="55" type="curve" smooth="yes"/>
      <point x="81" y="100"/>
      <point x="67" y="155"/>
      <point x="76" y="218" type="curve" smooth="yes"/>
      <point x="82" y="259"/>
      <point x="96" y="297"/>
      <point x="120" y="331" type="curve" smooth="yes"/>
    </contour>
  </outline>
</glyph>
<glyph name="seven" format="2">
  <advance width="503"/>
  <unicode hex="0037"/>
  <outline>
    <contour>
      <point x="133" y="640" type="line"/>
      <point x="141" y="700" type="line"/>
      <point x="573" y="700" type="line"/>
      <point x="565" y="640" type="line"/>
      <point x="141" y="0" type="line"/>
      <point x="75" y="0" type="line"/>
      <point x="500" y="640" type="line"/>
    </contour>
  </outline>
</glyph>
<glyph name="eight" format="2">
  <advance width="570"/>
  <unicode hex="0038"/>
  <outline>
    <contour>
      <point x="329.589" y="281.521" type="curve" smooth="yes"/>
      <point x="307.412" y="281.521"/>
      <point x="287.22" y="275.462"/>
      <point x="269.014" y="263.345" type="curve" smooth="yes"/>
      <point x="250.807" y="251.227"/>
      <point x="240.179" y="235.536"/>
      <point x="237.127" y="216.273" type="curve" smooth="yes"/>
      <point x="234.085" y="197.066"/>
      <point x="239.747" y="181.553"/>
      <point x="254.112" y="169.731" type="curve" smooth="yes"/>
      <point x="268.479" y="157.91"/>
      <point x="286.799" y="152"/>
      <point x="309.074" y="152" type="curve" smooth="yes"/>
      <point x="331.35" y="152"/>
      <point x="351.543" y="157.91"/>
      <point x="369.653" y="169.731" type="curve" smooth="yes"/>
      <point x="387.763" y="181.553"/>
      <point x="398.339" y="197.066"/>
      <point x="401.381" y="216.273" type="curve" smooth="yes"/>
      <point x="404.433" y="235.536"/>
      <point x="398.773" y="251.227"/>
      <point x="384.406" y="263.345" type="curve" smooth="yes"/>
      <point x="370.038" y="275.462"/>
      <point x="351.766" y="281.521"/>
    </contour>
    <contour>
      <point x="371.478" y="546" type="curve" smooth="yes"/>
      <point x="354.893" y="546"/>
      <point x="340.175" y="541.743"/>
      <point x="327.321" y="533.23" type="curve" smooth="yes"/>
      <point x="314.47" y="524.718"/>
      <point x="306.907" y="513.286"/>
      <point x="304.634" y="498.936" type="curve" smooth="yes"/>
      <point x="302.357" y="484.563"/>
      <point x="306.298" y="473.068"/>
      <point x="316.455" y="464.449" type="curve" smooth="yes"/>
      <point x="326.612" y="455.83"/>
      <point x="339.966" y="451.521"/>
      <point x="356.514" y="451.521" type="curve" smooth="yes"/>
      <point x="373.055" y="451.521"/>
      <point x="387.754" y="455.829"/>
      <point x="400.611" y="464.445" type="curve" smooth="yes"/>
      <point x="413.47" y="473.062"/>
      <point x="421.038" y="484.56"/>
      <point x="423.314" y="498.936" type="curve" smooth="yes"/>
      <point x="425.588" y="513.291"/>
      <point x="421.662" y="524.724"/>
      <point x="411.534" y="533.234" type="curve" smooth="yes"/>
      <point x="401.406" y="541.745"/>
      <point x="388.055" y="546"/>
    </contour>
    <contour>
      <point x="397.77" y="712" type="curve" smooth="yes"/>
      <point x="464.061" y="712"/>
      <point x="516.031" y="694.217"/>
      <point x="553.68" y="658.649" type="curve" smooth="yes"/>
      <point x="591.33" y="623.082"/>
      <point x="605.644" y="576.812"/>
      <point x="596.62" y="519.843" type="curve" smooth="yes"/>
      <point x="587.597" y="462.873"/>
      <point x="558.627" y="416.604"/>
      <point x="509.711" y="381.037" type="curve" smooth="yes"/>
      <point x="507.548" y="379.464"/>
      <point x="505.366" y="377.926"/>
      <point x="503.169" y="376.422" type="curve"/>
      <point x="509.961" y="371.385"/>
      <point x="516.411" y="365.911"/>
      <point x="522.519" y="360" type="curve" smooth="yes"/>
      <point x="563.85" y="320"/>
      <point x="579.447" y="268"/>
      <point x="569.311" y="204" type="curve" smooth="yes"/>
      <point x="559.174" y="140"/>
      <point x="527.104" y="88"/>
      <point x="473.103" y="48" type="curve" smooth="yes"/>
      <point x="419.1" y="8"/>
      <point x="355.767" y="-12"/>
      <point x="283.1" y="-12" type="curve" smooth="yes"/>
      <point x="210.433" y="-12"/>
      <point x="153.434" y="8"/>
      <point x="112.103" y="48" type="curve" smooth="yes"/>
      <point x="70.7705" y="88"/>
      <point x="55.1738" y="140"/>
      <point x="65.3105" y="204" type="curve" smooth="yes"/>
      <point x="75.4473" y="268"/>
      <point x="107.516" y="320"/>
      <point x="161.519" y="360" type="curve" smooth="yes"/>
      <point x="169.499" y="365.911"/>
      <point x="177.682" y="371.385"/>
      <point x="186.069" y="376.422" type="curve"/>
      <point x="184.349" y="377.926"/>
      <point x="182.655" y="379.464"/>
      <point x="180.99" y="381.037" type="curve" smooth="yes"/>
      <point x="143.34" y="416.604"/>
      <point x="129.026" y="462.873"/>
      <point x="138.05" y="519.843" type="curve" smooth="yes"/>
      <point x="147.073" y="576.812"/>
      <point x="176.043" y="623.082"/>
      <point x="224.959" y="658.649" type="curve" smooth="yes"/>
      <point x="273.875" y="694.217"/>
      <point x="331.479" y="712"/>
    </contour>
  </outline>
</glyph>
<glyph name="nine" format="2">
  <advance width="555"/>
  <unicode hex="0039"/>
  <outline>
    <contour>
      <point x="339.742" y="393.006" type="curve" smooth="yes"/>
      <point x="360.731" y="393.006"/>
      <point x="379.531" y="400.175"/>
      <point x="396.141" y="414.512" type="curve" smooth="yes"/>
      <point x="412.75" y="428.849"/>
      <point x="422.717" y="446.511"/>
      <point x="426.041" y="467.5" type="curve" smooth="yes"/>
      <point x="429.365" y="488.489"/>
      <point x="424.994" y="506.153"/>
      <point x="412.926" y="520.492" type="curve" smooth="yes"/>
      <point x="400.858" y="534.831"/>
      <point x="384.33" y="542"/>
      <point x="363.341" y="542" type="curve" smooth="yes"/>
      <point x="342.352" y="542"/>
      <point x="323.552" y="534.831"/>
      <point x="306.941" y="520.492" type="curve" smooth="yes"/>
      <point x="290.332" y="506.153"/>
      <point x="280.365" y="488.489"/>
      <point x="277.041" y="467.5" type="curve" smooth="yes"/>
      <point x="273.717" y="446.511"/>
      <point x="278.088" y="428.849"/>
      <point x="290.156" y="414.512" type="curve" smooth="yes"/>
      <point x="302.225" y="400.175"/>
      <point x="318.753" y="393.006"/>
    </contour>
    <contour>
      <point x="272.979" y="0" type="line"/>
      <point x="77.1484" y="0" type="line"/>
      <point x="267.614" y="235.562" type="line"/>
      <point x="259.227" y="236.521"/>
      <point x="251.217" y="238.162"/>
      <point x="243.585" y="240.485" type="curve" smooth="yes"/>
      <point x="200.768" y="252.162"/>
      <point x="166.043" y="276.274"/>
      <point x="139.41" y="312.824" type="curve" smooth="yes"/>
      <point x="108.714" y="356.274"/>
      <point x="97.9238" y="407.833"/>
      <point x="107.041" y="467.5" type="curve" smooth="yes"/>
      <point x="117.425" y="535.167"/>
      <point x="150.423" y="592.796"/>
      <point x="206.036" y="640.388" type="curve" smooth="yes"/>
      <point x="261.522" y="688.129"/>
      <point x="322.933" y="712"/>
      <point x="390.266" y="712" type="curve" smooth="yes"/>
      <point x="457.599" y="712"/>
      <point x="511.448" y="688.129"/>
      <point x="551.812" y="640.388" type="curve" smooth="yes"/>
      <point x="592.349" y="592.796"/>
      <point x="607.091" y="535.167"/>
      <point x="596.041" y="467.5" type="curve" smooth="yes"/>
      <point x="588.897" y="424.5"/>
      <point x="571.564" y="384.106"/>
      <point x="544.043" y="346.32" type="curve" smooth="yes"/>
    </contour>
  </outline>
</glyph>
<glyph name="colon" format="2">
  <advance width="222"/>
  <unicode hex="003A"/>
  <outline>
    <contour>
      <point x="168" y="410" type="curve" smooth="yes"/>
      <point x="156" y="410"/>
      <point x="146" y="415"/>
      <point x="139" y="424" type="curve" smooth="yes"/>
      <point x="132" y="433"/>
      <point x="129" y="443"/>
      <point x="131" y="456" type="curve" smooth="yes"/>
      <point x="133" y="469"/>
      <point x="138" y="479"/>
      <point x="148" y="488" type="curve" smooth="yes"/>
      <point x="158" y="497"/>
      <point x="169" y="502"/>
      <point x="181" y="502" type="curve" smooth="yes"/>
      <point x="193" y="502"/>
      <point x="203" y="497"/>
      <point x="210" y="488" type="curve" smooth="yes"/>
      <point x="217" y="479"/>
      <point x="220" y="469"/>
      <point x="218" y="456" type="curve" smooth="yes"/>
      <point x="216" y="443"/>
      <point x="211" y="433"/>
      <point x="201" y="424" type="curve" smooth="yes"/>
      <point x="191" y="415"/>
      <point x="180" y="410"/>
    </contour>
    <contour>
      <point x="112" y="-2" type="curve" smooth="yes"/>
      <point x="100" y="-2"/>
      <point x="90" y="3"/>
      <point x="83" y="12" type="curve" smooth="yes"/>
      <point x="76" y="21"/>
      <point x="73" y="31"/>
      <point x="75" y="44" type="curve" smooth="yes"/>
      <point x="77" y="57"/>
      <point x="82" y="67"/>
      <point x="92" y="76" type="curve" smooth="yes"/>
      <point x="102" y="85"/>
      <point x="113" y="90"/>
      <point x="125" y="90" type="curve" smooth="yes"/>
      <point x="137" y="90"/>
      <point x="147" y="85"/>
      <point x="154" y="76" type="curve" smooth="yes"/>
      <point x="161" y="67"/>
      <point x="164" y="57"/>
      <point x="162" y="44" type="curve" smooth="yes"/>
      <point x="160" y="31"/>
      <point x="155" y="21"/>
      <point x="145" y="12" type="curve" smooth="yes"/>
      <point x="135" y="3"/>
      <point x="124" y="-2"/>
    </contour>
  </outline>
</glyph>
<glyph name="semicolon" format="2">
  <advance width="359"/>
  <unicode hex="003B"/>
  <outline>
    <contour>
      <point x="120.124" y="146" type="curve"/>
      <point x="300.124" y="146" type="line"/>
      <point x="283.969" y="44"/>
      <point x="234.962" y="-42.333"/>
      <point x="153.103" y="-113" type="curve"/>
      <point x="13.1025" y="-113" type="line"/>
      <point x="70.0449" y="-31.2861"/>
      <point x="105.719" y="55.0479"/>
    </contour>
    <contour>
      <point x="228.932" y="290" type="curve" smooth="yes"/>
      <point x="200.932" y="290"/>
      <point x="178.375" y="300.167"/>
      <point x="161.263" y="320.5" type="curve" smooth="yes"/>
      <point x="144.149" y="340.833"/>
      <point x="137.811" y="365"/>
      <point x="142.245" y="393" type="curve" smooth="yes"/>
      <point x="146.68" y="421"/>
      <point x="160.675" y="445.167"/>
      <point x="184.228" y="465.5" type="curve" smooth="yes"/>
      <point x="207.781" y="485.833"/>
      <point x="233.559" y="496"/>
      <point x="261.559" y="496" type="curve" smooth="yes"/>
      <point x="289.559" y="496"/>
      <point x="312.115" y="485.833"/>
      <point x="329.228" y="465.5" type="curve" smooth="yes"/>
      <point x="346.341" y="445.167"/>
      <point x="352.68" y="421"/>
      <point x="348.245" y="393" type="curve" smooth="yes"/>
      <point x="343.811" y="365"/>
      <point x="329.815" y="340.833"/>
      <point x="306.263" y="320.5" type="curve" smooth="yes"/>
      <point x="282.709" y="300.167"/>
      <point x="256.932" y="290"/>
    </contour>
  </outline>
</glyph>
<glyph name="less" format="2">
  <advance width="625"/>
  <unicode hex="003C"/>
  <outline>
    <contour>
      <point x="550.45" y="489" type="line"/>
      <point x="539.997" y="423" type="line"/>
      <point x="258.198" y="298" type="line"/>
      <point x="500.4" y="173" type="line"/>
      <point x="489.789" y="106" type="line"/>
      <point x="183.972" y="265" type="line"/>
      <point x="194.425" y="331" type="line"/>
    </contour>
  </outline>
</glyph>
<glyph name="equal" format="2">
  <advance width="625"/>
  <unicode hex="003D"/>
  <outline>
    <contour>
      <point x="171" y="368" type="line"/>
      <point x="181" y="428" type="line"/>
      <point x="581" y="428" type="line"/>
      <point x="571" y="368" type="line"/>
    </contour>
    <contour>
      <point x="139" y="167" type="line"/>
      <point x="149" y="228" type="line"/>
      <point x="549" y="228" type="line"/>
      <point x="539" y="167" type="line"/>
    </contour>
  </outline>
</glyph>
<glyph name="greater" format="2">
  <advance width="589"/>
  <unicode hex="003E"/>
  <outline>
    <contour>
      <point x="211" y="489" type="line"/>
      <point x="202" y="423" type="line"/>
      <point x="433" y="298" type="line"/>
      <point x="167" y="173" type="line"/>
      <point x="157" y="107" type="line"/>
      <point x="494" y="265" type="line"/>
      <point x="503" y="331" type="line"/>
    </contour>
  </outline>
</glyph>
<glyph name="question" format="2">
  <advance width="504"/>
  <unicode hex="003F"/>
  <outline>
    <contour>
      <point x="273.068" y="32" type="curve" smooth="yes"/>
      <point x="271.01" y="19"/>
      <point x="264.426" y="9"/>
      <point x="254" y="0" type="curve" smooth="yes"/>
      <point x="243.574" y="-9"/>
      <point x="232.782" y="-14"/>
      <point x="219.782" y="-14" type="curve" smooth="yes"/>
      <point x="206.782" y="-14"/>
      <point x="197.574" y="-9"/>
      <point x="190" y="0" type="curve" smooth="yes"/>
      <point x="182.426" y="9"/>
      <point x="179.01" y="19"/>
      <point x="181.068" y="32" type="curve" smooth="yes"/>
      <point x="183.127" y="45"/>
      <point x="189.711" y="55"/>
      <point x="200.137" y="64" type="curve" smooth="yes"/>
      <point x="210.562" y="73"/>
      <point x="221.354" y="78"/>
      <point x="234.354" y="78" type="curve" smooth="yes"/>
      <point x="247.354" y="78"/>
      <point x="256.562" y="73"/>
      <point x="264.137" y="64" type="curve" smooth="yes"/>
      <point x="271.711" y="55"/>
      <point x="275.127" y="45"/>
    </contour>
    <contour>
      <point x="354.77" y="712" type="curve" smooth="yes"/>
      <point x="412.77" y="712"/>
      <point x="459.443" y="691"/>
      <point x="493.95" y="650" type="curve" smooth="yes"/>
      <point x="528.456" y="609"/>
      <point x="540.695" y="560"/>
      <point x="531.509" y="502" type="curve" smooth="yes"/>
      <point x="525.174" y="462"/>
      <point x="508.472" y="426"/>
      <point x="481.087" y="392" type="curve" smooth="yes"/>
      <point x="453.701" y="358"/>
      <point x="420.584" y="332"/>
      <point x="380.732" y="314" type="curve" smooth="yes"/>
      <point x="354.832" y="302"/>
      <point x="332.14" y="285"/>
      <point x="313.338" y="261" type="curve" smooth="yes"/>
      <point x="294.537" y="237"/>
      <point x="283.419" y="211"/>
      <point x="278.984" y="183" type="curve"/>
      <point x="218.984" y="183" type="line"/>
      <point x="225.319" y="223"/>
      <point x="242.021" y="259"/>
      <point x="268.406" y="293" type="curve" smooth="yes"/>
      <point x="294.792" y="327"/>
      <point x="326.751" y="352"/>
      <point x="365.444" y="369" type="curve" smooth="yes"/>
      <point x="393.345" y="381"/>
      <point x="416.354" y="400"/>
      <point x="436.155" y="424" type="curve" smooth="yes"/>
      <point x="455.956" y="448"/>
      <point x="467.074" y="474"/>
      <point x="471.509" y="502" type="curve" smooth="yes"/>
      <point x="478.003" y="543"/>
      <point x="469.388" y="577"/>
      <point x="444.14" y="607" type="curve" smooth="yes"/>
      <point x="418.891" y="637"/>
      <point x="386.267" y="652"/>
      <point x="345.267" y="652" type="curve" smooth="yes"/>
      <point x="311.267" y="652"/>
      <point x="278.524" y="641"/>
      <point x="248.198" y="620" type="curve" smooth="yes"/>
      <point x="217.872" y="599"/>
      <point x="195.596" y="572"/>
      <point x="182.369" y="539" type="curve"/>
      <point x="124.953" y="549" type="line"/>
      <point x="143.397" y="596"/>
      <point x="173.732" y="636"/>
      <point x="216.484" y="666" type="curve" smooth="yes"/>
      <point x="259.235" y="696"/>
      <point x="305.77" y="712"/>
    </contour>
  </outline>
</glyph>
<glyph name="at" format="2">
  <advance width="993"/>
  <unicode hex="0040"/>
  <outline>
    <contour>
      <point x="630.245" y="715" type="curve" smooth="yes"/>
      <point x="692.245" y="715"/>
      <point x="748.345" y="703"/>
      <point x="801.701" y="680" type="curve" smooth="yes"/>
      <point x="855.059" y="657"/>
      <point x="900.515" y="622"/>
      <point x="936.705" y="579" type="curve" smooth="yes"/>
      <point x="972.895" y="536"/>
      <point x="999.975" y="486"/>
      <point x="1013.95" y="429" type="curve" smooth="yes"/>
      <point x="1027.92" y="372"/>
      <point x="1030.57" y="313"/>
      <point x="1020.75" y="251" type="curve" smooth="yes"/>
      <point x="1011.57" y="193"/>
      <point x="993.857" y="138"/>
      <point x="965.779" y="87" type="curve" smooth="yes"/>
      <point x="940.335" y="40"/>
      <point x="907.366" y="-4"/>
      <point x="865.714" y="-46" type="curve" smooth="yes"/>
      <point x="840.755" y="-71"/>
      <point x="812.854" y="-83"/>
      <point x="781.854" y="-83" type="curve" smooth="yes"/>
      <point x="753.854" y="-83"/>
      <point x="730.438" y="-73"/>
      <point x="713.605" y="-53" type="curve" smooth="yes"/>
      <point x="696.773" y="-33"/>
      <point x="690.574" y="-9"/>
      <point x="695.01" y="19" type="curve" smooth="yes"/>
      <point x="706.255" y="90" type="line"/>
      <point x="651.177" y="39"/>
      <point x="588.059" y="13"/>
      <point x="519.059" y="13" type="curve" smooth="yes"/>
      <point x="453.059" y="13"/>
      <point x="400.86" y="37"/>
      <point x="362.146" y="83" type="curve" smooth="yes"/>
      <point x="323.432" y="129"/>
      <point x="308.301" y="185"/>
      <point x="318.755" y="251" type="curve" smooth="yes"/>
      <point x="329.208" y="317"/>
      <point x="362.077" y="373"/>
      <point x="415.363" y="419" type="curve" smooth="yes"/>
      <point x="468.648" y="465"/>
      <point x="528.45" y="489"/>
      <point x="594.45" y="489" type="curve" smooth="yes"/>
      <point x="660.45" y="489"/>
      <point x="713.648" y="465"/>
      <point x="752.363" y="419" type="curve" smooth="yes"/>
      <point x="791.077" y="373"/>
      <point x="805.208" y="317"/>
      <point x="794.755" y="251" type="curve" smooth="yes"/>
      <point x="758.01" y="19" type="line" smooth="yes"/>
      <point x="756.267" y="8"/>
      <point x="758.842" y="-1"/>
      <point x="765.574" y="-9" type="curve" smooth="yes"/>
      <point x="772.308" y="-17"/>
      <point x="780.674" y="-21"/>
      <point x="791.674" y="-21" type="curve" smooth="yes"/>
      <point x="803.674" y="-21"/>
      <point x="814.624" y="-15"/>
      <point x="824.05" y="-6" type="curve" smooth="yes"/>
      <point x="898.929" y="69"/>
      <point x="944.392" y="154"/>
      <point x="959.755" y="251" type="curve" smooth="yes"/>
      <point x="968.148" y="304"/>
      <point x="966.385" y="356"/>
      <point x="953.146" y="405" type="curve" smooth="yes"/>
      <point x="939.906" y="454"/>
      <point x="918.875" y="498"/>
      <point x="886.895" y="536" type="curve" smooth="yes"/>
      <point x="854.913" y="574"/>
      <point x="815.348" y="602"/>
      <point x="769.674" y="623" type="curve" smooth="yes"/>
      <point x="724" y="644"/>
      <point x="673.425" y="653"/>
      <point x="620.425" y="653" type="curve" smooth="yes"/>
      <point x="547.425" y="653"/>
      <point x="477.732" y="636"/>
      <point x="410.03" y="600" type="curve" smooth="yes"/>
      <point x="342.329" y="564"/>
      <point x="286.568" y="515"/>
      <point x="240.748" y="453" type="curve" smooth="yes"/>
      <point x="194.929" y="391"/>
      <point x="165.316" y="324"/>
      <point x="153.755" y="251" type="curve" smooth="yes"/>
      <point x="145.36" y="198"/>
      <point x="147.124" y="146"/>
      <point x="160.363" y="97" type="curve" smooth="yes"/>
      <point x="173.603" y="48"/>
      <point x="194.634" y="4"/>
      <point x="226.615" y="-34" type="curve" smooth="yes"/>
      <point x="258.597" y="-72"/>
      <point x="298.161" y="-100"/>
      <point x="343.836" y="-121" type="curve" smooth="yes"/>
      <point x="389.51" y="-142"/>
      <point x="440.084" y="-151"/>
      <point x="493.084" y="-151" type="curve" smooth="yes"/>
      <point x="541.084" y="-151"/>
      <point x="590.351" y="-143"/>
      <point x="639.202" y="-125" type="curve"/>
      <point x="652.174" y="-182" type="line"/>
      <point x="594.848" y="-203"/>
      <point x="539.264" y="-213"/>
      <point x="483.264" y="-213" type="curve" smooth="yes"/>
      <point x="421.264" y="-213"/>
      <point x="364.165" y="-201"/>
      <point x="310.808" y="-178" type="curve" smooth="yes"/>
      <point x="257.45" y="-155"/>
      <point x="212.994" y="-120"/>
      <point x="176.805" y="-77" type="curve" smooth="yes"/>
      <point x="140.615" y="-34"/>
      <point x="113.534" y="16"/>
      <point x="99.5625" y="73" type="curve" smooth="yes"/>
      <point x="85.5898" y="130"/>
      <point x="82.9346" y="189"/>
      <point x="92.7549" y="251" type="curve" smooth="yes"/>
      <point x="102.574" y="313"/>
      <point x="123.919" y="372"/>
      <point x="155.947" y="429" type="curve" smooth="yes"/>
      <point x="187.975" y="486"/>
      <point x="230.895" y="536"/>
      <point x="280.705" y="579" type="curve" smooth="yes"/>
      <point x="330.515" y="622"/>
      <point x="386.059" y="657"/>
      <point x="446.701" y="680" type="curve" smooth="yes"/>
      <point x="507.345" y="703"/>
      <point x="568.245" y="715"/>
    </contour>
    <contour>
      <point x="584.472" y="426" type="curve" smooth="yes"/>
      <point x="536.472" y="426"/>
      <point x="492.779" y="409"/>
      <point x="453.395" y="375" type="curve" smooth="yes"/>
      <point x="414.009" y="341"/>
      <point x="389.357" y="299"/>
      <point x="381.755" y="251" type="curve" smooth="yes"/>
      <point x="374.152" y="203"/>
      <point x="385.5" y="161"/>
      <point x="414.115" y="127" type="curve" smooth="yes"/>
      <point x="442.729" y="93"/>
      <point x="481.037" y="76"/>
      <point x="529.037" y="76" type="curve" smooth="yes"/>
      <point x="577.037" y="76"/>
      <point x="621.729" y="93"/>
      <point x="661.115" y="127" type="curve" smooth="yes"/>
      <point x="700.5" y="161"/>
      <point x="724.152" y="203"/>
      <point x="731.755" y="251" type="curve" smooth="yes"/>
      <point x="739.357" y="299"/>
      <point x="729.009" y="341"/>
      <point x="700.395" y="375" type="curve" smooth="yes"/>
      <point x="671.779" y="409"/>
      <point x="632.472" y="426"/>
    </contour>
  </outline>
</glyph>
<glyph name="B" format="2">
  <advance width="631"/>
  <unicode hex="0042"/>
  <outline>
    <contour>
      <point x="214.634" y="326" type="line"/>
      <point x="172.82" y="62" type="line"/>
      <point x="375.82" y="62" type="line" smooth="yes"/>
      <point x="411.82" y="62"/>
      <point x="444.879" y="75"/>
      <point x="474.997" y="101" type="curve" smooth="yes"/>
      <point x="505.115" y="127"/>
      <point x="523.024" y="158"/>
      <point x="528.727" y="194" type="curve" smooth="yes"/>
      <point x="534.429" y="230"/>
      <point x="526.338" y="261"/>
      <point x="504.456" y="287" type="curve" smooth="yes"/>
      <point x="482.574" y="313"/>
      <point x="453.634" y="326"/>
      <point x="417.634" y="326" type="curve" smooth="yes"/>
    </contour>
    <contour>
      <point x="264.049" y="638" type="line"/>
      <point x="224.453" y="388" type="line"/>
      <point x="391.453" y="388" type="line" smooth="yes"/>
      <point x="426.453" y="388"/>
      <point x="458.354" y="400"/>
      <point x="486.155" y="424" type="curve" smooth="yes"/>
      <point x="513.956" y="448"/>
      <point x="530.708" y="478"/>
      <point x="536.251" y="513" type="curve" smooth="yes"/>
      <point x="541.795" y="548"/>
      <point x="534.546" y="578"/>
      <point x="514.348" y="602" type="curve" smooth="yes"/>
      <point x="494.148" y="626"/>
      <point x="466.049" y="638"/>
      <point x="431.049" y="638" type="curve" smooth="yes"/>
    </contour>
    <contour>
      <point x="213.869" y="700" type="line"/>
      <point x="440.869" y="700" type="line" smooth="yes"/>
      <point x="491.869" y="700"/>
      <point x="533.019" y="682"/>
      <point x="564.158" y="645" type="curve" smooth="yes"/>
      <point x="595.298" y="608"/>
      <point x="606.329" y="564"/>
      <point x="598.251" y="513" type="curve" smooth="yes"/>
      <point x="588.906" y="454"/>
      <point x="558.463" y="407"/>
      <point x="507.444" y="369" type="curve"/>
      <point x="537.91" y="353"/>
      <point x="560.108" y="329"/>
      <point x="576.198" y="298" type="curve" smooth="yes"/>
      <point x="592.289" y="267"/>
      <point x="596.745" y="232"/>
      <point x="590.727" y="194" type="curve" smooth="yes"/>
      <point x="582.332" y="141"/>
      <point x="556.047" y="95"/>
      <point x="512.028" y="57" type="curve" smooth="yes"/>
      <point x="468.01" y="19"/>
      <point x="419" y="0"/>
      <point x="366" y="0" type="curve" smooth="yes"/>
      <point x="103" y="0" type="line"/>
    </contour>
  </outline>
</glyph>
<glyph name="C" format="2">
  <advance width="644"/>
  <unicode hex="0043"/>
  <outline>
    <contour>
      <point x="469" y="712" type="curve" smooth="yes"/>
      <point x="517" y="712"/>
      <point x="560" y="702"/>
      <point x="598" y="682" type="curve" smooth="yes"/>
      <point x="636" y="662"/>
      <point x="666" y="635"/>
      <point x="690" y="600" type="curve"/>
      <point x="643" y="556" type="line"/>
      <point x="601" y="620"/>
      <point x="541" y="652"/>
      <point x="461" y="652" type="curve" smooth="yes"/>
      <point x="384" y="652"/>
      <point x="317" y="623"/>
      <point x="259" y="564" type="curve" smooth="yes"/>
      <point x="201" y="505"/>
      <point x="166" y="434"/>
      <point x="154" y="350" type="curve" smooth="yes"/>
      <point x="142" y="266"/>
      <point x="158" y="195"/>
      <point x="199" y="136" type="curve" smooth="yes"/>
      <point x="240" y="77"/>
      <point x="299" y="48"/>
      <point x="376" y="48" type="curve" smooth="yes"/>
      <point x="456" y="48"/>
      <point x="525" y="80"/>
      <point x="585" y="144" type="curve"/>
      <point x="620" y="100" type="line"/>
      <point x="586" y="65"/>
      <point x="547" y="38"/>
      <point x="504" y="18" type="curve" smooth="yes"/>
      <point x="461" y="-2"/>
      <point x="415" y="-12"/>
      <point x="367" y="-12" type="curve" smooth="yes"/>
      <point x="273" y="-12"/>
      <point x="201" y="23"/>
      <point x="151" y="93" type="curve" smooth="yes"/>
      <point x="101" y="163"/>
      <point x="83" y="249"/>
      <point x="97" y="350" type="curve" smooth="yes"/>
      <point x="111" y="451"/>
      <point x="154" y="537"/>
      <point x="224" y="607" type="curve" smooth="yes"/>
      <point x="294" y="677"/>
      <point x="375" y="712"/>
    </contour>
  </outline>
</glyph>
<glyph name="D" format="2">
  <advance width="688"/>
  <unicode hex="0044"/>
  <outline>
    <contour>
      <point x="387.366" y="640" type="curve" smooth="yes"/>
      <point x="264.366" y="640" type="line"/>
      <point x="172.503" y="60" type="line"/>
      <point x="295.503" y="60" type="line" smooth="yes"/>
      <point x="375.503" y="60"/>
      <point x="447.938" y="88"/>
      <point x="513.966" y="145" type="curve" smooth="yes"/>
      <point x="579.994" y="202"/>
      <point x="618.764" y="270"/>
      <point x="631.435" y="350" type="curve" smooth="yes"/>
      <point x="644.105" y="430"/>
      <point x="626.875" y="498"/>
      <point x="578.903" y="555" type="curve" smooth="yes"/>
      <point x="530.932" y="612"/>
      <point x="467.366" y="640"/>
    </contour>
    <contour>
      <point x="396.869" y="700" type="line" smooth="yes"/>
      <point x="493.869" y="700"/>
      <point x="570.484" y="666"/>
      <point x="627.714" y="598" type="curve" smooth="yes"/>
      <point x="684.943" y="530"/>
      <point x="706.798" y="447"/>
      <point x="691.435" y="350" type="curve" smooth="yes"/>
      <point x="676.071" y="253"/>
      <point x="628.084" y="171"/>
      <point x="549.313" y="103" type="curve" smooth="yes"/>
      <point x="470.543" y="35"/>
      <point x="383" y="0"/>
      <point x="286" y="0" type="curve" smooth="yes"/>
      <point x="103" y="0" type="line"/>
      <point x="213.869" y="700" type="line"/>
    </contour>
  </outline>
</glyph>
<glyph name="E" format="2">
  <advance width="598"/>
  <unicode hex="0045"/>
  <outline>
    <contour>
      <point x="103" y="0" type="line"/>
      <point x="213.869" y="700" type="line"/>
      <point x="616.869" y="700" type="line"/>
      <point x="607.366" y="640" type="line"/>
      <point x="264.366" y="640" type="line"/>
      <point x="224.611" y="389" type="line"/>
      <point x="503.611" y="389" type="line"/>
      <point x="494.108" y="329" type="line"/>
      <point x="215.108" y="329" type="line"/>
      <point x="172.503" y="60" type="line"/>
      <point x="515.503" y="60" type="line"/>
      <point x="506" y="0" type="line"/>
    </contour>
  </outline>
</glyph>
<glyph name="F" format="2">
  <advance width="512"/>
  <unicode hex="0046"/>
  <outline>
    <contour>
      <point x="95" y="0" type="line"/>
      <point x="193" y="700" type="line"/>
      <point x="576" y="700" type="line"/>
      <point x="568" y="640" type="line"/>
      <point x="242" y="640" type="line"/>
      <point x="205" y="378" type="line"/>
      <point x="475" y="378" type="line"/>
      <point x="466" y="318" type="line"/>
      <point x="197" y="318" type="line"/>
      <point x="152" y="0" type="line"/>
    </contour>
  </outline>
</glyph>
<glyph name="G" format="2">
  <advance width="771"/>
  <unicode hex="0047"/>
  <outline>
    <contour>
      <point x="504" y="712" type="curve" smooth="yes"/>
      <point x="554" y="712"/>
      <point x="600" y="703"/>
      <point x="639" y="683" type="curve" smooth="yes"/>
      <point x="678" y="663"/>
      <point x="711" y="636"/>
      <point x="736" y="600" type="curve"/>
      <point x="685" y="556" type="line"/>
      <point x="641" y="620"/>
      <point x="578" y="652"/>
      <point x="494" y="652" type="curve" smooth="yes"/>
      <point x="413" y="652"/>
      <point x="341" y="623"/>
      <point x="280" y="564" type="curve" smooth="yes"/>
      <point x="219" y="505"/>
      <point x="181" y="434"/>
      <point x="168" y="350" type="curve" smooth="yes"/>
      <point x="155" y="266"/>
      <point x="170" y="195"/>
      <point x="213" y="136" type="curve" smooth="yes"/>
      <point x="256" y="77"/>
      <point x="318" y="48"/>
      <point x="399" y="48" type="curve" smooth="yes"/>
      <point x="483" y="48"/>
      <point x="556" y="80"/>
      <point x="620" y="144" type="curve" smooth="yes"/>
      <point x="669" y="193"/>
      <point x="702" y="252"/>
      <point x="719" y="320" type="curve"/>
      <point x="530" y="320" type="line"/>
      <point x="539" y="380" type="line"/>
      <point x="789" y="380" type="line"/>
      <point x="784" y="350" type="line" smooth="yes"/>
      <point x="768" y="252"/>
      <point x="726" y="168"/>
      <point x="656" y="100" type="curve" smooth="yes"/>
      <point x="619" y="65"/>
      <point x="579" y="38"/>
      <point x="533" y="18" type="curve" smooth="yes"/>
      <point x="487" y="-2"/>
      <point x="439" y="-12"/>
      <point x="389" y="-12" type="curve" smooth="yes"/>
      <point x="290" y="-12"/>
      <point x="215" y="23"/>
      <point x="163" y="93" type="curve" smooth="yes"/>
      <point x="111" y="163"/>
      <point x="92" y="248"/>
      <point x="108" y="350" type="curve" smooth="yes"/>
      <point x="124" y="452"/>
      <point x="170" y="537"/>
      <point x="244" y="607" type="curve" smooth="yes"/>
      <point x="318" y="677"/>
      <point x="405" y="712"/>
    </contour>
  </outline>
</glyph>
<glyph name="H" format="2">
  <advance width="732"/>
  <unicode hex="0048"/>
  <outline>
    <contour>
      <point x="103" y="0" type="line"/>
      <point x="213.869" y="700" type="line"/>
      <point x="273.869" y="700" type="line"/>
      <point x="224.929" y="391" type="line"/>
      <point x="631.929" y="391" type="line"/>
      <point x="680.869" y="700" type="line"/>
      <point x="740.869" y="700" type="line"/>
      <point x="630" y="0" type="line"/>
      <point x="570" y="0" type="line"/>
      <point x="622.425" y="331" type="line"/>
      <point x="215.425" y="331" type="line"/>
      <point x="163" y="0" type="line"/>
    </contour>
  </outline>
</glyph>
<glyph name="I" format="2">
  <advance width="247"/>
  <unicode hex="0049"/>
  <outline>
    <contour>
      <point x="95" y="0" type="line"/>
      <point x="193" y="700" type="line"/>
      <point x="250" y="700" type="line"/>
      <point x="152" y="0" type="line"/>
    </contour>
  </outline>
</glyph>
<glyph name="J" format="2">
  <advance width="408"/>
  <unicode hex="004A"/>
  <outline>
    <contour>
      <point x="367" y="700" type="line"/>
      <point x="427" y="700" type="line"/>
      <point x="343" y="169" type="line" smooth="yes"/>
      <point x="335" y="119"/>
      <point x="311" y="77"/>
      <point x="270" y="42" type="curve" smooth="yes"/>
      <point x="229" y="7"/>
      <point x="184" y="-11"/>
      <point x="134" y="-11" type="curve" smooth="yes"/>
      <point x="84" y="-11"/>
      <point x="45" y="7"/>
      <point x="16" y="42" type="curve"/>
      <point x="64" y="84" type="line"/>
      <point x="83" y="61"/>
      <point x="111" y="49"/>
      <point x="144" y="49" type="curve" smooth="yes"/>
      <point x="176" y="49"/>
      <point x="205" y="61"/>
      <point x="233" y="85" type="curve" smooth="yes"/>
      <point x="261" y="109"/>
      <point x="278" y="137"/>
      <point x="283" y="169" type="curve" smooth="yes"/>
    </contour>
  </outline>
</glyph>
<glyph name="K" format="2">
  <advance width="593"/>
  <unicode hex="004B"/>
  <outline>
    <contour>
      <point x="103" y="0" type="line"/>
      <point x="213.869" y="700" type="line"/>
      <point x="273.869" y="700" type="line"/>
      <point x="219.86" y="359" type="line"/>
      <point x="604.869" y="700" type="line"/>
      <point x="686.869" y="700" type="line"/>
      <point x="330.661" y="383" type="line"/>
      <point x="586" y="0" type="line"/>
      <point x="508" y="0" type="line"/>
      <point x="282.692" y="339" type="line"/>
      <point x="205.922" y="271" type="line"/>
      <point x="163" y="0" type="line"/>
    </contour>
  </outline>
</glyph>
<glyph name="L" format="2">
  <advance width="518"/>
  <unicode hex="004C"/>
  <outline>
    <contour>
      <point x="103" y="0" type="line"/>
      <point x="214" y="700" type="line"/>
      <point x="274" y="700" type="line"/>
      <point x="173" y="60" type="line"/>
      <point x="516" y="60" type="line"/>
      <point x="506" y="0" type="line"/>
    </contour>
  </outline>
</glyph>
<glyph name="P" format="2">
  <advance width="573"/>
  <unicode hex="0050"/>
  <outline>
    <contour>
      <point x="264.366" y="640" type="line"/>
      <point x="214.634" y="326" type="line"/>
      <point x="375.634" y="326" type="line" smooth="yes"/>
      <point x="417.634" y="326"/>
      <point x="458.167" y="342"/>
      <point x="494.077" y="373" type="curve" smooth="yes"/>
      <point x="529.987" y="404"/>
      <point x="550.848" y="441"/>
      <point x="557.5" y="483" type="curve" smooth="yes"/>
      <point x="564.151" y="525"/>
      <point x="555.012" y="562"/>
      <point x="528.922" y="593" type="curve" smooth="yes"/>
      <point x="502.832" y="624"/>
      <point x="467.366" y="640"/>
      <point x="425.366" y="640" type="curve" smooth="yes"/>
    </contour>
    <contour>
      <point x="213.869" y="700" type="line"/>
      <point x="434.869" y="700" type="line" smooth="yes"/>
      <point x="494.869" y="700"/>
      <point x="543.543" y="679"/>
      <point x="578.891" y="637" type="curve" smooth="yes"/>
      <point x="614.238" y="595"/>
      <point x="627.003" y="543"/>
      <point x="617.5" y="483" type="curve" smooth="yes"/>
      <point x="607.997" y="423"/>
      <point x="578.919" y="372"/>
      <point x="530.267" y="330" type="curve" smooth="yes"/>
      <point x="481.614" y="288"/>
      <point x="426.13" y="266"/>
      <point x="366.13" y="266" type="curve" smooth="yes"/>
      <point x="205.13" y="266" type="line"/>
      <point x="163" y="0" type="line"/>
      <point x="103" y="0" type="line"/>
    </contour>
  </outline>
</glyph>
<glyph name="Q" format="2">
  <advance width="781"/>
  <unicode hex="0051"/>
  <outline>
    <contour>
      <point x="494.267" y="652" type="curve" smooth="yes"/>
      <point x="413.267" y="652"/>
      <point x="341.674" y="623"/>
      <point x="280.329" y="564" type="curve" smooth="yes"/>
      <point x="218.984" y="505"/>
      <point x="181.739" y="434"/>
      <point x="168.435" y="350" type="curve" smooth="yes"/>
      <point x="155.13" y="266"/>
      <point x="169.885" y="195"/>
      <point x="212.54" y="136" type="curve" smooth="yes"/>
      <point x="255.195" y="77"/>
      <point x="317.603" y="48"/>
      <point x="398.603" y="48" type="curve" smooth="yes"/>
      <point x="466.603" y="48"/>
      <point x="527.771" y="68"/>
      <point x="582.422" y="110" type="curve"/>
      <point x="517.46" y="186" type="line"/>
      <point x="567.271" y="229" type="line"/>
      <point x="630.392" y="154" type="line"/>
      <point x="681.103" y="209"/>
      <point x="712.397" y="274"/>
      <point x="724.435" y="350" type="curve" smooth="yes"/>
      <point x="737.739" y="434"/>
      <point x="721.984" y="505"/>
      <point x="679.329" y="564" type="curve" smooth="yes"/>
      <point x="636.674" y="623"/>
      <point x="575.267" y="652"/>
    </contour>
    <contour>
      <point x="503.77" y="712" type="curve" smooth="yes"/>
      <point x="602.77" y="712"/>
      <point x="678.227" y="677"/>
      <point x="730.14" y="607" type="curve" smooth="yes"/>
      <point x="782.053" y="537"/>
      <point x="800.59" y="452"/>
      <point x="784.435" y="350" type="curve" smooth="yes"/>
      <point x="769.705" y="257"/>
      <point x="729.876" y="176"/>
      <point x="666.422" y="110" type="curve"/>
      <point x="733.752" y="30" type="line"/>
      <point x="685.1" y="-12" type="line"/>
      <point x="617.611" y="67" type="line"/>
      <point x="550.218" y="14"/>
      <point x="474.1" y="-12"/>
      <point x="389.1" y="-12" type="curve" smooth="yes"/>
      <point x="290.1" y="-12"/>
      <point x="214.643" y="23"/>
      <point x="162.729" y="93" type="curve" smooth="yes"/>
      <point x="110.816" y="163"/>
      <point x="92.2793" y="248"/>
      <point x="108.435" y="350" type="curve" smooth="yes"/>
      <point x="124.59" y="452"/>
      <point x="170.053" y="537"/>
      <point x="244.14" y="607" type="curve" smooth="yes"/>
      <point x="318.227" y="677"/>
      <point x="404.77" y="712"/>
    </contour>
  </outline>
</glyph>
<glyph name="V" format="2">
  <advance width="586"/>
  <unicode hex="0056"/>
  <outline>
    <contour>
      <point x="108" y="700" type="line"/>
      <point x="169" y="700" type="line"/>
      <point x="304" y="84" type="line"/>
      <point x="611" y="700" type="line"/>
      <point x="673" y="700" type="line"/>
      <point x="322" y="0" type="line"/>
      <point x="262" y="0" type="line"/>
    </contour>
  </outline>
</glyph>
<glyph name="W" format="2">
  <advance width="866"/>
  <unicode hex="0057"/>
  <outline>
    <contour>
      <point x="894" y="700" type="line"/>
      <point x="955" y="700" type="line"/>
      <point x="660" y="0" type="line"/>
      <point x="600" y="0" type="line"/>
      <point x="516" y="591" type="line"/>
      <point x="267" y="0" type="line"/>
      <point x="207" y="0" type="line"/>
      <point x="107" y="700" type="line"/>
      <point x="169" y="700" type="line"/>
      <point x="252" y="107" type="line"/>
      <point x="501" y="700" type="line"/>
      <point x="562" y="700" type="line"/>
      <point x="645" y="107" type="line"/>
    </contour>
  </outline>
</glyph>
<glyph name="X" format="2">
  <advance width="515"/>
  <unicode hex="0058"/>
  <outline>
    <contour>
      <point x="537" y="700" type="line"/>
      <point x="605" y="700" type="line"/>
      <point x="341" y="350" type="line"/>
      <point x="506" y="0" type="line"/>
      <point x="438" y="0" type="line"/>
      <point x="300" y="295" type="line"/>
      <point x="78" y="0" type="line"/>
      <point x="10" y="0" type="line"/>
      <point x="273" y="350" type="line"/>
      <point x="108" y="700" type="line"/>
      <point x="176" y="700" type="line"/>
      <point x="315" y="405" type="line"/>
    </contour>
  </outline>
</glyph>
<glyph name="Y" format="2">
  <advance width="531"/>
  <unicode hex="0059"/>
  <outline>
    <contour>
      <point x="124" y="700" type="line"/>
      <point x="195" y="700" type="line"/>
      <point x="328" y="390" type="line"/>
      <point x="559" y="700" type="line"/>
      <point x="630" y="700" type="line"/>
      <point x="347" y="321" type="line"/>
      <point x="296" y="0" type="line"/>
      <point x="236" y="0" type="line"/>
      <point x="287" y="321" type="line"/>
    </contour>
  </outline>
</glyph>
<glyph name="Z" format="2">
  <advance width="572"/>
  <unicode hex="005A"/>
  <outline>
    <contour>
      <point x="48" y="0" type="line"/>
      <point x="56" y="60" type="line"/>
      <point x="544" y="640" type="line"/>
      <point x="140" y="640" type="line"/>
      <point x="149" y="700" type="line"/>
      <point x="624" y="700" type="line"/>
      <point x="615" y="640" type="line"/>
      <point x="127" y="60" type="line"/>
      <point x="531" y="60" type="line"/>
      <point x="522" y="0" type="line"/>
    </contour>
  </outline>
</glyph>
<glyph name="bracketleft" format="2">
  <advance width="321"/>
  <unicode hex="005B"/>
  <outline>
    <contour>
      <point x="294.708" y="800" type="line" smooth="yes"/>
      <point x="276.708" y="800"/>
      <point x="260.757" y="794"/>
      <point x="245.698" y="781" type="curve" smooth="yes"/>
      <point x="230.64" y="768"/>
      <point x="222.264" y="753"/>
      <point x="219.412" y="735" type="curve" smooth="yes"/>
      <point x="97.457" y="-35" type="line" smooth="yes"/>
      <point x="94.6055" y="-53"/>
      <point x="98.2295" y="-68"/>
      <point x="109.171" y="-81" type="curve" smooth="yes"/>
      <point x="120.112" y="-94"/>
      <point x="134.161" y="-100"/>
      <point x="152.161" y="-100" type="curve" smooth="yes"/>
      <point x="223.161" y="-100" type="line"/>
      <point x="232.665" y="-40" type="line"/>
      <point x="161.665" y="-40" type="line" smooth="yes"/>
      <point x="158.665" y="-40"/>
      <point x="156.981" y="-38"/>
      <point x="157.457" y="-35" type="curve" smooth="yes"/>
      <point x="279.412" y="735" type="line" smooth="yes"/>
      <point x="279.888" y="738"/>
      <point x="282.204" y="740"/>
      <point x="285.204" y="740" type="curve" smooth="yes"/>
      <point x="356.204" y="740" type="line"/>
      <point x="365.708" y="800" type="line"/>
    </contour>
  </outline>
</glyph>
<glyph name="backslash" format="2">
  <advance width="455"/>
  <unicode hex="005C"/>
  <outline>
    <contour>
      <point x="297.571" y="747" type="line"/>
      <point x="127.689" y="693.762" type="line"/>
      <point x="261.637" y="-87.8613" type="line"/>
      <point x="431.517" y="-34.6211" type="line"/>
    </contour>
  </outline>
</glyph>
<glyph name="bracketright" format="2">
  <advance width="300"/>
  <unicode hex="005D"/>
  <outline>
    <contour>
      <point x="265" y="800" type="line" smooth="yes"/>
      <point x="282" y="800"/>
      <point x="296" y="794"/>
      <point x="306" y="781" type="curve" smooth="yes"/>
      <point x="316" y="768"/>
      <point x="321" y="753"/>
      <point x="318" y="735" type="curve" smooth="yes"/>
      <point x="210" y="-35" type="line" smooth="yes"/>
      <point x="207" y="-53"/>
      <point x="199" y="-68"/>
      <point x="185" y="-81" type="curve" smooth="yes"/>
      <point x="171" y="-94"/>
      <point x="156" y="-100"/>
      <point x="139" y="-100" type="curve" smooth="yes"/>
      <point x="71" y="-100" type="line"/>
      <point x="80" y="-40" type="line"/>
      <point x="147" y="-40" type="line" smooth="yes"/>
      <point x="150" y="-40"/>
      <point x="153" y="-38"/>
      <point x="153" y="-35" type="curve" smooth="yes"/>
      <point x="261" y="735" type="line" smooth="yes"/>
      <point x="261" y="738"/>
      <point x="260" y="740"/>
      <point x="257" y="740" type="curve" smooth="yes"/>
      <point x="190" y="740" type="line"/>
      <point x="198" y="800" type="line"/>
    </contour>
  </outline>
</glyph>
<glyph name="asciicircum" format="2">
  <advance width="547"/>
  <unicode hex="005E"/>
  <outline>
    <contour>
      <point x="458" y="373" type="line"/>
      <point x="350" y="700" type="line"/>
      <point x="418" y="700" type="line"/>
      <point x="524" y="373" type="line"/>
    </contour>
    <contour>
      <point x="143" y="373" type="line"/>
      <point x="350" y="700" type="line"/>
      <point x="418" y="700" type="line"/>
      <point x="207" y="373" type="line"/>
    </contour>
  </outline>
</glyph>
<glyph name="underscore" format="2">
  <advance width="485"/>
  <unicode hex="005F"/>
  <outline>
    <contour>
      <point x="23.4971" y="-60" type="line"/>
      <point x="33" y="0" type="line"/>
      <point x="453" y="0" type="line"/>
      <point x="443.497" y="-60" type="line"/>
    </contour>
  </outline>
</glyph>
<glyph name="grave" format="2">
  <advance width="194"/>
  <unicode hex="0060"/>
  <outline>
    <contour>
      <point x="204" y="574" type="line"/>
      <point x="104" y="701" type="line"/>
      <point x="189" y="701" type="line"/>
      <point x="276" y="574" type="line"/>
    </contour>
  </outline>
</glyph>
<glyph name="a" format="2">
  <advance width="608"/>
  <unicode hex="0061"/>
  <outline>
    <contour>
      <point x="550.192" y="500" type="line"/>
      <point x="610.192" y="500" type="line"/>
      <point x="531" y="0" type="line"/>
      <point x="471" y="0" type="line"/>
      <point x="484.463" y="85" type="line"/>
      <point x="478.195" y="77"/>
      <point x="471.929" y="69"/>
      <point x="464.82" y="62" type="curve" smooth="yes"/>
      <point x="418.059" y="13"/>
      <point x="361.1" y="-12"/>
      <point x="291.1" y="-12" type="curve" smooth="yes"/>
      <point x="220.1" y="-12"/>
      <point x="165.059" y="13"/>
      <point x="127.137" y="64" type="curve" smooth="yes"/>
      <point x="89.2139" y="115"/>
      <point x="76.0342" y="177"/>
      <point x="87.5957" y="250" type="curve" smooth="yes"/>
      <point x="99.1582" y="323"/>
      <point x="131.978" y="385"/>
      <point x="186.056" y="436" type="curve" smooth="yes"/>
      <point x="240.133" y="487"/>
      <point x="303.093" y="512"/>
      <point x="374.093" y="512" type="curve" smooth="yes"/>
      <point x="444.093" y="512"/>
      <point x="493.133" y="487"/>
      <point x="524.372" y="438" type="curve" smooth="yes"/>
      <point x="529.264" y="431"/>
      <point x="532.997" y="423"/>
      <point x="536.729" y="415" type="curve"/>
    </contour>
    <contour>
      <point x="364.59" y="452" type="curve" smooth="yes"/>
      <point x="309.59" y="452"/>
      <point x="261.58" y="433"/>
      <point x="221.403" y="394" type="curve" smooth="yes"/>
      <point x="181.227" y="355"/>
      <point x="156.624" y="307"/>
      <point x="147.596" y="250" type="curve" smooth="yes"/>
      <point x="138.568" y="193"/>
      <point x="147.966" y="145"/>
      <point x="175.789" y="106" type="curve" smooth="yes"/>
      <point x="203.611" y="67"/>
      <point x="245.603" y="48"/>
      <point x="300.603" y="48" type="curve" smooth="yes"/>
      <point x="354.603" y="48"/>
      <point x="400.611" y="67"/>
      <point x="438.789" y="106" type="curve" smooth="yes"/>
      <point x="476.966" y="145"/>
      <point x="501.41" y="192"/>
      <point x="510.596" y="250" type="curve" smooth="yes"/>
      <point x="519.782" y="308"/>
      <point x="510.227" y="355"/>
      <point x="484.403" y="394" type="curve" smooth="yes"/>
      <point x="458.58" y="433"/>
      <point x="418.59" y="452"/>
    </contour>
  </outline>
</glyph>
<glyph name="b" format="2">
  <advance width="608"/>
  <unicode hex="0062"/>
  <outline>
    <contour>
      <point x="387.59" y="452" type="curve" smooth="yes"/>
      <point x="333.59" y="452"/>
      <point x="287.58" y="433"/>
      <point x="249.403" y="394" type="curve" smooth="yes"/>
      <point x="211.227" y="355"/>
      <point x="186.782" y="308"/>
      <point x="177.596" y="250" type="curve" smooth="yes"/>
      <point x="168.41" y="192"/>
      <point x="177.966" y="145"/>
      <point x="203.789" y="106" type="curve" smooth="yes"/>
      <point x="229.611" y="67"/>
      <point x="269.603" y="48"/>
      <point x="323.603" y="48" type="curve" smooth="yes"/>
      <point x="378.603" y="48"/>
      <point x="426.611" y="67"/>
      <point x="466.789" y="106" type="curve" smooth="yes"/>
      <point x="506.966" y="145"/>
      <point x="531.568" y="193"/>
      <point x="540.596" y="250" type="curve" smooth="yes"/>
      <point x="549.624" y="307"/>
      <point x="540.227" y="355"/>
      <point x="512.403" y="394" type="curve" smooth="yes"/>
      <point x="484.58" y="433"/>
      <point x="442.59" y="452"/>
    </contour>
    <contour>
      <point x="397.093" y="512" type="curve" smooth="yes"/>
      <point x="468.093" y="512"/>
      <point x="523.133" y="487"/>
      <point x="561.056" y="436" type="curve" smooth="yes"/>
      <point x="598.978" y="385"/>
      <point x="612.316" y="324"/>
      <point x="600.596" y="250" type="curve" smooth="yes"/>
      <point x="588.876" y="176"/>
      <point x="556.214" y="115"/>
      <point x="502.137" y="64" type="curve" smooth="yes"/>
      <point x="448.059" y="13"/>
      <point x="385.1" y="-12"/>
      <point x="314.1" y="-12" type="curve" smooth="yes"/>
      <point x="244.1" y="-12"/>
      <point x="195.059" y="13"/>
      <point x="163.82" y="62" type="curve" smooth="yes"/>
      <point x="158.929" y="69"/>
      <point x="155.195" y="77"/>
      <point x="151.463" y="85" type="curve"/>
      <point x="138" y="0" type="line"/>
      <point x="78" y="0" type="line"/>
      <point x="188.869" y="700" type="line"/>
      <point x="248.869" y="700" type="line"/>
      <point x="203.729" y="415" type="line"/>
      <point x="209.997" y="423"/>
      <point x="216.264" y="431"/>
      <point x="223.372" y="438" type="curve" smooth="yes"/>
      <point x="270.133" y="487"/>
      <point x="327.093" y="512"/>
    </contour>
  </outline>
</glyph>
<glyph name="c" format="2">
  <advance width="504"/>
  <unicode hex="0063"/>
  <outline>
    <contour>
      <point x="374.093" y="512" type="curve" smooth="yes"/>
      <point x="444.093" y="512"/>
      <point x="498.133" y="487"/>
      <point x="536.214" y="437" type="curve"/>
      <point x="488.245" y="393" type="line"/>
      <point x="459.422" y="432"/>
      <point x="418.59" y="452"/>
      <point x="364.59" y="452" type="curve" smooth="yes"/>
      <point x="309.59" y="452"/>
      <point x="261.58" y="433"/>
      <point x="221.403" y="394" type="curve" smooth="yes"/>
      <point x="181.227" y="355"/>
      <point x="156.624" y="307"/>
      <point x="147.596" y="250" type="curve" smooth="yes"/>
      <point x="138.568" y="193"/>
      <point x="147.966" y="145"/>
      <point x="175.789" y="106" type="curve" smooth="yes"/>
      <point x="203.611" y="67"/>
      <point x="245.603" y="48"/>
      <point x="300.603" y="48" type="curve" smooth="yes"/>
      <point x="354.603" y="48"/>
      <point x="401.771" y="68"/>
      <point x="442.947" y="107" type="curve"/>
      <point x="476.979" y="63" type="line"/>
      <point x="423.059" y="13"/>
      <point x="361.1" y="-12"/>
      <point x="291.1" y="-12" type="curve" smooth="yes"/>
      <point x="220.1" y="-12"/>
      <point x="165.059" y="13"/>
      <point x="127.137" y="64" type="curve" smooth="yes"/>
      <point x="89.2139" y="115"/>
      <point x="76.0342" y="177"/>
      <point x="87.5957" y="250" type="curve" smooth="yes"/>
      <point x="99.1582" y="323"/>
      <point x="131.978" y="385"/>
      <point x="186.056" y="436" type="curve" smooth="yes"/>
      <point x="240.133" y="487"/>
      <point x="303.093" y="512"/>
    </contour>
  </outline>
</glyph>
<glyph name="d" format="2">
  <advance width="608"/>
  <unicode hex="0064"/>
  <outline>
    <contour>
      <point x="365" y="452" type="curve" smooth="yes"/>
      <point x="419" y="452"/>
      <point x="458" y="433"/>
      <point x="484" y="394" type="curve" smooth="yes"/>
      <point x="510" y="355"/>
      <point x="520" y="308"/>
      <point x="511" y="250" type="curve" smooth="yes"/>
      <point x="502" y="192"/>
      <point x="477" y="145"/>
      <point x="439" y="106" type="curve" smooth="yes"/>
      <point x="401" y="67"/>
      <point x="355" y="48"/>
      <point x="301" y="48" type="curve" smooth="yes"/>
      <point x="246" y="48"/>
      <point x="204" y="67"/>
      <point x="176" y="106" type="curve" smooth="yes"/>
      <point x="148" y="145"/>
      <point x="139" y="193"/>
      <point x="148" y="250" type="curve" smooth="yes"/>
      <point x="157" y="307"/>
      <point x="181" y="355"/>
      <point x="221" y="394" type="curve" smooth="yes"/>
      <point x="261" y="433"/>
      <point x="310" y="452"/>
    </contour>
    <contour>
      <point x="374" y="512" type="curve" smooth="yes"/>
      <point x="303" y="512"/>
      <point x="240" y="487"/>
      <point x="186" y="436" type="curve" smooth="yes"/>
      <point x="132" y="385"/>
      <point x="100" y="324"/>
      <point x="88" y="250" type="curve" smooth="yes"/>
      <point x="76" y="176"/>
      <point x="89" y="115"/>
      <point x="127" y="64" type="curve" smooth="yes"/>
      <point x="165" y="13"/>
      <point x="220" y="-12"/>
      <point x="291" y="-12" type="curve" smooth="yes"/>
      <point x="361" y="-12"/>
      <point x="418" y="13"/>
      <point x="465" y="62" type="curve" smooth="yes"/>
      <point x="472" y="69"/>
      <point x="478" y="77"/>
      <point x="484" y="85" type="curve"/>
      <point x="471" y="0" type="line"/>
      <point x="531" y="0" type="line"/>
      <point x="642" y="700" type="line"/>
      <point x="582" y="700" type="line"/>
      <point x="537" y="415" type="line"/>
      <point x="533" y="423"/>
      <point x="529" y="431"/>
      <point x="524" y="438" type="curve" smooth="yes"/>
      <point x="493" y="487"/>
      <point x="444" y="512"/>
    </contour>
  </outline>
</glyph>
<glyph name="f" format="2">
  <advance width="399"/>
  <unicode hex="0066"/>
  <outline>
    <contour>
      <point x="424.17" y="724" type="curve" smooth="yes"/>
      <point x="505.67" y="724" type="line"/>
      <point x="478.745" y="554" type="line"/>
      <point x="397.245" y="554" type="line" smooth="yes"/>
      <point x="386.245" y="554"/>
      <point x="375.918" y="549.833"/>
      <point x="366.266" y="541.5" type="curve" smooth="yes"/>
      <point x="356.612" y="533.167"/>
      <point x="350.914" y="523.5"/>
      <point x="349.172" y="512.5" type="curve" smooth="yes"/>
      <point x="347.192" y="500" type="line"/>
      <point x="470.192" y="500" type="line"/>
      <point x="443.267" y="330" type="line"/>
      <point x="320.267" y="330" type="line"/>
      <point x="268" y="0" type="line"/>
      <point x="98" y="0" type="line"/>
      <point x="150.267" y="330" type="line"/>
      <point x="75.2666" y="330" type="line"/>
      <point x="102.192" y="500" type="line"/>
      <point x="177.192" y="500" type="line"/>
      <point x="179.172" y="512.5" type="line" smooth="yes"/>
      <point x="188.411" y="570.833"/>
      <point x="216.971" y="620.667"/>
      <point x="264.851" y="662" type="curve" smooth="yes"/>
      <point x="312.73" y="703.333"/>
      <point x="365.837" y="724"/>
    </contour>
  </outline>
</glyph>
<glyph name="g" format="2">
  <advance width="608"/>
  <unicode hex="0067"/>
  <outline>
    <contour>
      <point x="374" y="512" type="curve" smooth="yes"/>
      <point x="444" y="512"/>
      <point x="493" y="487"/>
      <point x="524" y="438" type="curve" smooth="yes"/>
      <point x="529" y="431"/>
      <point x="533" y="423"/>
      <point x="537" y="415" type="curve"/>
      <point x="550" y="500" type="line"/>
      <point x="610" y="500" type="line"/>
      <point x="538" y="46" type="line" smooth="yes"/>
      <point x="526" y="-29"/>
      <point x="495" y="-92"/>
      <point x="442" y="-140" type="curve" smooth="yes"/>
      <point x="389" y="-188"/>
      <point x="327" y="-212"/>
      <point x="256" y="-212" type="curve" smooth="yes"/>
      <point x="191" y="-212"/>
      <point x="133" y="-195"/>
      <point x="81" y="-162" type="curve"/>
      <point x="114" y="-114" type="line"/>
      <point x="153" y="-143"/>
      <point x="204" y="-157"/>
      <point x="265" y="-157" type="curve" smooth="yes"/>
      <point x="324" y="-157"/>
      <point x="371" y="-138"/>
      <point x="408" y="-98" type="curve" smooth="yes"/>
      <point x="445" y="-58"/>
      <point x="469" y="-11"/>
      <point x="478" y="46" type="curve" smooth="yes"/>
      <point x="481" y="62"/>
      <point x="481" y="69"/>
      <point x="484" y="85" type="curve"/>
      <point x="478" y="77"/>
      <point x="472" y="69"/>
      <point x="465" y="62" type="curve" smooth="yes"/>
      <point x="418" y="13"/>
      <point x="361" y="-12"/>
      <point x="291" y="-12" type="curve" smooth="yes"/>
      <point x="220" y="-12"/>
      <point x="165" y="13"/>
      <point x="127" y="64" type="curve" smooth="yes"/>
      <point x="89" y="115"/>
      <point x="76" y="177"/>
      <point x="88" y="250" type="curve" smooth="yes"/>
      <point x="100" y="323"/>
      <point x="132" y="385"/>
      <point x="186" y="436" type="curve" smooth="yes"/>
      <point x="240" y="487"/>
      <point x="303" y="512"/>
    </contour>
    <contour>
      <point x="365" y="452" type="curve" smooth="yes"/>
      <point x="310" y="452"/>
      <point x="261" y="433"/>
      <point x="221" y="394" type="curve" smooth="yes"/>
      <point x="181" y="355"/>
      <point x="157" y="307"/>
      <point x="148" y="250" type="curve" smooth="yes"/>
      <point x="139" y="193"/>
      <point x="148" y="145"/>
      <point x="176" y="106" type="curve" smooth="yes"/>
      <point x="204" y="67"/>
      <point x="246" y="48"/>
      <point x="301" y="48" type="curve" smooth="yes"/>
      <point x="355" y="48"/>
      <point x="401" y="67"/>
      <point x="439" y="106" type="curve" smooth="yes"/>
      <point x="477" y="145"/>
      <point x="502" y="192"/>
      <point x="511" y="250" type="curve" smooth="yes"/>
      <point x="520" y="308"/>
      <point x="510" y="355"/>
      <point x="484" y="394" type="curve" smooth="yes"/>
      <point x="458" y="433"/>
      <point x="419" y="452"/>
    </contour>
  </outline>
</glyph>
<glyph name="i" format="2">
  <advance width="225"/>
  <unicode hex="0069"/>
  <outline>
    <contour>
      <point x="82" y="0" type="line"/>
      <point x="161.192" y="500" type="line"/>
      <point x="221.192" y="500" type="line"/>
      <point x="142" y="0" type="line"/>
    </contour>
    <contour>
      <point x="259.117" y="670" type="curve" smooth="yes"/>
      <point x="257.375" y="659"/>
      <point x="252.95" y="650"/>
      <point x="243.683" y="642" type="curve" smooth="yes"/>
      <point x="234.416" y="634"/>
      <point x="223.782" y="630"/>
      <point x="212.782" y="630" type="curve" smooth="yes"/>
      <point x="201.782" y="630"/>
      <point x="193.416" y="634"/>
      <point x="186.683" y="642" type="curve" smooth="yes"/>
      <point x="179.95" y="650"/>
      <point x="177.375" y="659"/>
      <point x="179.117" y="670" type="curve" smooth="yes"/>
      <point x="180.859" y="681"/>
      <point x="186.443" y="691"/>
      <point x="195.711" y="699" type="curve" smooth="yes"/>
      <point x="204.978" y="707"/>
      <point x="214.453" y="710"/>
      <point x="225.453" y="710" type="curve" smooth="yes"/>
      <point x="236.453" y="710"/>
      <point x="245.978" y="707"/>
      <point x="252.711" y="699" type="curve" smooth="yes"/>
      <point x="259.443" y="691"/>
      <point x="260.859" y="681"/>
    </contour>
  </outline>
</glyph>
<glyph name="j" format="2">
  <advance width="226"/>
  <unicode hex="006A"/>
  <outline>
    <contour>
      <point x="163" y="500" type="line"/>
      <point x="220" y="500" type="line"/>
      <point x="149" y="-7" type="line" smooth="yes"/>
      <point x="141" y="-64"/>
      <point x="115" y="-113"/>
      <point x="71" y="-154" type="curve" smooth="yes"/>
      <point x="27" y="-195"/>
      <point x="-24" y="-215"/>
      <point x="-78" y="-215" type="curve"/>
      <point x="-69" y="-155" type="line"/>
      <point x="-30" y="-155"/>
      <point x="4" y="-141"/>
      <point x="36" y="-112" type="curve" smooth="yes"/>
      <point x="68" y="-83"/>
      <point x="86" y="-48"/>
      <point x="92" y="-7" type="curve" smooth="yes"/>
    </contour>
    <contour>
      <point x="254" y="672" type="curve" smooth="yes"/>
      <point x="252" y="661"/>
      <point x="247" y="652"/>
      <point x="239" y="644" type="curve" smooth="yes"/>
      <point x="231" y="636"/>
      <point x="221" y="632"/>
      <point x="210" y="632" type="curve" smooth="yes"/>
      <point x="199" y="632"/>
      <point x="191" y="636"/>
      <point x="185" y="644" type="curve" smooth="yes"/>
      <point x="179" y="652"/>
      <point x="176" y="661"/>
      <point x="178" y="672" type="curve" smooth="yes"/>
      <point x="180" y="683"/>
      <point x="185" y="692"/>
      <point x="193" y="700" type="curve" smooth="yes"/>
      <point x="201" y="708"/>
      <point x="211" y="712"/>
      <point x="222" y="712" type="curve" smooth="yes"/>
      <point x="233" y="712"/>
      <point x="241" y="708"/>
      <point x="247" y="700" type="curve" smooth="yes"/>
      <point x="253" y="692"/>
      <point x="256" y="683"/>
    </contour>
  </outline>
</glyph>
<glyph name="l" format="2">
  <advance width="215"/>
  <unicode hex="006C"/>
  <outline>
    <contour>
      <point x="189" y="700" type="line"/>
      <point x="249" y="700" type="line"/>
      <point x="138" y="0" type="line"/>
      <point x="78" y="0" type="line"/>
    </contour>
  </outline>
</glyph>
<glyph name="m" format="2">
  <advance width="907"/>
  <unicode hex="006D"/>
  <outline>
    <contour>
      <point x="864" y="0" type="line"/>
      <point x="694" y="0" type="line"/>
      <point x="735.768" y="263.711" type="line" smooth="yes"/>
      <point x="739.459" y="287.017"/>
      <point x="735.107" y="305.891"/>
      <point x="722.715" y="320.334" type="curve" smooth="yes"/>
      <point x="710.32" y="334.778"/>
      <point x="693.305" y="342"/>
      <point x="671.667" y="342" type="curve" smooth="yes"/>
      <point x="650.029" y="342"/>
      <point x="630.727" y="334.778"/>
      <point x="613.758" y="320.334" type="curve" smooth="yes"/>
      <point x="596.789" y="305.891"/>
      <point x="586.459" y="287.017"/>
      <point x="582.768" y="263.711" type="curve"/>
      <point x="541" y="0" type="line"/>
      <point x="371" y="0" type="line"/>
      <point x="412.768" y="263.711" type="line" smooth="yes"/>
      <point x="416.459" y="287.017"/>
      <point x="412.107" y="305.891"/>
      <point x="399.715" y="320.334" type="curve" smooth="yes"/>
      <point x="387.32" y="334.778"/>
      <point x="370.305" y="342"/>
      <point x="348.667" y="342" type="curve" smooth="yes"/>
      <point x="327.029" y="342"/>
      <point x="307.727" y="334.778"/>
      <point x="290.758" y="320.334" type="curve" smooth="yes"/>
      <point x="273.789" y="305.891"/>
      <point x="263.459" y="287.017"/>
      <point x="259.768" y="263.711" type="curve" smooth="yes"/>
      <point x="218" y="0" type="line"/>
      <point x="48" y="0" type="line"/>
      <point x="127.192" y="500" type="line"/>
      <point x="285.192" y="500" type="line"/>
      <point x="279.376" y="463.278" type="line"/>
      <point x="282.765" y="466.417"/>
      <point x="286.238" y="469.405"/>
      <point x="289.796" y="472.24" type="curve" smooth="yes"/>
      <point x="323.046" y="498.747"/>
      <point x="363.645" y="512"/>
      <point x="411.593" y="512" type="curve" smooth="yes"/>
      <point x="477.926" y="512"/>
      <point x="525.818" y="488.167"/>
      <point x="555.269" y="440.5" type="curve" smooth="yes"/>
      <point x="557.718" y="436.536"/>
      <point x="560.022" y="432.477"/>
      <point x="562.187" y="428.322" type="curve"/>
      <point x="565.626" y="432.656"/>
      <point x="569.18" y="436.883"/>
      <point x="572.848" y="441" type="curve" smooth="yes"/>
      <point x="615.012" y="488.333"/>
      <point x="668.926" y="512"/>
      <point x="734.593" y="512" type="curve" smooth="yes"/>
      <point x="800.926" y="512"/>
      <point x="848.818" y="488.167"/>
      <point x="878.269" y="440.5" type="curve" smooth="yes"/>
      <point x="907.719" y="392.833"/>
      <point x="916.478" y="331.333"/>
      <point x="904.547" y="256" type="curve" smooth="yes"/>
    </contour>
  </outline>
</glyph>
<glyph name="o" format="2">
  <advance width="584"/>
  <unicode hex="006F"/>
  <outline>
    <contour>
      <point x="365" y="452" type="curve" smooth="yes"/>
      <point x="310" y="452"/>
      <point x="261" y="433"/>
      <point x="221" y="394" type="curve" smooth="yes"/>
      <point x="181" y="355"/>
      <point x="157" y="307"/>
      <point x="148" y="250" type="curve" smooth="yes"/>
      <point x="139" y="193"/>
      <point x="148" y="145"/>
      <point x="176" y="106" type="curve" smooth="yes"/>
      <point x="204" y="67"/>
      <point x="246" y="48"/>
      <point x="301" y="48" type="curve" smooth="yes"/>
      <point x="356" y="48"/>
      <point x="403" y="67"/>
      <point x="443" y="106" type="curve" smooth="yes"/>
      <point x="483" y="145"/>
      <point x="508" y="193"/>
      <point x="517" y="250" type="curve" smooth="yes"/>
      <point x="526" y="307"/>
      <point x="516" y="355"/>
      <point x="488" y="394" type="curve" smooth="yes"/>
      <point x="460" y="433"/>
      <point x="420" y="452"/>
    </contour>
    <contour>
      <point x="374" y="512" type="curve" smooth="yes"/>
      <point x="445" y="512"/>
      <point x="499" y="487"/>
      <point x="537" y="436" type="curve" smooth="yes"/>
      <point x="575" y="385"/>
      <point x="589" y="323"/>
      <point x="577" y="250" type="curve" smooth="yes"/>
      <point x="565" y="177"/>
      <point x="532" y="115"/>
      <point x="478" y="64" type="curve" smooth="yes"/>
      <point x="424" y="13"/>
      <point x="362" y="-12"/>
      <point x="291" y="-12" type="curve" smooth="yes"/>
      <point x="220" y="-12"/>
      <point x="165" y="13"/>
      <point x="127" y="64" type="curve" smooth="yes"/>
      <point x="89" y="115"/>
      <point x="76" y="177"/>
      <point x="88" y="250" type="curve" smooth="yes"/>
      <point x="100" y="323"/>
      <point x="132" y="385"/>
      <point x="186" y="436" type="curve" smooth="yes"/>
      <point x="240" y="487"/>
      <point x="303" y="512"/>
    </contour>
  </outline>
</glyph>
<glyph name="p" format="2">
  <advance width="577"/>
  <unicode hex="0070"/>
  <outline>
    <contour>
      <point x="203" y="500" type="line"/>
      <point x="146" y="500" type="line"/>
      <point x="48" y="-200" type="line"/>
      <point x="105" y="-200" type="line"/>
      <point x="145" y="85" type="line"/>
      <point x="149" y="77"/>
      <point x="153" y="69"/>
      <point x="157" y="62" type="curve" smooth="yes"/>
      <point x="187" y="13"/>
      <point x="235" y="-12"/>
      <point x="301" y="-12" type="curve" smooth="yes"/>
      <point x="369" y="-12"/>
      <point x="427" y="13"/>
      <point x="478" y="64" type="curve" smooth="yes"/>
      <point x="529" y="115"/>
      <point x="560" y="176"/>
      <point x="570" y="250" type="curve" smooth="yes"/>
      <point x="580" y="324"/>
      <point x="567" y="385"/>
      <point x="531" y="436" type="curve" smooth="yes"/>
      <point x="495" y="487"/>
      <point x="443" y="512"/>
      <point x="375" y="512" type="curve" smooth="yes"/>
      <point x="309" y="512"/>
      <point x="254" y="487"/>
      <point x="210" y="438" type="curve" smooth="yes"/>
      <point x="204" y="431"/>
      <point x="197" y="423"/>
      <point x="191" y="415" type="curve"/>
    </contour>
    <contour>
      <point x="309" y="48" type="curve" smooth="yes"/>
      <point x="258" y="48"/>
      <point x="219" y="68"/>
      <point x="194" y="106" type="curve" smooth="yes"/>
      <point x="169" y="144"/>
      <point x="160" y="193"/>
      <point x="168" y="250" type="curve" smooth="yes"/>
      <point x="176" y="307"/>
      <point x="199" y="356"/>
      <point x="235" y="394" type="curve" smooth="yes"/>
      <point x="271" y="432"/>
      <point x="315" y="452"/>
      <point x="366" y="452" type="curve" smooth="yes"/>
      <point x="418" y="452"/>
      <point x="457" y="432"/>
      <point x="484" y="393" type="curve" smooth="yes"/>
      <point x="511" y="354"/>
      <point x="521" y="307"/>
      <point x="513" y="250" type="curve" smooth="yes"/>
      <point x="505" y="193"/>
      <point x="482" y="146"/>
      <point x="444" y="107" type="curve" smooth="yes"/>
      <point x="406" y="68"/>
      <point x="361" y="48"/>
    </contour>
  </outline>
</glyph>
<glyph name="r" format="2">
  <advance width="305"/>
  <unicode hex="0072"/>
  <outline>
    <contour>
      <point x="142" y="500" type="line"/>
      <point x="199" y="500" type="line"/>
      <point x="188" y="424" type="line"/>
      <point x="194" y="431"/>
      <point x="200" y="437"/>
      <point x="206" y="443" type="curve" smooth="yes"/>
      <point x="226" y="462"/>
      <point x="246" y="477"/>
      <point x="268" y="488" type="curve" smooth="yes"/>
      <point x="299" y="504"/>
      <point x="332" y="512"/>
      <point x="368" y="512" type="curve"/>
      <point x="360" y="452" type="line"/>
      <point x="314" y="452"/>
      <point x="272" y="435"/>
      <point x="234" y="400" type="curve" smooth="yes"/>
      <point x="196" y="365"/>
      <point x="174" y="324"/>
      <point x="167" y="275" type="curve" smooth="yes"/>
      <point x="128" y="0" type="line"/>
      <point x="71" y="0" type="line"/>
    </contour>
  </outline>
</glyph>
<glyph name="s" format="2">
  <advance width="408"/>
  <unicode hex="0073"/>
  <outline>
    <contour>
      <point x="402" y="423" type="curve"/>
      <point x="345" y="402" type="line"/>
      <point x="342" y="417"/>
      <point x="334" y="429"/>
      <point x="320" y="438" type="curve" smooth="yes"/>
      <point x="306" y="447"/>
      <point x="289" y="452"/>
      <point x="268" y="452" type="curve" smooth="yes"/>
      <point x="242" y="452"/>
      <point x="220" y="445"/>
      <point x="202" y="430" type="curve" smooth="yes"/>
      <point x="184" y="415"/>
      <point x="175" y="397"/>
      <point x="172" y="376" type="curve" smooth="yes"/>
      <point x="169" y="352"/>
      <point x="181" y="332"/>
      <point x="209" y="316" type="curve" smooth="yes"/>
      <point x="222" y="309"/>
      <point x="238" y="303"/>
      <point x="257" y="297" type="curve" smooth="yes"/>
      <point x="306" y="283"/>
      <point x="342" y="262"/>
      <point x="363" y="236" type="curve" smooth="yes"/>
      <point x="384" y="211"/>
      <point x="391" y="180"/>
      <point x="386" y="144" type="curve" smooth="yes"/>
      <point x="380" y="101"/>
      <point x="358" y="64"/>
      <point x="322" y="34" type="curve" smooth="yes"/>
      <point x="286" y="4"/>
      <point x="245" y="-12"/>
      <point x="197" y="-12" type="curve" smooth="yes"/>
      <point x="161" y="-12"/>
      <point x="130" y="-3"/>
      <point x="106" y="16" type="curve" smooth="yes"/>
      <point x="82" y="35"/>
      <point x="64" y="60"/>
      <point x="55" y="91" type="curve"/>
      <point x="111" y="111" type="line"/>
      <point x="124" y="69"/>
      <point x="155" y="48"/>
      <point x="205" y="48" type="curve" smooth="yes"/>
      <point x="237" y="48"/>
      <point x="264" y="57"/>
      <point x="288" y="76" type="curve" smooth="yes"/>
      <point x="312" y="95"/>
      <point x="325" y="117"/>
      <point x="329" y="144" type="curve" smooth="yes"/>
      <point x="333" y="172"/>
      <point x="320" y="196"/>
      <point x="292" y="214" type="curve" smooth="yes"/>
      <point x="277" y="224"/>
      <point x="258" y="232"/>
      <point x="234" y="239" type="curve" smooth="yes"/>
      <point x="196" y="250"/>
      <point x="165" y="267"/>
      <point x="142" y="289" type="curve" smooth="yes"/>
      <point x="119" y="311"/>
      <point x="110" y="341"/>
      <point x="115" y="376" type="curve" smooth="yes"/>
      <point x="120" y="414"/>
      <point x="138" y="446"/>
      <point x="168" y="472" type="curve" smooth="yes"/>
      <point x="198" y="498"/>
      <point x="234" y="512"/>
      <point x="276" y="512" type="curve" smooth="yes"/>
      <point x="309" y="512"/>
      <point x="338" y="504"/>
      <point x="360" y="488" type="curve" smooth="yes"/>
      <point x="382" y="472"/>
      <point x="396" y="450"/>
    </contour>
  </outline>
</glyph>
<glyph name="v" format="2">
  <advance width="493"/>
  <unicode hex="0076"/>
  <outline>
    <contour>
      <point x="92" y="500" type="line"/>
      <point x="157" y="500" type="line"/>
      <point x="260" y="80" type="line"/>
      <point x="495" y="500" type="line"/>
      <point x="560" y="500" type="line"/>
      <point x="279" y="0" type="line"/>
      <point x="215" y="0" type="line"/>
    </contour>
  </outline>
</glyph>
<glyph name="x" format="2">
  <advance width="440"/>
  <unicode hex="0078"/>
  <outline>
    <contour>
      <point x="252" y="196" type="line"/>
      <point x="87" y="0" type="line"/>
      <point x="12" y="0" type="line"/>
      <point x="224" y="250" type="line"/>
      <point x="91" y="500" type="line"/>
      <point x="164" y="500" type="line"/>
      <point x="268" y="303" type="line"/>
      <point x="435" y="500" type="line"/>
      <point x="507" y="500" type="line"/>
      <point x="297" y="250" type="line"/>
      <point x="428" y="0" type="line"/>
      <point x="355" y="0" type="line"/>
    </contour>
  </outline>
</glyph>
<glyph name="y" format="2">
  <advance width="622"/>
  <unicode hex="0079"/>
  <outline>
    <contour>
      <point x="84.1924" y="500" type="line"/>
      <point x="270.192" y="500" type="line"/>
      <point x="350.833" y="220.9" type="line"/>
      <point x="512.192" y="500" type="line"/>
      <point x="696.192" y="500" type="line"/>
      <point x="362.798" y="-77.7695" type="line" smooth="yes"/>
      <point x="337.903" y="-118.618"/>
      <point x="304.16" y="-151.183"/>
      <point x="261.569" y="-175.463" type="curve" smooth="yes"/>
      <point x="218.979" y="-199.743"/>
      <point x="174.93" y="-211.922"/>
      <point x="129.423" y="-212" type="curve" smooth="yes"/>
      <point x="59.4229" y="-212" type="line"/>
      <point x="86.3477" y="-42" type="line"/>
      <point x="156.348" y="-42" type="line" smooth="yes"/>
      <point x="170.407" y="-41.9502"/>
      <point x="182.487" y="-39.335"/>
      <point x="192.591" y="-34.1523" type="curve" smooth="yes"/>
      <point x="202.894" y="-28.8682"/>
      <point x="211.139" y="-20.9141"/>
      <point x="217.326" y="-10.291" type="curve" smooth="yes"/>
      <point x="226.66" y="5.73633" type="line"/>
    </contour>
  </outline>
</glyph>
<glyph name="z" format="2">
  <advance width="483"/>
  <unicode hex="007A"/>
  <outline>
    <contour>
      <point x="53" y="0" type="line"/>
      <point x="62.5029" y="60" type="line"/>
      <point x="424.689" y="440" type="line"/>
      <point x="122.689" y="440" type="line"/>
      <point x="132.192" y="500" type="line"/>
      <point x="510.192" y="500" type="line"/>
      <point x="500.689" y="440" type="line"/>
      <point x="138.503" y="60" type="line"/>
      <point x="440.503" y="60" type="line"/>
      <point x="431" y="0" type="line"/>
    </contour>
  </outline>
</glyph>
<glyph name="braceleft" format="2">
  <advance width="362"/>
  <unicode hex="007B"/>
  <outline>
    <contour>
      <point x="292" y="-100" type="line"/>
      <point x="242" y="-100"/>
      <point x="207" y="-77"/>
      <point x="188" y="-32" type="curve" smooth="yes"/>
      <point x="168" y="16"/>
      <point x="164" y="89"/>
      <point x="178" y="188" type="curve" smooth="yes"/>
      <point x="184" y="233"/>
      <point x="181" y="266"/>
      <point x="168" y="288" type="curve" smooth="yes"/>
      <point x="155" y="309"/>
      <point x="133" y="320"/>
      <point x="102" y="320" type="curve"/>
      <point x="110" y="380" type="line"/>
      <point x="145" y="380"/>
      <point x="173" y="393"/>
      <point x="192" y="420" type="curve" smooth="yes"/>
      <point x="208" y="442"/>
      <point x="218" y="472"/>
      <point x="224" y="512" type="curve" smooth="yes"/>
      <point x="238" y="612"/>
      <point x="262" y="686"/>
      <point x="297" y="734" type="curve" smooth="yes"/>
      <point x="329" y="778"/>
      <point x="369" y="800"/>
      <point x="418" y="800" type="curve"/>
      <point x="410" y="740" type="line"/>
      <point x="381" y="739"/>
      <point x="355" y="723"/>
      <point x="335" y="692" type="curve" smooth="yes"/>
      <point x="310" y="654"/>
      <point x="292" y="595"/>
      <point x="281" y="513" type="curve" smooth="yes"/>
      <point x="273" y="459"/>
      <point x="257" y="416"/>
      <point x="233" y="386" type="curve" smooth="yes"/>
      <point x="221" y="371"/>
      <point x="208" y="359"/>
      <point x="192" y="350" type="curve"/>
      <point x="200" y="344"/>
      <point x="207" y="338"/>
      <point x="213" y="330" type="curve" smooth="yes"/>
      <point x="237" y="299"/>
      <point x="244" y="252"/>
      <point x="235" y="187" type="curve" smooth="yes"/>
      <point x="222" y="98"/>
      <point x="225" y="35"/>
      <point x="243" y="-2" type="curve" smooth="yes"/>
      <point x="255" y="-27"/>
      <point x="274" y="-39"/>
      <point x="300" y="-40" type="curve"/>
    </contour>
  </outline>
</glyph>
<glyph name="bar" format="2">
  <advance width="245"/>
  <unicode hex="007C"/>
  <outline>
    <contour>
      <point x="205" y="790" type="line"/>
      <point x="262" y="790" type="line"/>
      <point x="120" y="-220" type="line"/>
      <point x="63" y="-220" type="line"/>
    </contour>
  </outline>
</glyph>
<glyph name="braceright" format="2">
  <advance width="362"/>
  <unicode hex="007D"/>
  <outline>
    <contour>
      <point x="43" y="-100" type="line"/>
      <point x="93" y="-100"/>
      <point x="134" y="-77"/>
      <point x="166" y="-32" type="curve" smooth="yes"/>
      <point x="200" y="16"/>
      <point x="223" y="89"/>
      <point x="237" y="188" type="curve" smooth="yes"/>
      <point x="243" y="233"/>
      <point x="257" y="266"/>
      <point x="276" y="288" type="curve" smooth="yes"/>
      <point x="295" y="309"/>
      <point x="320" y="320"/>
      <point x="351" y="320" type="curve"/>
      <point x="359" y="380" type="line"/>
      <point x="324" y="380"/>
      <point x="301" y="393"/>
      <point x="289" y="420" type="curve" smooth="yes"/>
      <point x="279" y="442"/>
      <point x="277" y="472"/>
      <point x="283" y="512" type="curve" smooth="yes"/>
      <point x="297" y="612"/>
      <point x="293" y="686"/>
      <point x="272" y="734" type="curve" smooth="yes"/>
      <point x="253" y="778"/>
      <point x="218" y="800"/>
      <point x="169" y="800" type="curve"/>
      <point x="161" y="740" type="line"/>
      <point x="190" y="739"/>
      <point x="210" y="723"/>
      <point x="222" y="692" type="curve" smooth="yes"/>
      <point x="236" y="654"/>
      <point x="237" y="595"/>
      <point x="226" y="513" type="curve" smooth="yes"/>
      <point x="218" y="459"/>
      <point x="222" y="416"/>
      <point x="238" y="386" type="curve" smooth="yes"/>
      <point x="246" y="371"/>
      <point x="257" y="359"/>
      <point x="270" y="350" type="curve"/>
      <point x="260" y="344"/>
      <point x="251" y="338"/>
      <point x="243" y="330" type="curve" smooth="yes"/>
      <point x="210" y="299"/>
      <point x="189" y="252"/>
      <point x="180" y="187" type="curve" smooth="yes"/>
      <point x="167" y="98"/>
      <point x="147" y="35"/>
      <point x="119" y="-2" type="curve" smooth="yes"/>
      <point x="100" y="-27"/>
      <point x="77" y="-39"/>
      <point x="51" y="-40" type="curve"/>
    </contour>
  </outline>
</glyph>
<glyph name="asciitilde" format="2">
  <advance width="534"/>
  <unicode hex="007E"/>
  <outline>
    <contour>
      <point x="243" y="396" type="curve" smooth="yes"/>
      <point x="280" y="396"/>
      <point x="313" y="377"/>
      <point x="341" y="340" type="curve" smooth="yes"/>
      <point x="349" y="331"/>
      <point x="355" y="323"/>
      <point x="361" y="317" type="curve" smooth="yes"/>
      <point x="374" y="303"/>
      <point x="388" y="297"/>
      <point x="401" y="297" type="curve" smooth="yes"/>
      <point x="419" y="297"/>
      <point x="433" y="302"/>
      <point x="442" y="311" type="curve" smooth="yes"/>
      <point x="454" y="322"/>
      <point x="464" y="341"/>
      <point x="470" y="368" type="curve"/>
      <point x="530" y="368" type="line"/>
      <point x="517" y="320"/>
      <point x="496" y="284"/>
      <point x="470" y="263" type="curve" smooth="yes"/>
      <point x="448" y="246"/>
      <point x="423" y="237"/>
      <point x="392" y="237" type="curve" smooth="yes"/>
      <point x="356" y="237"/>
      <point x="323" y="255"/>
      <point x="296" y="291" type="curve" smooth="yes"/>
      <point x="283" y="309"/>
      <point x="271" y="321"/>
      <point x="259" y="328" type="curve" smooth="yes"/>
      <point x="250" y="333"/>
      <point x="241" y="336"/>
      <point x="233" y="336" type="curve" smooth="yes"/>
      <point x="215" y="336"/>
      <point x="203" y="331"/>
      <point x="192" y="321" type="curve" smooth="yes"/>
      <point x="180" y="310"/>
      <point x="171" y="291"/>
      <point x="165" y="265" type="curve"/>
      <point x="105" y="265" type="line"/>
      <point x="117" y="313"/>
      <point x="136" y="348"/>
      <point x="162" y="369" type="curve" smooth="yes"/>
      <point x="184" y="387"/>
      <point x="211" y="396"/>
    </contour>
  </outline>
</glyph>
<glyph name="exclamdown" format="2">
  <advance width="297"/>
  <unicode hex="00A1"/>
  <outline>
    <contour>
      <point x="215.521" y="420" type="curve" smooth="yes"/>
      <point x="228.521" y="420"/>
      <point x="240.313" y="425"/>
      <point x="250.739" y="434" type="curve" smooth="yes"/>
      <point x="261.164" y="443"/>
      <point x="266.748" y="453"/>
      <point x="268.808" y="466" type="curve" smooth="yes"/>
      <point x="270.866" y="479"/>
      <point x="268.608" y="490"/>
      <point x="261.034" y="499" type="curve" smooth="yes"/>
      <point x="253.459" y="508"/>
      <point x="243.093" y="512"/>
      <point x="230.093" y="512" type="curve" smooth="yes"/>
      <point x="217.093" y="512"/>
      <point x="205.459" y="508"/>
      <point x="195.034" y="499" type="curve" smooth="yes"/>
      <point x="184.608" y="490"/>
      <point x="178.866" y="479"/>
      <point x="176.808" y="466" type="curve" smooth="yes"/>
      <point x="174.748" y="453"/>
      <point x="177.164" y="443"/>
      <point x="184.739" y="434" type="curve" smooth="yes"/>
      <point x="192.313" y="425"/>
      <point x="202.521" y="420"/>
    </contour>
    <contour>
      <point x="87.0059" y="-202" type="line"/>
      <point x="147.006" y="-202" type="line"/>
      <point x="227.308" y="305" type="line"/>
      <point x="167.308" y="305" type="line"/>
    </contour>
  </outline>
</glyph>
<glyph name="cent" format="2">
  <advance width="480"/>
  <unicode hex="00A2"/>
  <outline>
    <contour>
      <point x="421.352" y="609.264" type="line"/>
      <point x="475.55" y="601.427"/>
      <point x="520.112" y="576.76"/>
      <point x="555.039" y="535.262" type="curve"/>
      <point x="415.793" y="415.055" type="line"/>
      <point x="409.3" y="422.769"/>
      <point x="401.858" y="428.826"/>
      <point x="393.47" y="433.228" type="curve"/>
      <point x="367.106" y="266.772" type="line"/>
      <point x="376.891" y="271.174"/>
      <point x="386.25" y="277.231"/>
      <point x="395.186" y="284.945" type="curve"/>
      <point x="496.354" y="164.738" type="line"/>
      <point x="448.283" y="123.24"/>
      <point x="395.906" y="98.5732"/>
      <point x="339.225" y="90.7363" type="curve"/>
      <point x="324.854" y="0" type="line"/>
      <point x="224.854" y="0" type="line"/>
      <point x="239.81" y="94.4258" type="line"/>
      <point x="194.42" y="104.946"/>
      <point x="156.426" y="128.384"/>
      <point x="125.829" y="164.738" type="curve" smooth="yes"/>
      <point x="82.7734" y="215.896"/>
      <point x="66.9756" y="277.65"/>
      <point x="78.4346" y="350" type="curve" smooth="yes"/>
      <point x="89.8936" y="422.349"/>
      <point x="125.253" y="484.103"/>
      <point x="184.515" y="535.262" type="curve" smooth="yes"/>
      <point x="226.627" y="571.616"/>
      <point x="272.045" y="595.054"/>
      <point x="320.767" y="605.574" type="curve"/>
      <point x="335.723" y="700" type="line"/>
      <point x="435.723" y="700" type="line"/>
    </contour>
    <contour>
      <point x="291.32" y="419.656" type="line"/>
      <point x="289.424" y="418.194"/>
      <point x="287.545" y="416.66"/>
      <point x="285.685" y="415.054" type="curve" smooth="yes"/>
      <point x="264.875" y="397.09"/>
      <point x="252.458" y="375.405"/>
      <point x="248.435" y="350" type="curve" smooth="yes"/>
      <point x="244.411" y="324.595"/>
      <point x="249.959" y="302.91"/>
      <point x="265.077" y="284.946" type="curve" smooth="yes"/>
      <point x="266.43" y="283.34"/>
      <point x="267.822" y="281.806"/>
      <point x="269.256" y="280.344" type="curve"/>
    </contour>
  </outline>
</glyph>
<glyph name="sterling" format="2">
  <advance width="575"/>
  <unicode hex="00A3"/>
  <outline>
    <contour>
      <point x="532" y="63" type="line"/>
      <point x="522" y="0" type="line"/>
      <point x="53" y="0" type="line"/>
      <point x="63" y="63" type="line"/>
      <point x="85" y="63"/>
      <point x="104" y="70"/>
      <point x="123" y="86" type="curve" smooth="yes"/>
      <point x="142" y="102"/>
      <point x="153" y="121"/>
      <point x="156" y="143" type="curve" smooth="yes"/>
      <point x="178" y="287" type="line"/>
      <point x="98" y="287" type="line"/>
      <point x="108" y="350" type="line"/>
      <point x="188" y="350" type="line"/>
      <point x="215" y="517" type="line" smooth="yes"/>
      <point x="224" y="571"/>
      <point x="250" y="617"/>
      <point x="294" y="655" type="curve" smooth="yes"/>
      <point x="338" y="693"/>
      <point x="387" y="712"/>
      <point x="441" y="712" type="curve" smooth="yes"/>
      <point x="495" y="712"/>
      <point x="538" y="693"/>
      <point x="570" y="655" type="curve" smooth="yes"/>
      <point x="602" y="617"/>
      <point x="614" y="571"/>
      <point x="605" y="517" type="curve"/>
      <point x="541" y="517" type="line"/>
      <point x="547" y="553"/>
      <point x="538" y="583"/>
      <point x="516" y="609" type="curve" smooth="yes"/>
      <point x="494" y="635"/>
      <point x="467" y="648"/>
      <point x="431" y="648" type="curve" smooth="yes"/>
      <point x="395" y="648"/>
      <point x="361" y="635"/>
      <point x="331" y="609" type="curve" smooth="yes"/>
      <point x="301" y="583"/>
      <point x="285" y="553"/>
      <point x="279" y="517" type="curve" smooth="yes"/>
      <point x="252" y="350" type="line"/>
      <point x="450" y="350" type="line"/>
      <point x="440" y="287" type="line"/>
      <point x="242" y="287" type="line"/>
      <point x="220" y="143" type="line" smooth="yes"/>
      <point x="216" y="115"/>
      <point x="202" y="88"/>
      <point x="181" y="63" type="curve"/>
    </contour>
  </outline>
</glyph>
<glyph name="currency" format="2">
  <advance width="512"/>
  <unicode hex="00A4"/>
  <outline>
    <contour>
      <point x="381" y="419" type="curve" smooth="yes"/>
      <point x="366" y="438"/>
      <point x="345" y="448"/>
      <point x="319" y="448" type="curve" smooth="yes"/>
      <point x="293" y="448"/>
      <point x="270" y="438"/>
      <point x="249" y="419" type="curve" smooth="yes"/>
      <point x="228" y="400"/>
      <point x="216" y="377"/>
      <point x="212" y="350" type="curve" smooth="yes"/>
      <point x="208" y="323"/>
      <point x="215" y="300"/>
      <point x="230" y="281" type="curve" smooth="yes"/>
      <point x="245" y="262"/>
      <point x="265" y="252"/>
      <point x="291" y="252" type="curve" smooth="yes"/>
      <point x="317" y="252"/>
      <point x="340" y="262"/>
      <point x="361" y="281" type="curve" smooth="yes"/>
      <point x="382" y="300"/>
      <point x="394" y="323"/>
      <point x="398" y="350" type="curve" smooth="yes"/>
      <point x="402" y="377"/>
      <point x="396" y="400"/>
    </contour>
    <contour>
      <point x="472" y="540" type="line"/>
      <point x="506" y="497" type="line"/>
      <point x="442" y="439" type="line"/>
      <point x="455" y="413"/>
      <point x="460" y="383"/>
      <point x="455" y="350" type="curve" smooth="yes"/>
      <point x="450" y="317"/>
      <point x="438" y="287"/>
      <point x="417" y="261" type="curve"/>
      <point x="465" y="203" type="line"/>
      <point x="418" y="160" type="line"/>
      <point x="371" y="219" type="line"/>
      <point x="344" y="201"/>
      <point x="315" y="192"/>
      <point x="283" y="192" type="curve" smooth="yes"/>
      <point x="251" y="192"/>
      <point x="225" y="201"/>
      <point x="203" y="219" type="curve"/>
      <point x="139" y="160" type="line"/>
      <point x="105" y="203" type="line"/>
      <point x="168" y="261" type="line"/>
      <point x="155" y="287"/>
      <point x="150" y="317"/>
      <point x="155" y="350" type="curve" smooth="yes"/>
      <point x="160" y="383"/>
      <point x="172" y="413"/>
      <point x="193" y="439" type="curve"/>
      <point x="146" y="497" type="line"/>
      <point x="192" y="540" type="line"/>
      <point x="239" y="481" type="line"/>
      <point x="266" y="499"/>
      <point x="295" y="508"/>
      <point x="327" y="508" type="curve" smooth="yes"/>
      <point x="359" y="508"/>
      <point x="386" y="499"/>
      <point x="408" y="481" type="curve"/>
    </contour>
  </outline>
</glyph>
<glyph name="yen" format="2">
  <advance width="521"/>
  <unicode hex="00A5"/>
  <outline>
    <contour>
      <point x="135.664" y="282" type="line"/>
      <point x="145.167" y="342" type="line"/>
      <point x="260.167" y="342" type="line"/>
      <point x="125.77" y="712" type="line"/>
      <point x="193.77" y="712" type="line"/>
      <point x="318.811" y="365" type="line"/>
      <point x="553.77" y="712" type="line"/>
      <point x="621.77" y="712" type="line"/>
      <point x="370.167" y="342" type="line"/>
      <point x="485.167" y="342" type="line"/>
      <point x="475.664" y="282" type="line"/>
      <point x="335.664" y="282" type="line"/>
      <point x="323.469" y="205" type="line"/>
      <point x="463.469" y="205" type="line"/>
      <point x="453.966" y="145" type="line"/>
      <point x="313.966" y="145" type="line"/>
      <point x="291" y="0" type="line"/>
      <point x="231" y="0" type="line"/>
      <point x="253.966" y="145" type="line"/>
      <point x="113.966" y="145" type="line"/>
      <point x="123.469" y="205" type="line"/>
      <point x="263.469" y="205" type="line"/>
      <point x="275.664" y="282" type="line"/>
    </contour>
  </outline>
</glyph>
<glyph name="brokenbar" format="2">
  <advance width="265"/>
  <unicode hex="00A6"/>
  <outline>
    <contour>
      <point x="68" y="-220" type="line"/>
      <point x="138" y="220" type="line"/>
      <point x="198" y="220" type="line"/>
      <point x="128" y="-220" type="line"/>
    </contour>
    <contour>
      <point x="158" y="350" type="line"/>
      <point x="228" y="790" type="line"/>
      <point x="288" y="790" type="line"/>
      <point x="218" y="350" type="line"/>
    </contour>
  </outline>
</glyph>
<glyph name="section" format="2">
  <advance width="531"/>
  <unicode hex="00A7"/>
  <outline>
    <contour>
      <point x="378.77" y="712" type="curve" smooth="yes"/>
      <point x="422.77" y="712"/>
      <point x="459.394" y="697"/>
      <point x="486.643" y="667" type="curve" smooth="yes"/>
      <point x="513.891" y="637"/>
      <point x="523.348" y="602"/>
      <point x="516.695" y="560" type="curve"/>
      <point x="460.695" y="560" type="line"/>
      <point x="464.813" y="586"/>
      <point x="457.298" y="608"/>
      <point x="439.307" y="627" type="curve" smooth="yes"/>
      <point x="421.316" y="646"/>
      <point x="398.742" y="655"/>
      <point x="369.742" y="655" type="curve" smooth="yes"/>
      <point x="340.742" y="655"/>
      <point x="314.316" y="646"/>
      <point x="290.307" y="627" type="curve" smooth="yes"/>
      <point x="266.298" y="608"/>
      <point x="253.813" y="586"/>
      <point x="249.695" y="560" type="curve" smooth="yes"/>
      <point x="245.577" y="534"/>
      <point x="250.935" y="511"/>
      <point x="268.925" y="492" type="curve" smooth="yes"/>
      <point x="286.916" y="473"/>
      <point x="310.49" y="464"/>
      <point x="339.49" y="464" type="curve" smooth="yes"/>
      <point x="383.49" y="464"/>
      <point x="420.114" y="449"/>
      <point x="447.363" y="419" type="curve" smooth="yes"/>
      <point x="474.611" y="389"/>
      <point x="484.91" y="353"/>
      <point x="478.258" y="311" type="curve" smooth="yes"/>
      <point x="471.605" y="269"/>
      <point x="449.903" y="233"/>
      <point x="413.152" y="203" type="curve" smooth="yes"/>
      <point x="406.202" y="197"/>
      <point x="397.41" y="192"/>
      <point x="389.618" y="187" type="curve"/>
      <point x="395.826" y="182"/>
      <point x="402.876" y="176"/>
      <point x="407.926" y="170" type="curve" smooth="yes"/>
      <point x="435.174" y="140"/>
      <point x="444.472" y="104"/>
      <point x="437.82" y="62" type="curve" smooth="yes"/>
      <point x="431.168" y="20"/>
      <point x="410.624" y="-15"/>
      <point x="373.873" y="-45" type="curve" smooth="yes"/>
      <point x="337.121" y="-75"/>
      <point x="295.745" y="-90"/>
      <point x="251.745" y="-90" type="curve" smooth="yes"/>
      <point x="207.745" y="-90"/>
      <point x="171.121" y="-75"/>
      <point x="143.873" y="-45" type="curve" smooth="yes"/>
      <point x="116.624" y="-15"/>
      <point x="107.168" y="20"/>
      <point x="113.82" y="62" type="curve"/>
      <point x="170.82" y="62" type="line"/>
      <point x="166.702" y="36"/>
      <point x="172.218" y="14"/>
      <point x="190.208" y="-5" type="curve" smooth="yes"/>
      <point x="208.199" y="-24"/>
      <point x="231.773" y="-33"/>
      <point x="260.773" y="-33" type="curve" smooth="yes"/>
      <point x="289.773" y="-33"/>
      <point x="315.199" y="-24"/>
      <point x="339.208" y="-5" type="curve" smooth="yes"/>
      <point x="363.218" y="14"/>
      <point x="377.702" y="36"/>
      <point x="381.82" y="62" type="curve" smooth="yes"/>
      <point x="385.938" y="88"/>
      <point x="378.581" y="111"/>
      <point x="360.59" y="130" type="curve" smooth="yes"/>
      <point x="342.6" y="149"/>
      <point x="320.024" y="158"/>
      <point x="291.024" y="158" type="curve" smooth="yes"/>
      <point x="247.024" y="158"/>
      <point x="210.4" y="173"/>
      <point x="183.152" y="203" type="curve" smooth="yes"/>
      <point x="155.903" y="233"/>
      <point x="145.605" y="269"/>
      <point x="152.258" y="311" type="curve" smooth="yes"/>
      <point x="158.91" y="353"/>
      <point x="180.611" y="389"/>
      <point x="217.363" y="419" type="curve" smooth="yes"/>
      <point x="224.313" y="425"/>
      <point x="232.264" y="431"/>
      <point x="240.056" y="436" type="curve"/>
      <point x="233.848" y="441"/>
      <point x="227.64" y="446"/>
      <point x="222.59" y="452" type="curve" smooth="yes"/>
      <point x="195.341" y="482"/>
      <point x="186.043" y="518"/>
      <point x="192.695" y="560" type="curve" smooth="yes"/>
      <point x="199.348" y="602"/>
      <point x="219.891" y="637"/>
      <point x="256.643" y="667" type="curve" smooth="yes"/>
      <point x="293.394" y="697"/>
      <point x="334.77" y="712"/>
    </contour>
    <contour>
      <point x="330.463" y="407" type="curve" smooth="yes"/>
      <point x="301.463" y="407"/>
      <point x="275.037" y="398"/>
      <point x="251.027" y="379" type="curve" smooth="yes"/>
      <point x="227.019" y="360"/>
      <point x="213.534" y="338"/>
      <point x="209.258" y="311" type="curve" smooth="yes"/>
      <point x="204.981" y="284"/>
      <point x="211.497" y="262"/>
      <point x="229.487" y="243" type="curve" smooth="yes"/>
      <point x="247.479" y="224"/>
      <point x="271.053" y="215"/>
      <point x="300.053" y="215" type="curve" smooth="yes"/>
      <point x="329.053" y="215"/>
      <point x="355.479" y="224"/>
      <point x="379.487" y="243" type="curve" smooth="yes"/>
      <point x="403.497" y="262"/>
      <point x="416.981" y="284"/>
      <point x="421.258" y="311" type="curve" smooth="yes"/>
      <point x="425.534" y="338"/>
      <point x="419.019" y="360"/>
      <point x="401.027" y="379" type="curve" smooth="yes"/>
      <point x="383.037" y="398"/>
      <point x="359.463" y="407"/>
    </contour>
  </outline>
</glyph>
<glyph name="dieresis" format="2">
  <advance width="427"/>
  <unicode hex="00A8"/>
  <outline>
    <contour>
      <point x="205.453" y="710" type="curve" smooth="yes"/>
      <point x="216.453" y="710"/>
      <point x="225.978" y="707"/>
      <point x="232.711" y="699" type="curve" smooth="yes"/>
      <point x="239.443" y="691"/>
      <point x="240.859" y="681"/>
      <point x="239.117" y="670" type="curve" smooth="yes"/>
      <point x="237.375" y="659"/>
      <point x="232.95" y="650"/>
      <point x="223.683" y="642" type="curve" smooth="yes"/>
      <point x="214.416" y="634"/>
      <point x="203.782" y="630"/>
      <point x="192.782" y="630" type="curve" smooth="yes"/>
      <point x="181.782" y="630"/>
      <point x="173.416" y="634"/>
      <point x="166.683" y="642" type="curve" smooth="yes"/>
      <point x="159.95" y="650"/>
      <point x="157.375" y="659"/>
      <point x="159.117" y="670" type="curve" smooth="yes"/>
      <point x="160.859" y="681"/>
      <point x="166.443" y="691"/>
      <point x="175.711" y="699" type="curve" smooth="yes"/>
      <point x="184.978" y="707"/>
      <point x="194.453" y="710"/>
    </contour>
    <contour>
      <point x="447.453" y="710" type="curve" smooth="yes"/>
      <point x="458.453" y="710"/>
      <point x="466.978" y="707"/>
      <point x="473.711" y="699" type="curve" smooth="yes"/>
      <point x="480.443" y="691"/>
      <point x="482.859" y="681"/>
      <point x="481.117" y="670" type="curve" smooth="yes"/>
      <point x="479.375" y="659"/>
      <point x="473.95" y="650"/>
      <point x="464.683" y="642" type="curve" smooth="yes"/>
      <point x="455.416" y="634"/>
      <point x="445.782" y="630"/>
      <point x="434.782" y="630" type="curve" smooth="yes"/>
      <point x="423.782" y="630"/>
      <point x="415.416" y="634"/>
      <point x="408.683" y="642" type="curve" smooth="yes"/>
      <point x="401.95" y="650"/>
      <point x="399.375" y="659"/>
      <point x="401.117" y="670" type="curve" smooth="yes"/>
      <point x="402.859" y="681"/>
      <point x="408.443" y="691"/>
      <point x="417.711" y="699" type="curve" smooth="yes"/>
      <point x="426.978" y="707"/>
      <point x="436.453" y="710"/>
    </contour>
  </outline>
</glyph>
<glyph name="copyright" format="2">
  <advance width="781"/>
  <unicode hex="00A9"/>
  <outline>
    <contour>
      <point x="491" y="712" type="curve" smooth="yes"/>
      <point x="553" y="712"/>
      <point x="609" y="696"/>
      <point x="657" y="664" type="curve" smooth="yes"/>
      <point x="705" y="632"/>
      <point x="740" y="588"/>
      <point x="763" y="532" type="curve" smooth="yes"/>
      <point x="786" y="476"/>
      <point x="793" y="415"/>
      <point x="784" y="350" type="curve" smooth="yes"/>
      <point x="775" y="285"/>
      <point x="750" y="225"/>
      <point x="712" y="169" type="curve" smooth="yes"/>
      <point x="674" y="113"/>
      <point x="626" y="69"/>
      <point x="569" y="37" type="curve" smooth="yes"/>
      <point x="512" y="5"/>
      <point x="451" y="-11"/>
      <point x="389" y="-11" type="curve" smooth="yes"/>
      <point x="327" y="-11"/>
      <point x="272" y="5"/>
      <point x="224" y="37" type="curve" smooth="yes"/>
      <point x="176" y="69"/>
      <point x="140" y="113"/>
      <point x="117" y="169" type="curve" smooth="yes"/>
      <point x="94" y="225"/>
      <point x="88" y="285"/>
      <point x="97" y="350" type="curve" smooth="yes"/>
      <point x="106" y="415"/>
      <point x="130" y="476"/>
      <point x="168" y="532" type="curve" smooth="yes"/>
      <point x="206" y="588"/>
      <point x="255" y="632"/>
      <point x="312" y="664" type="curve" smooth="yes"/>
      <point x="369" y="696"/>
      <point x="429" y="712"/>
    </contour>
    <contour>
      <point x="483" y="652" type="curve" smooth="yes"/>
      <point x="404" y="652"/>
      <point x="332" y="623"/>
      <point x="268" y="564" type="curve" smooth="yes"/>
      <point x="204" y="505"/>
      <point x="166" y="433"/>
      <point x="154" y="350" type="curve" smooth="yes"/>
      <point x="142" y="267"/>
      <point x="160" y="196"/>
      <point x="208" y="137" type="curve" smooth="yes"/>
      <point x="256" y="78"/>
      <point x="319" y="49"/>
      <point x="398" y="49" type="curve" smooth="yes"/>
      <point x="477" y="49"/>
      <point x="549" y="78"/>
      <point x="613" y="137" type="curve" smooth="yes"/>
      <point x="677" y="196"/>
      <point x="715" y="267"/>
      <point x="727" y="350" type="curve" smooth="yes"/>
      <point x="739" y="433"/>
      <point x="721" y="505"/>
      <point x="673" y="564" type="curve" smooth="yes"/>
      <point x="625" y="623"/>
      <point x="562" y="652"/>
    </contour>
    <contour>
      <point x="472" y="548" type="curve" smooth="yes"/>
      <point x="522" y="548"/>
      <point x="561" y="529"/>
      <point x="589" y="491" type="curve"/>
      <point x="543" y="448" type="line"/>
      <point x="525" y="475"/>
      <point x="498" y="488"/>
      <point x="463" y="488" type="curve" smooth="yes"/>
      <point x="428" y="488"/>
      <point x="398" y="475"/>
      <point x="372" y="448" type="curve" smooth="yes"/>
      <point x="346" y="421"/>
      <point x="331" y="389"/>
      <point x="326" y="350" type="curve" smooth="yes"/>
      <point x="321" y="311"/>
      <point x="327" y="279"/>
      <point x="345" y="252" type="curve" smooth="yes"/>
      <point x="363" y="225"/>
      <point x="389" y="212"/>
      <point x="424" y="212" type="curve" smooth="yes"/>
      <point x="459" y="212"/>
      <point x="490" y="225"/>
      <point x="516" y="252" type="curve"/>
      <point x="550" y="209" type="line"/>
      <point x="511" y="171"/>
      <point x="466" y="152"/>
      <point x="416" y="152" type="curve" smooth="yes"/>
      <point x="365" y="152"/>
      <point x="326" y="171"/>
      <point x="298" y="209" type="curve" smooth="yes"/>
      <point x="270" y="247"/>
      <point x="261" y="294"/>
      <point x="269" y="350" type="curve" smooth="yes"/>
      <point x="277" y="406"/>
      <point x="300" y="453"/>
      <point x="338" y="491" type="curve" smooth="yes"/>
      <point x="376" y="529"/>
      <point x="421" y="548"/>
    </contour>
  </outline>
</glyph>
<glyph name="ordfeminine" format="2">
  <advance width="377"/>
  <unicode hex="00AA"/>
  <outline>
    <contour>
      <point x="392" y="700" type="line"/>
      <point x="444" y="700" type="line"/>
      <point x="396" y="400" type="line"/>
      <point x="344" y="400" type="line"/>
      <point x="351" y="439" type="line"/>
      <point x="323" y="408"/>
      <point x="287" y="393"/>
      <point x="244" y="393" type="curve" smooth="yes"/>
      <point x="202" y="393"/>
      <point x="168" y="408"/>
      <point x="145" y="438" type="curve" smooth="yes"/>
      <point x="122" y="469"/>
      <point x="115" y="506"/>
      <point x="122" y="550" type="curve" smooth="yes"/>
      <point x="129" y="594"/>
      <point x="148" y="632"/>
      <point x="181" y="662" type="curve" smooth="yes"/>
      <point x="214" y="692"/>
      <point x="251" y="707"/>
      <point x="294" y="707" type="curve" smooth="yes"/>
      <point x="336" y="707"/>
      <point x="367" y="691"/>
      <point x="385" y="659" type="curve"/>
    </contour>
    <contour>
      <point x="288" y="651" type="curve" smooth="yes"/>
      <point x="260" y="651"/>
      <point x="237" y="642"/>
      <point x="216" y="622" type="curve" smooth="yes"/>
      <point x="195" y="602"/>
      <point x="183" y="579"/>
      <point x="178" y="550" type="curve" smooth="yes"/>
      <point x="173" y="521"/>
      <point x="178" y="498"/>
      <point x="193" y="478" type="curve" smooth="yes"/>
      <point x="208" y="458"/>
      <point x="228" y="448"/>
      <point x="256" y="448" type="curve" smooth="yes"/>
      <point x="283" y="448"/>
      <point x="308" y="458"/>
      <point x="328" y="478" type="curve" smooth="yes"/>
      <point x="348" y="498"/>
      <point x="359" y="521"/>
      <point x="364" y="550" type="curve" smooth="yes"/>
      <point x="369" y="579"/>
      <point x="365" y="602"/>
      <point x="351" y="622" type="curve" smooth="yes"/>
      <point x="337" y="642"/>
      <point x="315" y="651"/>
    </contour>
  </outline>
</glyph>
<glyph name="guillemotleft" format="2">
  <advance width="555"/>
  <unicode hex="00AB"/>
  <outline>
    <contour>
      <point x="357" y="515" type="line"/>
      <point x="393" y="473" type="line"/>
      <point x="190" y="298" type="line"/>
      <point x="338" y="124" type="line"/>
      <point x="288" y="81" type="line"/>
      <point x="105" y="298" type="line"/>
    </contour>
    <contour>
      <point x="534" y="515" type="line"/>
      <point x="570" y="473" type="line"/>
      <point x="367" y="298" type="line"/>
      <point x="515" y="124" type="line"/>
      <point x="465" y="81" type="line"/>
      <point x="282" y="298" type="line"/>
    </contour>
  </outline>
</glyph>
<glyph name="logicalnot" format="2">
  <advance width="646"/>
  <unicode hex="00AC"/>
  <outline>
    <contour>
      <point x="170.854" y="239" type="line"/>
      <point x="197.779" y="409" type="line"/>
      <point x="567.779" y="409" type="line"/>
      <point x="524.382" y="135" type="line"/>
      <point x="354.382" y="135" type="line"/>
      <point x="370.854" y="239" type="line"/>
    </contour>
  </outline>
</glyph>
<glyph name="uni00AD" format="2">
  <advance width="406"/>
  <unicode hex="00AD"/>
  <outline>
    <contour>
      <point x="66.7363" y="213" type="line"/>
      <point x="93.6611" y="383" type="line"/>
      <point x="433.661" y="383" type="line"/>
      <point x="406.736" y="213" type="line"/>
    </contour>
  </outline>
</glyph>
<glyph name="registered" format="2">
  <advance width="594"/>
  <unicode hex="00AE"/>
  <outline>
    <contour>
      <point x="397" y="712" type="curve" smooth="yes"/>
      <point x="467" y="712"/>
      <point x="524" y="686"/>
      <point x="566" y="634" type="curve" smooth="yes"/>
      <point x="608" y="582"/>
      <point x="624" y="518"/>
      <point x="614" y="444" type="curve" smooth="yes"/>
      <point x="604" y="370"/>
      <point x="570" y="306"/>
      <point x="513" y="254" type="curve" smooth="yes"/>
      <point x="456" y="202"/>
      <point x="392" y="176"/>
      <point x="322" y="176" type="curve" smooth="yes"/>
      <point x="252" y="176"/>
      <point x="195" y="202"/>
      <point x="153" y="254" type="curve" smooth="yes"/>
      <point x="111" y="306"/>
      <point x="95" y="370"/>
      <point x="105" y="444" type="curve" smooth="yes"/>
      <point x="115" y="518"/>
      <point x="149" y="582"/>
      <point x="206" y="634" type="curve" smooth="yes"/>
      <point x="263" y="686"/>
      <point x="327" y="712"/>
    </contour>
    <contour>
      <point x="389" y="652" type="curve" smooth="yes"/>
      <point x="335" y="652"/>
      <point x="285" y="632"/>
      <point x="241" y="591" type="curve" smooth="yes"/>
      <point x="197" y="550"/>
      <point x="170" y="501"/>
      <point x="162" y="444" type="curve" smooth="yes"/>
      <point x="154" y="387"/>
      <point x="166" y="338"/>
      <point x="199" y="297" type="curve" smooth="yes"/>
      <point x="232" y="256"/>
      <point x="277" y="236"/>
      <point x="331" y="236" type="curve" smooth="yes"/>
      <point x="385" y="236"/>
      <point x="435" y="256"/>
      <point x="479" y="297" type="curve" smooth="yes"/>
      <point x="523" y="338"/>
      <point x="549" y="387"/>
      <point x="557" y="444" type="curve" smooth="yes"/>
      <point x="565" y="501"/>
      <point x="553" y="550"/>
      <point x="520" y="591" type="curve" smooth="yes"/>
      <point x="487" y="632"/>
      <point x="443" y="652"/>
    </contour>
    <contour>
      <point x="297" y="590" type="line"/>
      <point x="400" y="590" type="line" smooth="yes"/>
      <point x="422" y="590"/>
      <point x="440" y="581"/>
      <point x="454" y="563" type="curve" smooth="yes"/>
      <point x="468" y="545"/>
      <point x="473" y="524"/>
      <point x="470" y="501" type="curve" smooth="yes"/>
      <point x="467" y="480"/>
      <point x="460" y="462"/>
      <point x="448" y="447" type="curve" smooth="yes"/>
      <point x="436" y="432"/>
      <point x="423" y="421"/>
      <point x="410" y="415" type="curve"/>
      <point x="442" y="298" type="line"/>
      <point x="381" y="298" type="line"/>
      <point x="350" y="411" type="line"/>
      <point x="328" y="411" type="line"/>
      <point x="312" y="298" type="line"/>
      <point x="255" y="298" type="line"/>
    </contour>
    <contour>
      <point x="345" y="531" type="line"/>
      <point x="337" y="471" type="line"/>
      <point x="379" y="471" type="line" smooth="yes"/>
      <point x="387" y="471"/>
      <point x="394" y="474"/>
      <point x="401" y="479" type="curve" smooth="yes"/>
      <point x="408" y="484"/>
      <point x="412" y="492"/>
      <point x="413" y="501" type="curve" smooth="yes"/>
      <point x="414" y="510"/>
      <point x="412" y="516"/>
      <point x="407" y="522" type="curve" smooth="yes"/>
      <point x="402" y="528"/>
      <point x="395" y="531"/>
      <point x="387" y="531" type="curve" smooth="yes"/>
    </contour>
  </outline>
</glyph>
<glyph name="macron" format="2">
  <advance width="285"/>
  <unicode hex="00AF"/>
  <outline>
    <contour>
      <point x="82" y="580" type="line"/>
      <point x="90" y="640" type="line"/>
      <point x="375" y="640" type="line"/>
      <point x="367" y="580" type="line"/>
    </contour>
  </outline>
</glyph>
<glyph name="degree" format="2">
  <advance width="370"/>
  <unicode hex="00B0"/>
  <outline>
    <contour>
      <point x="300" y="717" type="curve" smooth="yes"/>
      <point x="337" y="717"/>
      <point x="365" y="705"/>
      <point x="387" y="679" type="curve" smooth="yes"/>
      <point x="409" y="653"/>
      <point x="417" y="622"/>
      <point x="411" y="585" type="curve" smooth="yes"/>
      <point x="405" y="548"/>
      <point x="387" y="517"/>
      <point x="357" y="491" type="curve" smooth="yes"/>
      <point x="327" y="465"/>
      <point x="295" y="453"/>
      <point x="258" y="453" type="curve" smooth="yes"/>
      <point x="221" y="453"/>
      <point x="192" y="465"/>
      <point x="170" y="491" type="curve" smooth="yes"/>
      <point x="148" y="517"/>
      <point x="140" y="548"/>
      <point x="146" y="585" type="curve" smooth="yes"/>
      <point x="152" y="622"/>
      <point x="170" y="653"/>
      <point x="200" y="679" type="curve" smooth="yes"/>
      <point x="230" y="705"/>
      <point x="263" y="717"/>
    </contour>
    <contour>
      <point x="290" y="658" type="curve" smooth="yes"/>
      <point x="270" y="658"/>
      <point x="251" y="650"/>
      <point x="235" y="636" type="curve" smooth="yes"/>
      <point x="219" y="622"/>
      <point x="209" y="605"/>
      <point x="206" y="585" type="curve" smooth="yes"/>
      <point x="203" y="565"/>
      <point x="207" y="548"/>
      <point x="219" y="534" type="curve" smooth="yes"/>
      <point x="231" y="520"/>
      <point x="247" y="513"/>
      <point x="267" y="513" type="curve" smooth="yes"/>
      <point x="287" y="513"/>
      <point x="306" y="520"/>
      <point x="322" y="534" type="curve" smooth="yes"/>
      <point x="338" y="548"/>
      <point x="348" y="565"/>
      <point x="351" y="585" type="curve" smooth="yes"/>
      <point x="354" y="605"/>
      <point x="350" y="622"/>
      <point x="338" y="636" type="curve" smooth="yes"/>
      <point x="326" y="650"/>
      <point x="310" y="658"/>
    </contour>
  </outline>
</glyph>
<glyph name="plusminus" format="2">
  <advance width="625"/>
  <unicode hex="00B1"/>
  <outline>
    <contour>
      <point x="88" y="0" type="line"/>
      <point x="97.5029" y="60" type="line"/>
      <point x="547.503" y="60" type="line"/>
      <point x="538" y="0" type="line"/>
    </contour>
    <contour>
      <point x="167.416" y="312" type="line"/>
      <point x="177.077" y="373" type="line"/>
      <point x="342.077" y="373" type="line"/>
      <point x="369.637" y="547" type="line"/>
      <point x="429.637" y="547" type="line"/>
      <point x="402.077" y="373" type="line"/>
      <point x="567.077" y="373" type="line"/>
      <point x="557.416" y="312" type="line"/>
      <point x="392.416" y="312" type="line"/>
      <point x="365.016" y="139" type="line"/>
      <point x="305.016" y="139" type="line"/>
      <point x="332.416" y="312" type="line"/>
    </contour>
  </outline>
</glyph>
<glyph name="uni00B2" format="2">
  <advance width="364"/>
  <unicode hex="00B2"/>
  <outline>
    <contour>
      <point x="296" y="807" type="curve" smooth="yes"/>
      <point x="333" y="807"/>
      <point x="363" y="794"/>
      <point x="385" y="769" type="curve" smooth="yes"/>
      <point x="407" y="744"/>
      <point x="414" y="712"/>
      <point x="408" y="676" type="curve" smooth="yes"/>
      <point x="403" y="644"/>
      <point x="383" y="612"/>
      <point x="349" y="581" type="curve" smooth="yes"/>
      <point x="191" y="439" type="line"/>
      <point x="373" y="439" type="line"/>
      <point x="363" y="379" type="line"/>
      <point x="97" y="379" type="line"/>
      <point x="107" y="439" type="line"/>
      <point x="312" y="622" type="line" smooth="yes"/>
      <point x="335" y="643"/>
      <point x="346" y="660"/>
      <point x="349" y="676" type="curve" smooth="yes"/>
      <point x="352" y="698"/>
      <point x="346" y="715"/>
      <point x="334" y="728" type="curve" smooth="yes"/>
      <point x="322" y="741"/>
      <point x="307" y="747"/>
      <point x="288" y="747" type="curve" smooth="yes"/>
      <point x="270" y="747"/>
      <point x="255" y="741"/>
      <point x="240" y="731" type="curve" smooth="yes"/>
      <point x="225" y="721"/>
      <point x="216" y="708"/>
      <point x="209" y="692" type="curve"/>
      <point x="153" y="705" type="line"/>
      <point x="163" y="734"/>
      <point x="181" y="758"/>
      <point x="208" y="778" type="curve" smooth="yes"/>
      <point x="235" y="798"/>
      <point x="265" y="807"/>
    </contour>
  </outline>
</glyph>
<glyph name="uni00B3" format="2">
  <advance width="359"/>
  <unicode hex="00B3"/>
  <outline>
    <contour>
      <point x="309" y="807" type="curve" smooth="yes"/>
      <point x="344" y="807"/>
      <point x="371" y="795"/>
      <point x="393" y="773" type="curve" smooth="yes"/>
      <point x="415" y="751"/>
      <point x="422" y="723"/>
      <point x="417" y="690" type="curve" smooth="yes"/>
      <point x="415" y="675"/>
      <point x="407" y="660"/>
      <point x="397" y="645" type="curve" smooth="yes"/>
      <point x="387" y="630"/>
      <point x="372" y="617"/>
      <point x="353" y="603" type="curve"/>
      <point x="369" y="591"/>
      <point x="381" y="577"/>
      <point x="389" y="561" type="curve" smooth="yes"/>
      <point x="399" y="542"/>
      <point x="402" y="522"/>
      <point x="399" y="501" type="curve" smooth="yes"/>
      <point x="393" y="465"/>
      <point x="375" y="435"/>
      <point x="344" y="410" type="curve" smooth="yes"/>
      <point x="313" y="385"/>
      <point x="279" y="373"/>
      <point x="241" y="373" type="curve" smooth="yes"/>
      <point x="213" y="373"/>
      <point x="189" y="380"/>
      <point x="168" y="395" type="curve" smooth="yes"/>
      <point x="147" y="410"/>
      <point x="132" y="429"/>
      <point x="127" y="452" type="curve"/>
      <point x="187" y="472" type="line"/>
      <point x="191" y="460"/>
      <point x="199" y="450"/>
      <point x="211" y="443" type="curve" smooth="yes"/>
      <point x="223" y="436"/>
      <point x="237" y="433"/>
      <point x="252" y="433" type="curve" smooth="yes"/>
      <point x="273" y="433"/>
      <point x="293" y="439"/>
      <point x="310" y="452" type="curve" smooth="yes"/>
      <point x="327" y="465"/>
      <point x="336" y="481"/>
      <point x="339" y="501" type="curve" smooth="yes"/>
      <point x="342" y="521"/>
      <point x="338" y="539"/>
      <point x="324" y="552" type="curve" smooth="yes"/>
      <point x="311" y="564"/>
      <point x="295" y="570"/>
      <point x="273" y="570" type="curve" smooth="yes"/>
      <point x="237" y="570" type="line"/>
      <point x="247" y="630" type="line"/>
      <point x="283" y="630" type="line" smooth="yes"/>
      <point x="300" y="630"/>
      <point x="315" y="636"/>
      <point x="331" y="647" type="curve" smooth="yes"/>
      <point x="346" y="658"/>
      <point x="355" y="673"/>
      <point x="358" y="690" type="curve" smooth="yes"/>
      <point x="361" y="708"/>
      <point x="356" y="721"/>
      <point x="345" y="731" type="curve" smooth="yes"/>
      <point x="334" y="741"/>
      <point x="319" y="747"/>
      <point x="300" y="747" type="curve" smooth="yes"/>
      <point x="284" y="747"/>
      <point x="271" y="744"/>
      <point x="258" y="737" type="curve" smooth="yes"/>
      <point x="246" y="731"/>
      <point x="237" y="722"/>
      <point x="231" y="711" type="curve"/>
      <point x="177" y="730" type="line"/>
      <point x="188" y="752"/>
      <point x="207" y="772"/>
      <point x="231" y="786" type="curve" smooth="yes"/>
      <point x="255" y="800"/>
      <point x="283" y="807"/>
    </contour>
  </outline>
</glyph>
<glyph name="acute" format="2">
  <advance width="308"/>
  <unicode hex="00B4"/>
  <outline>
    <contour>
      <point x="88.666" y="553.5" type="line"/>
      <point x="217.948" y="700.5" type="line"/>
      <point x="413.948" y="700.5" type="line"/>
      <point x="264.666" y="553.5" type="line"/>
    </contour>
  </outline>
</glyph>
<glyph name="mu" format="2">
  <advance width="559"/>
  <unicode hex="00B5"/>
  <outline>
    <contour>
      <point x="561" y="500" type="line"/>
      <point x="482" y="0" type="line"/>
      <point x="422" y="0" type="line"/>
      <point x="432" y="63" type="line"/>
      <point x="387" y="13"/>
      <point x="333" y="-12"/>
      <point x="271" y="-12" type="curve" smooth="yes"/>
      <point x="209" y="-12"/>
      <point x="162" y="13"/>
      <point x="133" y="63" type="curve"/>
      <point x="91" y="-200" type="line"/>
      <point x="31" y="-200" type="line"/>
      <point x="142" y="500" type="line"/>
      <point x="202" y="500" type="line"/>
      <point x="160" y="232" type="line" smooth="yes"/>
      <point x="151" y="175"/>
      <point x="159" y="131"/>
      <point x="182" y="98" type="curve" smooth="yes"/>
      <point x="205" y="65"/>
      <point x="238" y="48"/>
      <point x="281" y="48" type="curve" smooth="yes"/>
      <point x="324" y="48"/>
      <point x="362" y="65"/>
      <point x="395" y="98" type="curve" smooth="yes"/>
      <point x="428" y="131"/>
      <point x="450" y="175"/>
      <point x="459" y="232" type="curve" smooth="yes"/>
      <point x="501" y="500" type="line"/>
    </contour>
  </outline>
</glyph>
<glyph name="paragraph" format="2">
  <advance width="667"/>
  <unicode hex="00B6"/>
  <outline>
    <contour>
      <point x="363.869" y="700" type="curve" smooth="yes"/>
      <point x="395.869" y="700" type="line"/>
      <point x="714.869" y="700" type="line"/>
      <point x="590.695" y="-84" type="line"/>
      <point x="453.695" y="-84" type="line"/>
      <point x="550.943" y="530" type="line"/>
      <point x="505.943" y="530" type="line"/>
      <point x="408.695" y="-84" type="line"/>
      <point x="271.695" y="-84" type="line"/>
      <point x="318.261" y="210" type="line"/>
      <point x="286.261" y="210" type="line" smooth="yes"/>
      <point x="218.928" y="210"/>
      <point x="165.062" y="234"/>
      <point x="124.664" y="282" type="curve" smooth="yes"/>
      <point x="84.2666" y="330"/>
      <point x="69.4004" y="387.667"/>
      <point x="80.0645" y="455" type="curve" smooth="yes"/>
      <point x="90.7295" y="522.333"/>
      <point x="123.863" y="580"/>
      <point x="179.466" y="628" type="curve" smooth="yes"/>
      <point x="235.068" y="676"/>
      <point x="296.536" y="700"/>
    </contour>
  </outline>
</glyph>
<glyph name="periodcentered" format="2">
  <advance width="239"/>
  <unicode hex="00B7"/>
  <outline>
    <contour>
      <point x="209" y="321" type="curve" smooth="yes"/>
      <point x="207" y="308"/>
      <point x="201" y="297"/>
      <point x="191" y="288" type="curve" smooth="yes"/>
      <point x="181" y="279"/>
      <point x="170" y="275"/>
      <point x="158" y="275" type="curve" smooth="yes"/>
      <point x="146" y="275"/>
      <point x="136" y="279"/>
      <point x="129" y="288" type="curve" smooth="yes"/>
      <point x="122" y="297"/>
      <point x="119" y="308"/>
      <point x="121" y="321" type="curve" smooth="yes"/>
      <point x="123" y="334"/>
      <point x="129" y="345"/>
      <point x="139" y="354" type="curve" smooth="yes"/>
      <point x="149" y="363"/>
      <point x="159" y="367"/>
      <point x="171" y="367" type="curve" smooth="yes"/>
      <point x="183" y="367"/>
      <point x="193" y="363"/>
      <point x="200" y="354" type="curve" smooth="yes"/>
      <point x="207" y="345"/>
      <point x="211" y="334"/>
    </contour>
  </outline>
</glyph>
<glyph name="cedilla" format="2">
  <advance width="195"/>
  <unicode hex="00B8"/>
  <outline>
    <contour>
      <point x="179" y="33" type="line"/>
      <point x="204" y="5"/>
      <point x="214" y="-29"/>
      <point x="208" y="-70" type="curve" smooth="yes"/>
      <point x="203" y="-109"/>
      <point x="185" y="-142"/>
      <point x="155" y="-169" type="curve" smooth="yes"/>
      <point x="125" y="-196"/>
      <point x="92" y="-210"/>
      <point x="55" y="-210" type="curve" smooth="yes"/>
      <point x="25" y="-210"/>
      <point x="-1" y="-200"/>
      <point x="-22" y="-181" type="curve"/>
      <point x="5" y="-152"/>
      <point x="19" y="-137"/>
      <point x="19" y="-137" type="curve"/>
      <point x="31" y="-147"/>
      <point x="46" y="-153"/>
      <point x="63" y="-153" type="curve" smooth="yes"/>
      <point x="85" y="-153"/>
      <point x="104" y="-144"/>
      <point x="122" y="-128" type="curve" smooth="yes"/>
      <point x="140" y="-112"/>
      <point x="151" y="-93"/>
      <point x="154" y="-70" type="curve" smooth="yes"/>
      <point x="156" y="-54"/>
      <point x="154" y="-39"/>
      <point x="148" y="-26" type="curve" smooth="yes"/>
      <point x="142" y="-13"/>
      <point x="133" y="-3"/>
      <point x="121" y="4" type="curve"/>
    </contour>
  </outline>
</glyph>
<glyph name="uni00B9" format="2">
  <advance width="287"/>
  <unicode hex="00B9"/>
  <outline>
    <contour>
      <point x="261.708" y="800" type="line"/>
      <point x="321.708" y="800" type="line"/>
      <point x="255.187" y="380" type="line"/>
      <point x="195.187" y="380" type="line"/>
      <point x="249.354" y="722" type="line"/>
      <point x="172.325" y="665" type="line"/>
      <point x="141.611" y="711" type="line"/>
    </contour>
  </outline>
</glyph>
<glyph name="ordmasculine" format="2">
  <advance width="370"/>
  <unicode hex="00BA"/>
  <outline>
    <contour>
      <point x="297.978" y="707" type="curve" smooth="yes"/>
      <point x="341.978" y="707"/>
      <point x="375.602" y="692"/>
      <point x="398.851" y="662" type="curve" smooth="yes"/>
      <point x="422.099" y="632"/>
      <point x="431.08" y="594"/>
      <point x="424.111" y="550" type="curve" smooth="yes"/>
      <point x="417.143" y="506"/>
      <point x="396.124" y="468"/>
      <point x="363.372" y="438" type="curve" smooth="yes"/>
      <point x="330.621" y="408"/>
      <point x="292.245" y="393"/>
      <point x="248.245" y="393" type="curve" smooth="yes"/>
      <point x="204.245" y="393"/>
      <point x="169.621" y="408"/>
      <point x="146.372" y="438" type="curve" smooth="yes"/>
      <point x="123.124" y="468"/>
      <point x="114.143" y="506"/>
      <point x="121.111" y="550" type="curve" smooth="yes"/>
      <point x="128.08" y="594"/>
      <point x="149.099" y="632"/>
      <point x="181.851" y="662" type="curve" smooth="yes"/>
      <point x="214.602" y="692"/>
      <point x="253.978" y="707"/>
    </contour>
    <contour>
      <point x="288.475" y="647" type="curve" smooth="yes"/>
      <point x="261.475" y="647"/>
      <point x="238.049" y="638"/>
      <point x="218.04" y="619" type="curve" smooth="yes"/>
      <point x="198.03" y="600"/>
      <point x="185.388" y="577"/>
      <point x="181.111" y="550" type="curve" smooth="yes"/>
      <point x="176.835" y="523"/>
      <point x="182.034" y="499"/>
      <point x="196.024" y="480" type="curve" smooth="yes"/>
      <point x="210.016" y="461"/>
      <point x="230.748" y="453"/>
      <point x="257.748" y="453" type="curve" smooth="yes"/>
      <point x="284.748" y="453"/>
      <point x="308.016" y="461"/>
      <point x="328.024" y="480" type="curve" smooth="yes"/>
      <point x="348.034" y="499"/>
      <point x="359.835" y="523"/>
      <point x="364.111" y="550" type="curve" smooth="yes"/>
      <point x="368.388" y="577"/>
      <point x="364.03" y="600"/>
      <point x="350.04" y="619" type="curve" smooth="yes"/>
      <point x="336.049" y="638"/>
      <point x="315.475" y="647"/>
    </contour>
  </outline>
</glyph>
<glyph name="guillemotright" format="2">
  <advance width="555"/>
  <unicode hex="00BB"/>
  <outline>
    <contour>
      <point x="182.568" y="515" type="line"/>
      <point x="132.916" y="473" type="line"/>
      <point x="280.198" y="298" type="line"/>
      <point x="77.6396" y="124" type="line"/>
      <point x="113.829" y="81" type="line"/>
      <point x="365.198" y="298" type="line"/>
    </contour>
    <contour>
      <point x="358.568" y="515" type="line"/>
      <point x="309.916" y="473" type="line"/>
      <point x="457.198" y="298" type="line"/>
      <point x="254.64" y="124" type="line"/>
      <point x="289.829" y="81" type="line"/>
      <point x="542.198" y="298" type="line"/>
    </contour>
  </outline>
</glyph>
<glyph name="onequarter" format="2">
  <advance width="782"/>
  <unicode hex="00BC"/>
  <outline>
    <contour>
      <point x="642" y="420" type="line"/>
      <point x="690" y="394" type="line"/>
      <point x="548" y="151" type="line"/>
      <point x="661" y="151" type="line"/>
      <point x="677" y="270" type="line"/>
      <point x="734" y="270" type="line"/>
      <point x="718" y="151" type="line"/>
      <point x="783" y="151" type="line"/>
      <point x="775" y="91" type="line"/>
      <point x="709" y="91" type="line"/>
      <point x="696" y="0" type="line"/>
      <point x="639" y="0" type="line"/>
      <point x="652" y="91" type="line"/>
      <point x="477" y="91" type="line"/>
      <point x="485" y="151" type="line"/>
    </contour>
    <contour>
      <point x="672" y="700" type="line"/>
      <point x="714" y="666" type="line"/>
      <point x="178" y="0" type="line"/>
      <point x="136" y="34" type="line"/>
    </contour>
    <contour>
      <point x="224" y="700" type="line"/>
      <point x="281" y="700" type="line"/>
      <point x="222" y="280" type="line"/>
      <point x="165" y="280" type="line"/>
      <point x="213" y="622" type="line"/>
      <point x="141" y="565" type="line"/>
      <point x="111" y="611" type="line"/>
    </contour>
  </outline>
</glyph>
<glyph name="onehalf" format="2">
  <advance width="814"/>
  <unicode hex="00BD"/>
  <outline>
    <contour>
      <point x="690" y="427" type="curve" smooth="yes"/>
      <point x="725" y="427"/>
      <point x="753" y="415"/>
      <point x="774" y="389" type="curve" smooth="yes"/>
      <point x="795" y="363"/>
      <point x="803" y="332"/>
      <point x="798" y="296" type="curve" smooth="yes"/>
      <point x="793" y="264"/>
      <point x="775" y="232"/>
      <point x="743" y="201" type="curve" smooth="yes"/>
      <point x="593" y="60" type="line"/>
      <point x="767" y="60" type="line"/>
      <point x="758" y="-0" type="line"/>
      <point x="505" y="-0" type="line"/>
      <point x="514" y="60" type="line"/>
      <point x="707" y="242" type="line" smooth="yes"/>
      <point x="728" y="263"/>
      <point x="739" y="280"/>
      <point x="741" y="296" type="curve" smooth="yes"/>
      <point x="744" y="318"/>
      <point x="740" y="335"/>
      <point x="728" y="348" type="curve" smooth="yes"/>
      <point x="716" y="361"/>
      <point x="701" y="367"/>
      <point x="683" y="367" type="curve" smooth="yes"/>
      <point x="667" y="367"/>
      <point x="652" y="362"/>
      <point x="638" y="352" type="curve" smooth="yes"/>
      <point x="624" y="342"/>
      <point x="614" y="328"/>
      <point x="608" y="312" type="curve"/>
      <point x="555" y="325" type="line"/>
      <point x="564" y="354"/>
      <point x="581" y="378"/>
      <point x="607" y="398" type="curve" smooth="yes"/>
      <point x="633" y="418"/>
      <point x="661" y="427"/>
    </contour>
    <contour>
      <point x="672" y="700" type="line"/>
      <point x="714" y="666" type="line"/>
      <point x="178" y="0" type="line"/>
      <point x="136" y="34" type="line"/>
    </contour>
    <contour>
      <point x="224" y="700" type="line"/>
      <point x="281" y="700" type="line"/>
      <point x="222" y="280" type="line"/>
      <point x="165" y="280" type="line"/>
      <point x="213" y="622" type="line"/>
      <point x="141" y="565" type="line"/>
      <point x="111" y="611" type="line"/>
    </contour>
  </outline>
</glyph>
<glyph name="threequarters" format="2">
  <advance width="930"/>
  <unicode hex="00BE"/>
  <outline>
    <contour>
      <point x="738.993" y="420.264" type="line"/>
      <point x="824.608" y="377.156" type="line"/>
      <point x="689.357" y="166.8" type="line"/>
      <point x="761.819" y="166.8" type="line"/>
      <point x="779.59" y="279" type="line"/>
      <point x="881.59" y="279" type="line"/>
      <point x="863.819" y="166.8" type="line"/>
      <point x="916.02" y="166.8" type="line"/>
      <point x="899.864" y="64.7998" type="line"/>
      <point x="847.664" y="64.7998" type="line"/>
      <point x="837.4" y="0" type="line"/>
      <point x="735.4" y="0" type="line"/>
      <point x="745.664" y="64.7998" type="line"/>
      <point x="560.864" y="64.7998" type="line"/>
      <point x="577.02" y="166.8" type="line"/>
    </contour>
    <contour>
      <point x="764.394" y="697" type="line"/>
      <point x="847.916" y="633.1" type="line"/>
      <point x="305.9" y="12" type="line"/>
      <point x="223.954" y="74.6484" type="line"/>
    </contour>
    <contour>
      <point x="293.978" y="707" type="curve" smooth="yes"/>
      <point x="331.978" y="707"/>
      <point x="362.565" y="694.3"/>
      <point x="385.743" y="668.9" type="curve" smooth="yes"/>
      <point x="408.92" y="643.5"/>
      <point x="417.657" y="612.8"/>
      <point x="411.956" y="576.8" type="curve" smooth="yes"/>
      <point x="409.589" y="561.936"/>
      <point x="402.566" y="546.136"/>
      <point x="390.889" y="529.4" type="curve" smooth="yes"/>
      <point x="382.603" y="517.524"/>
      <point x="371.972" y="505.177"/>
      <point x="358.997" y="492.359" type="curve"/>
      <point x="367.614" y="480.368"/>
      <point x="374.266" y="468.716"/>
      <point x="378.952" y="457.4" type="curve" smooth="yes"/>
      <point x="386.467" y="439.257"/>
      <point x="388.928" y="421.981"/>
      <point x="386.336" y="405.575" type="curve" smooth="yes"/>
      <point x="380.592" y="369.306"/>
      <point x="361.895" y="338.273"/>
      <point x="330.246" y="312.479" type="curve" smooth="yes"/>
      <point x="298.597" y="286.684"/>
      <point x="263.641" y="273.815"/>
      <point x="225.378" y="273.875" type="curve" smooth="yes"/>
      <point x="192.664" y="273.925"/>
      <point x="164.416" y="283.56"/>
      <point x="140.635" y="302.778" type="curve" smooth="yes"/>
      <point x="116.854" y="321.997"/>
      <point x="103.868" y="346.31"/>
      <point x="101.682" y="375.715" type="curve"/>
      <point x="204.649" y="399.329" type="line"/>
      <point x="205.523" y="391.355"/>
      <point x="209.63" y="385.451"/>
      <point x="216.966" y="381.614" type="curve" smooth="yes"/>
      <point x="224.304" y="377.777"/>
      <point x="232.892" y="375.859"/>
      <point x="242.729" y="375.859" type="curve" smooth="yes"/>
      <point x="252.035" y="375.859"/>
      <point x="260.992" y="378.891"/>
      <point x="269.6" y="384.952" type="curve" smooth="yes"/>
      <point x="278.207" y="391.014"/>
      <point x="283.245" y="398.688"/>
      <point x="284.717" y="407.975" type="curve" smooth="yes"/>
      <point x="286.275" y="417.819"/>
      <point x="284.081" y="425.773"/>
      <point x="278.134" y="431.835" type="curve" smooth="yes"/>
      <point x="272.187" y="437.896"/>
      <point x="263.42" y="440.928"/>
      <point x="251.836" y="440.928" type="curve" smooth="yes"/>
      <point x="231.436" y="440.928" type="line"/>
      <point x="247.591" y="542.928" type="line"/>
      <point x="267.991" y="542.928" type="line" smooth="yes"/>
      <point x="278.891" y="542.928"/>
      <point x="288.194" y="545.948"/>
      <point x="295.901" y="551.988" type="curve" smooth="yes"/>
      <point x="303.607" y="558.028"/>
      <point x="308.229" y="565.898"/>
      <point x="309.766" y="575.6" type="curve" smooth="yes"/>
      <point x="311.223" y="584.8"/>
      <point x="308.663" y="592"/>
      <point x="302.087" y="597.2" type="curve" smooth="yes"/>
      <point x="295.511" y="602.4"/>
      <point x="287.422" y="605"/>
      <point x="277.822" y="605" type="curve" smooth="yes"/>
      <point x="265.402" y="605"/>
      <point x="255.405" y="602.495"/>
      <point x="247.832" y="597.486" type="curve" smooth="yes"/>
      <point x="241.933" y="593.585"/>
      <point x="237.504" y="588.163"/>
      <point x="234.545" y="581.223" type="curve"/>
      <point x="139.502" y="605.945" type="line"/>
      <point x="150.822" y="635.118"/>
      <point x="171.292" y="659.254"/>
      <point x="200.907" y="678.353" type="curve" smooth="yes"/>
      <point x="230.523" y="697.451"/>
      <point x="261.546" y="707"/>
    </contour>
  </outline>
</glyph>
<glyph name="questiondown" format="2">
  <advance width="436"/>
  <unicode hex="00BF"/>
  <outline>
    <contour>
      <point x="259" y="467" type="curve" smooth="yes"/>
      <point x="261" y="480"/>
      <point x="267" y="491"/>
      <point x="277" y="500" type="curve" smooth="yes"/>
      <point x="287" y="509"/>
      <point x="298" y="513"/>
      <point x="310" y="513" type="curve" smooth="yes"/>
      <point x="322" y="513"/>
      <point x="332" y="509"/>
      <point x="339" y="500" type="curve" smooth="yes"/>
      <point x="346" y="491"/>
      <point x="349" y="480"/>
      <point x="347" y="467" type="curve" smooth="yes"/>
      <point x="345" y="454"/>
      <point x="339" y="443"/>
      <point x="329" y="434" type="curve" smooth="yes"/>
      <point x="319" y="425"/>
      <point x="309" y="421"/>
      <point x="297" y="421" type="curve" smooth="yes"/>
      <point x="285" y="421"/>
      <point x="275" y="425"/>
      <point x="268" y="434" type="curve" smooth="yes"/>
      <point x="261" y="443"/>
      <point x="257" y="454"/>
    </contour>
    <contour>
      <point x="189" y="-213" type="curve" smooth="yes"/>
      <point x="134" y="-213"/>
      <point x="89" y="-193"/>
      <point x="56" y="-152" type="curve" smooth="yes"/>
      <point x="23" y="-111"/>
      <point x="11" y="-61"/>
      <point x="19" y="-3" type="curve" smooth="yes"/>
      <point x="25" y="37"/>
      <point x="39" y="73"/>
      <point x="65" y="107" type="curve" smooth="yes"/>
      <point x="91" y="141"/>
      <point x="123" y="166"/>
      <point x="160" y="184" type="curve" smooth="yes"/>
      <point x="185" y="196"/>
      <point x="206" y="214"/>
      <point x="223" y="238" type="curve" smooth="yes"/>
      <point x="240" y="262"/>
      <point x="251" y="288"/>
      <point x="255" y="316" type="curve"/>
      <point x="312" y="316" type="line"/>
      <point x="306" y="276"/>
      <point x="292" y="240"/>
      <point x="267" y="206" type="curve" smooth="yes"/>
      <point x="242" y="172"/>
      <point x="211" y="147"/>
      <point x="175" y="130" type="curve" smooth="yes"/>
      <point x="149" y="118"/>
      <point x="127" y="99"/>
      <point x="109" y="75" type="curve" smooth="yes"/>
      <point x="91" y="51"/>
      <point x="80" y="25"/>
      <point x="76" y="-3" type="curve" smooth="yes"/>
      <point x="70" y="-44"/>
      <point x="79" y="-78"/>
      <point x="103" y="-108" type="curve" smooth="yes"/>
      <point x="127" y="-138"/>
      <point x="158" y="-153"/>
      <point x="197" y="-153" type="curve" smooth="yes"/>
      <point x="229" y="-153"/>
      <point x="259" y="-142"/>
      <point x="288" y="-121" type="curve" smooth="yes"/>
      <point x="317" y="-100"/>
      <point x="338" y="-73"/>
      <point x="351" y="-40" type="curve"/>
      <point x="405" y="-50" type="line"/>
      <point x="388" y="-98"/>
      <point x="360" y="-137"/>
      <point x="319" y="-167" type="curve" smooth="yes"/>
      <point x="278" y="-197"/>
      <point x="235" y="-213"/>
    </contour>
  </outline>
</glyph>
<glyph name="Agrave" format="2">
  <advance width="607"/>
  <unicode hex="00C0"/>
  <outline>
    <contour>
      <point x="385" y="744" type="line"/>
      <point x="281" y="871" type="line"/>
      <point x="370" y="871" type="line"/>
      <point x="461" y="744" type="line"/>
    </contour>
    <contour>
      <point x="216" y="265" type="line"/>
      <point x="476" y="265" type="line"/>
      <point x="402" y="619" type="line"/>
    </contour>
    <contour>
      <point x="184" y="205" type="line"/>
      <point x="78" y="0" type="line"/>
      <point x="13" y="0" type="line"/>
      <point x="385" y="700" type="line"/>
      <point x="445" y="700" type="line"/>
      <point x="595" y="0" type="line"/>
      <point x="530" y="0" type="line"/>
      <point x="488" y="205" type="line"/>
    </contour>
  </outline>
</glyph>
<glyph name="Acircumflex" format="2">
  <advance width="571"/>
  <unicode hex="00C2"/>
  <outline>
    <contour>
      <point x="233" y="744" type="line"/>
      <point x="364" y="870" type="line"/>
      <point x="443" y="870" type="line"/>
      <point x="539" y="744" type="line"/>
      <point x="461" y="744" type="line"/>
      <point x="397" y="824" type="line"/>
      <point x="311" y="744" type="line"/>
    </contour>
    <contour>
      <point x="200" y="265" type="line"/>
      <point x="446" y="265" type="line"/>
      <point x="373" y="619" type="line"/>
    </contour>
    <contour>
      <point x="171" y="205" type="line"/>
      <point x="71" y="0" type="line"/>
      <point x="10" y="0" type="line"/>
      <point x="356" y="700" type="line"/>
      <point x="412" y="700" type="line"/>
      <point x="562" y="0" type="line"/>
      <point x="501" y="0" type="line"/>
      <point x="459" y="205" type="line"/>
    </contour>
  </outline>
</glyph>
<glyph name="Atilde" format="2">
  <advance width="607"/>
  <unicode hex="00C3"/>
  <outline>
    <contour>
      <point x="476.521" y="742" type="curve" smooth="yes"/>
      <point x="447.521" y="742"/>
      <point x="425.422" y="754"/>
      <point x="409.223" y="778" type="curve" smooth="yes"/>
      <point x="402.648" y="787"/>
      <point x="397.074" y="796"/>
      <point x="391.183" y="803" type="curve" smooth="yes"/>
      <point x="385.291" y="810"/>
      <point x="378.925" y="814"/>
      <point x="370.925" y="814" type="curve" smooth="yes"/>
      <point x="349.925" y="814"/>
      <point x="335.024" y="802"/>
      <point x="325.064" y="777" type="curve"/>
      <point x="266.064" y="777" type="line"/>
      <point x="273.183" y="803"/>
      <point x="287.509" y="824"/>
      <point x="309.359" y="842" type="curve" smooth="yes"/>
      <point x="331.211" y="860"/>
      <point x="354.795" y="870"/>
      <point x="379.795" y="870" type="curve" smooth="yes"/>
      <point x="404.795" y="870"/>
      <point x="425.894" y="858"/>
      <point x="443.093" y="834" type="curve" smooth="yes"/>
      <point x="449.667" y="825"/>
      <point x="456.242" y="816"/>
      <point x="462.133" y="809" type="curve" smooth="yes"/>
      <point x="468.024" y="802"/>
      <point x="476.391" y="798"/>
      <point x="485.391" y="798" type="curve" smooth="yes"/>
      <point x="506.391" y="798"/>
      <point x="521.45" y="811"/>
      <point x="529.409" y="836" type="curve"/>
      <point x="588.409" y="836" type="line"/>
      <point x="580.133" y="809"/>
      <point x="565.648" y="787"/>
      <point x="544.798" y="769" type="curve" smooth="yes"/>
      <point x="523.946" y="751"/>
      <point x="501.521" y="742"/>
    </contour>
    <contour>
      <point x="215.972" y="265" type="line"/>
      <point x="475.972" y="265" type="line"/>
      <point x="402.04" y="619" type="line"/>
    </contour>
    <contour>
      <point x="184.469" y="205" type="line"/>
      <point x="78" y="0" type="line"/>
      <point x="13" y="0" type="line"/>
      <point x="384.869" y="700" type="line"/>
      <point x="444.869" y="700" type="line"/>
      <point x="595" y="0" type="line"/>
      <point x="530" y="0" type="line"/>
      <point x="488.469" y="205" type="line"/>
    </contour>
  </outline>
</glyph>
<glyph name="Adieresis" format="2">
  <advance width="607"/>
  <unicode hex="00C4"/>
  <outline>
    <contour>
      <point x="313.378" y="880" type="curve" smooth="yes"/>
      <point x="324.378" y="880"/>
      <point x="333.903" y="877"/>
      <point x="340.636" y="869" type="curve" smooth="yes"/>
      <point x="347.369" y="861"/>
      <point x="348.785" y="851"/>
      <point x="347.043" y="840" type="curve" smooth="yes"/>
      <point x="345.301" y="829"/>
      <point x="340.875" y="820"/>
      <point x="331.608" y="812" type="curve" smooth="yes"/>
      <point x="322.341" y="804"/>
      <point x="311.708" y="800"/>
      <point x="300.708" y="800" type="curve" smooth="yes"/>
      <point x="289.708" y="800"/>
      <point x="281.341" y="804"/>
      <point x="274.608" y="812" type="curve" smooth="yes"/>
      <point x="267.875" y="820"/>
      <point x="265.301" y="829"/>
      <point x="267.043" y="840" type="curve" smooth="yes"/>
      <point x="268.785" y="851"/>
      <point x="274.369" y="861"/>
      <point x="283.636" y="869" type="curve" smooth="yes"/>
      <point x="292.903" y="877"/>
      <point x="302.378" y="880"/>
    </contour>
    <contour>
      <point x="555.378" y="880" type="curve" smooth="yes"/>
      <point x="566.378" y="880"/>
      <point x="574.903" y="877"/>
      <point x="581.636" y="869" type="curve" smooth="yes"/>
      <point x="588.369" y="861"/>
      <point x="590.785" y="851"/>
      <point x="589.043" y="840" type="curve" smooth="yes"/>
      <point x="587.301" y="829"/>
      <point x="581.875" y="820"/>
      <point x="572.608" y="812" type="curve" smooth="yes"/>
      <point x="563.341" y="804"/>
      <point x="553.708" y="800"/>
      <point x="542.708" y="800" type="curve" smooth="yes"/>
      <point x="531.708" y="800"/>
      <point x="522.341" y="804"/>
      <point x="515.608" y="812" type="curve" smooth="yes"/>
      <point x="508.875" y="820"/>
      <point x="507.301" y="829"/>
      <point x="509.043" y="840" type="curve" smooth="yes"/>
      <point x="510.785" y="851"/>
      <point x="515.369" y="861"/>
      <point x="524.636" y="869" type="curve" smooth="yes"/>
      <point x="533.903" y="877"/>
      <point x="544.378" y="880"/>
    </contour>
    <contour>
      <point x="215.972" y="265" type="line"/>
      <point x="475.972" y="265" type="line"/>
      <point x="402.04" y="619" type="line"/>
    </contour>
    <contour>
      <point x="184.469" y="205" type="line"/>
      <point x="78" y="0" type="line"/>
      <point x="13" y="0" type="line"/>
      <point x="384.869" y="700" type="line"/>
      <point x="444.869" y="700" type="line"/>
      <point x="595" y="0" type="line"/>
      <point x="530" y="0" type="line"/>
      <point x="488.469" y="205" type="line"/>
    </contour>
  </outline>
</glyph>
<glyph name="Aring" format="2">
  <advance width="571"/>
  <unicode hex="00C5"/>
  <outline>
    <contour>
      <point x="413" y="904" type="curve" smooth="yes"/>
      <point x="435" y="904"/>
      <point x="452" y="896"/>
      <point x="466" y="879" type="curve" smooth="yes"/>
      <point x="480" y="862"/>
      <point x="485" y="843"/>
      <point x="482" y="819" type="curve" smooth="yes"/>
      <point x="479" y="795"/>
      <point x="468" y="776"/>
      <point x="450" y="759" type="curve" smooth="yes"/>
      <point x="432" y="742"/>
      <point x="411" y="734"/>
      <point x="389" y="734" type="curve" smooth="yes"/>
      <point x="367" y="734"/>
      <point x="349" y="742"/>
      <point x="335" y="759" type="curve" smooth="yes"/>
      <point x="321" y="776"/>
      <point x="316" y="795"/>
      <point x="319" y="819" type="curve" smooth="yes"/>
      <point x="322" y="843"/>
      <point x="334" y="862"/>
      <point x="352" y="879" type="curve" smooth="yes"/>
      <point x="370" y="896"/>
      <point x="391" y="904"/>
    </contour>
    <contour>
      <point x="406" y="859" type="curve" smooth="yes"/>
      <point x="396" y="859"/>
      <point x="387" y="855"/>
      <point x="378" y="847" type="curve" smooth="yes"/>
      <point x="369" y="839"/>
      <point x="365" y="830"/>
      <point x="363" y="819" type="curve" smooth="yes"/>
      <point x="361" y="808"/>
      <point x="364" y="799"/>
      <point x="370" y="791" type="curve" smooth="yes"/>
      <point x="376" y="783"/>
      <point x="385" y="779"/>
      <point x="395" y="779" type="curve" smooth="yes"/>
      <point x="405" y="779"/>
      <point x="414" y="783"/>
      <point x="423" y="791" type="curve" smooth="yes"/>
      <point x="432" y="799"/>
      <point x="437" y="808"/>
      <point x="439" y="819" type="curve" smooth="yes"/>
      <point x="441" y="830"/>
      <point x="437" y="839"/>
      <point x="431" y="847" type="curve" smooth="yes"/>
      <point x="425" y="855"/>
      <point x="416" y="859"/>
    </contour>
    <contour>
      <point x="200" y="265" type="line"/>
      <point x="446" y="265" type="line"/>
      <point x="373" y="619" type="line"/>
    </contour>
    <contour>
      <point x="171" y="205" type="line"/>
      <point x="71" y="0" type="line"/>
      <point x="10" y="0" type="line"/>
      <point x="356" y="700" type="line"/>
      <point x="412" y="700" type="line"/>
      <point x="562" y="0" type="line"/>
      <point x="501" y="0" type="line"/>
      <point x="459" y="205" type="line"/>
    </contour>
  </outline>
</glyph>
<glyph name="AE" format="2">
  <advance width="1000"/>
  <unicode hex="00C6"/>
  <outline>
    <contour>
      <point x="613.869" y="700" type="line"/>
      <point x="1016.87" y="700" type="line"/>
      <point x="1007.37" y="640" type="line"/>
      <point x="664.366" y="640" type="line"/>
      <point x="624.929" y="391" type="line"/>
      <point x="903.929" y="391" type="line"/>
      <point x="894.425" y="331" type="line"/>
      <point x="615.425" y="331" type="line"/>
      <point x="572.503" y="60" type="line"/>
      <point x="915.503" y="60" type="line"/>
      <point x="906" y="0" type="line"/>
      <point x="503" y="0" type="line"/>
      <point x="535.469" y="205" type="line"/>
      <point x="261.469" y="205" type="line"/>
      <point x="85" y="0" type="line"/>
      <point x="11" y="0" type="line"/>
    </contour>
    <contour>
      <point x="597.397" y="596" type="line"/>
      <point x="312.972" y="265" type="line"/>
      <point x="544.972" y="265" type="line"/>
    </contour>
  </outline>
</glyph>
<glyph name="Ccedilla" format="2">
  <advance width="683"/>
  <unicode hex="00C7"/>
  <outline>
    <contour>
      <point x="452.227" y="33" type="line"/>
      <point x="477.792" y="5"/>
      <point x="487.407" y="-29"/>
      <point x="480.913" y="-70" type="curve" smooth="yes"/>
      <point x="474.736" y="-109"/>
      <point x="455.51" y="-142"/>
      <point x="424.233" y="-169" type="curve" smooth="yes"/>
      <point x="392.957" y="-196"/>
      <point x="357.739" y="-210"/>
      <point x="318.739" y="-210" type="curve" smooth="yes"/>
      <point x="286.739" y="-210"/>
      <point x="260.165" y="-201"/>
      <point x="238.332" y="-181" type="curve"/>
      <point x="266.926" y="-152"/>
      <point x="282.302" y="-137"/>
      <point x="282.302" y="-137" type="curve"/>
      <point x="294.718" y="-147"/>
      <point x="309.768" y="-153"/>
      <point x="327.768" y="-153" type="curve" smooth="yes"/>
      <point x="349.768" y="-153"/>
      <point x="371.192" y="-144"/>
      <point x="389.727" y="-128" type="curve" smooth="yes"/>
      <point x="408.261" y="-112"/>
      <point x="420.429" y="-92"/>
      <point x="423.913" y="-70" type="curve" smooth="yes"/>
      <point x="426.447" y="-54"/>
      <point x="423.823" y="-39"/>
      <point x="417.882" y="-26" type="curve" smooth="yes"/>
      <point x="411.941" y="-13"/>
      <point x="403.524" y="-3"/>
      <point x="390.634" y="4" type="curve"/>
    </contour>
    <contour>
      <point x="504.77" y="712" type="curve" smooth="yes"/>
      <point x="554.77" y="712"/>
      <point x="600.345" y="703"/>
      <point x="639.177" y="683" type="curve" smooth="yes"/>
      <point x="678.009" y="663"/>
      <point x="710.732" y="636"/>
      <point x="736.03" y="600" type="curve"/>
      <point x="686.062" y="556" type="line"/>
      <point x="642.198" y="620"/>
      <point x="579.267" y="652"/>
      <point x="495.267" y="652" type="curve" smooth="yes"/>
      <point x="414.267" y="652"/>
      <point x="342.674" y="623"/>
      <point x="281.329" y="564" type="curve" smooth="yes"/>
      <point x="219.984" y="505"/>
      <point x="181.739" y="434"/>
      <point x="168.435" y="350" type="curve" smooth="yes"/>
      <point x="155.13" y="266"/>
      <point x="170.885" y="195"/>
      <point x="213.54" y="136" type="curve" smooth="yes"/>
      <point x="256.195" y="77"/>
      <point x="318.603" y="48"/>
      <point x="399.603" y="48" type="curve" smooth="yes"/>
      <point x="483.603" y="48"/>
      <point x="556.671" y="80"/>
      <point x="620.808" y="144" type="curve"/>
      <point x="656.997" y="101" type="line"/>
      <point x="620.295" y="65"/>
      <point x="579.019" y="38"/>
      <point x="533.851" y="18" type="curve" smooth="yes"/>
      <point x="488.684" y="-2"/>
      <point x="440.1" y="-12"/>
      <point x="390.1" y="-12" type="curve" smooth="yes"/>
      <point x="291.1" y="-12"/>
      <point x="215.643" y="23"/>
      <point x="163.729" y="93" type="curve" smooth="yes"/>
      <point x="111.816" y="163"/>
      <point x="92.2793" y="248"/>
      <point x="108.435" y="350" type="curve" smooth="yes"/>
      <point x="124.59" y="452"/>
      <point x="171.053" y="537"/>
      <point x="245.14" y="607" type="curve" smooth="yes"/>
      <point x="319.227" y="677"/>
      <point x="405.77" y="712"/>
    </contour>
  </outline>
</glyph>
<glyph name="Egrave" format="2">
  <advance width="598"/>
  <unicode hex="00C8"/>
  <outline>
    <contour>
      <point x="393" y="744" type="line"/>
      <point x="289" y="871" type="line"/>
      <point x="378" y="871" type="line"/>
      <point x="469" y="744" type="line"/>
    </contour>
    <contour>
      <point x="103" y="0" type="line"/>
      <point x="214" y="700" type="line"/>
      <point x="617" y="700" type="line"/>
      <point x="607" y="640" type="line"/>
      <point x="264" y="640" type="line"/>
      <point x="225" y="389" type="line"/>
      <point x="504" y="389" type="line"/>
      <point x="494" y="329" type="line"/>
      <point x="215" y="329" type="line"/>
      <point x="173" y="60" type="line"/>
      <point x="516" y="60" type="line"/>
      <point x="506" y="0" type="line"/>
    </contour>
  </outline>
</glyph>
<glyph name="Eacute" format="2">
  <advance width="592"/>
  <unicode hex="00C9"/>
  <outline>
    <contour>
      <point x="63" y="0" type="line"/>
      <point x="173.869" y="700" type="line"/>
      <point x="648.869" y="700" type="line"/>
      <point x="621.943" y="530" type="line"/>
      <point x="316.943" y="530" type="line"/>
      <point x="301.897" y="435" type="line"/>
      <point x="536.897" y="435" type="line"/>
      <point x="510.13" y="266" type="line"/>
      <point x="275.13" y="266" type="line"/>
      <point x="259.926" y="170" type="line"/>
      <point x="565.926" y="170" type="line"/>
      <point x="539" y="0" type="line"/>
    </contour>
    <contour>
      <point x="326.867" y="750.5" type="line"/>
      <point x="456.15" y="897.5" type="line"/>
      <point x="652.15" y="897.5" type="line"/>
      <point x="502.867" y="750.5" type="line"/>
    </contour>
  </outline>
</glyph>
<glyph name="Ecircumflex" format="2">
  <advance width="598"/>
  <unicode hex="00CA"/>
  <outline>
    <contour>
      <point x="266.838" y="744" type="line"/>
      <point x="406.795" y="870" type="line"/>
      <point x="488.795" y="870" type="line"/>
      <point x="588.838" y="744" type="line"/>
      <point x="506.838" y="744" type="line"/>
      <point x="440.509" y="824" type="line"/>
      <point x="348.838" y="744" type="line"/>
    </contour>
    <contour>
      <point x="103" y="0" type="line"/>
      <point x="213.869" y="700" type="line"/>
      <point x="616.869" y="700" type="line"/>
      <point x="607.366" y="640" type="line"/>
      <point x="264.366" y="640" type="line"/>
      <point x="224.611" y="389" type="line"/>
      <point x="503.611" y="389" type="line"/>
      <point x="494.108" y="329" type="line"/>
      <point x="215.108" y="329" type="line"/>
      <point x="172.503" y="60" type="line"/>
      <point x="515.503" y="60" type="line"/>
      <point x="506" y="0" type="line"/>
    </contour>
  </outline>
</glyph>
<glyph name="Edieresis" format="2">
  <advance width="598"/>
  <unicode hex="00CB"/>
  <outline>
    <contour>
      <point x="329.378" y="880" type="curve" smooth="yes"/>
      <point x="340.378" y="880"/>
      <point x="348.903" y="877"/>
      <point x="355.636" y="869" type="curve" smooth="yes"/>
      <point x="362.369" y="861"/>
      <point x="364.785" y="851"/>
      <point x="363.043" y="840" type="curve" smooth="yes"/>
      <point x="361.301" y="829"/>
      <point x="355.875" y="820"/>
      <point x="346.608" y="812" type="curve" smooth="yes"/>
      <point x="337.341" y="804"/>
      <point x="327.708" y="800"/>
      <point x="316.708" y="800" type="curve" smooth="yes"/>
      <point x="305.708" y="800"/>
      <point x="297.341" y="804"/>
      <point x="290.608" y="812" type="curve" smooth="yes"/>
      <point x="283.875" y="820"/>
      <point x="281.301" y="829"/>
      <point x="283.043" y="840" type="curve" smooth="yes"/>
      <point x="284.785" y="851"/>
      <point x="290.369" y="861"/>
      <point x="299.636" y="869" type="curve" smooth="yes"/>
      <point x="308.903" y="877"/>
      <point x="318.378" y="880"/>
    </contour>
    <contour>
      <point x="571.378" y="880" type="curve" smooth="yes"/>
      <point x="582.378" y="880"/>
      <point x="591.903" y="877"/>
      <point x="598.636" y="869" type="curve" smooth="yes"/>
      <point x="605.369" y="861"/>
      <point x="606.785" y="851"/>
      <point x="605.043" y="840" type="curve" smooth="yes"/>
      <point x="603.301" y="829"/>
      <point x="598.875" y="820"/>
      <point x="589.608" y="812" type="curve" smooth="yes"/>
      <point x="580.341" y="804"/>
      <point x="569.708" y="800"/>
      <point x="558.708" y="800" type="curve" smooth="yes"/>
      <point x="547.708" y="800"/>
      <point x="538.341" y="804"/>
      <point x="531.608" y="812" type="curve" smooth="yes"/>
      <point x="524.875" y="820"/>
      <point x="523.301" y="829"/>
      <point x="525.043" y="840" type="curve" smooth="yes"/>
      <point x="526.785" y="851"/>
      <point x="531.369" y="861"/>
      <point x="540.636" y="869" type="curve" smooth="yes"/>
      <point x="549.903" y="877"/>
      <point x="560.378" y="880"/>
    </contour>
    <contour>
      <point x="103" y="0" type="line"/>
      <point x="213.869" y="700" type="line"/>
      <point x="616.869" y="700" type="line"/>
      <point x="607.366" y="640" type="line"/>
      <point x="264.366" y="640" type="line"/>
      <point x="224.611" y="389" type="line"/>
      <point x="503.611" y="389" type="line"/>
      <point x="494.108" y="329" type="line"/>
      <point x="215.108" y="329" type="line"/>
      <point x="172.503" y="60" type="line"/>
      <point x="515.503" y="60" type="line"/>
      <point x="506" y="0" type="line"/>
    </contour>
  </outline>
</glyph>
<glyph name="Iacute" format="2">
  <advance width="246"/>
  <unicode hex="00CD"/>
  <outline>
    <contour>
      <point x="95" y="0" type="line"/>
      <point x="193" y="700" type="line"/>
      <point x="250" y="700" type="line"/>
      <point x="152" y="0" type="line"/>
    </contour>
    <contour>
      <point x="190" y="740" type="line"/>
      <point x="312" y="866" type="line"/>
      <point x="396" y="866" type="line"/>
      <point x="263" y="740" type="line"/>
    </contour>
  </outline>
</glyph>
<glyph name="Icircumflex" format="2">
  <advance width="296"/>
  <unicode hex="00CE"/>
  <outline>
    <contour>
      <point x="60.168" y="754" type="line"/>
      <point x="213.6" y="900" type="line"/>
      <point x="380.492" y="900" type="line"/>
      <point x="487.676" y="754" type="line"/>
      <point x="322.92" y="754" type="line"/>
      <point x="282.159" y="806.01" type="line"/>
      <point x="224.924" y="754" type="line"/>
    </contour>
    <contour>
      <point x="63" y="0" type="line"/>
      <point x="173.869" y="700" type="line"/>
      <point x="343.869" y="700" type="line"/>
      <point x="233" y="0" type="line"/>
    </contour>
  </outline>
</glyph>
<glyph name="Idieresis" format="2">
  <advance width="296"/>
  <unicode hex="00CF"/>
  <outline>
    <contour>
      <point x="63" y="0" type="line"/>
      <point x="173.869" y="700" type="line"/>
      <point x="343.869" y="700" type="line"/>
      <point x="233" y="0" type="line"/>
    </contour>
    <contour>
      <point x="182.925" y="975" type="curve" smooth="yes"/>
      <point x="206.925" y="975"/>
      <point x="226.219" y="966.333"/>
      <point x="240.807" y="949" type="curve" smooth="yes"/>
      <point x="255.395" y="931.667"/>
      <point x="260.788" y="911"/>
      <point x="256.987" y="887" type="curve" smooth="yes"/>
      <point x="253.186" y="863"/>
      <point x="241.245" y="842.333"/>
      <point x="221.167" y="825" type="curve" smooth="yes"/>
      <point x="201.089" y="807.667"/>
      <point x="179.049" y="799"/>
      <point x="155.049" y="799" type="curve" smooth="yes"/>
      <point x="131.049" y="799"/>
      <point x="111.755" y="807.667"/>
      <point x="97.167" y="825" type="curve" smooth="yes"/>
      <point x="82.5791" y="842.333"/>
      <point x="77.1855" y="863"/>
      <point x="80.9873" y="887" type="curve" smooth="yes"/>
      <point x="84.7881" y="911"/>
      <point x="96.7285" y="931.667"/>
      <point x="116.807" y="949" type="curve" smooth="yes"/>
      <point x="136.885" y="966.333"/>
      <point x="158.925" y="975"/>
    </contour>
    <contour>
      <point x="422.925" y="975" type="curve" smooth="yes"/>
      <point x="446.925" y="975"/>
      <point x="466.219" y="966.333"/>
      <point x="480.807" y="949" type="curve" smooth="yes"/>
      <point x="495.395" y="931.667"/>
      <point x="500.788" y="911"/>
      <point x="496.987" y="887" type="curve" smooth="yes"/>
      <point x="493.186" y="863"/>
      <point x="481.245" y="842.333"/>
      <point x="461.167" y="825" type="curve" smooth="yes"/>
      <point x="441.089" y="807.667"/>
      <point x="419.049" y="799"/>
      <point x="395.049" y="799" type="curve" smooth="yes"/>
      <point x="371.049" y="799"/>
      <point x="351.755" y="807.667"/>
      <point x="337.167" y="825" type="curve" smooth="yes"/>
      <point x="322.579" y="842.333"/>
      <point x="317.186" y="863"/>
      <point x="320.987" y="887" type="curve" smooth="yes"/>
      <point x="324.788" y="911"/>
      <point x="336.729" y="931.667"/>
      <point x="356.807" y="949" type="curve" smooth="yes"/>
      <point x="376.885" y="966.333"/>
      <point x="398.925" y="975"/>
    </contour>
  </outline>
</glyph>
<glyph name="Eth" format="2">
  <advance width="688"/>
  <unicode hex="00D0"/>
  <outline>
    <contour>
      <point x="387" y="640" type="curve" smooth="yes"/>
      <point x="264" y="640" type="line"/>
      <point x="173" y="60" type="line"/>
      <point x="296" y="60" type="line" smooth="yes"/>
      <point x="376" y="60"/>
      <point x="448" y="88"/>
      <point x="514" y="145" type="curve" smooth="yes"/>
      <point x="580" y="202"/>
      <point x="618" y="270"/>
      <point x="631" y="350" type="curve" smooth="yes"/>
      <point x="644" y="430"/>
      <point x="627" y="498"/>
      <point x="579" y="555" type="curve" smooth="yes"/>
      <point x="531" y="612"/>
      <point x="467" y="640"/>
    </contour>
    <contour>
      <point x="397" y="700" type="line" smooth="yes"/>
      <point x="494" y="700"/>
      <point x="571" y="666"/>
      <point x="628" y="598" type="curve" smooth="yes"/>
      <point x="685" y="530"/>
      <point x="706" y="447"/>
      <point x="691" y="350" type="curve" smooth="yes"/>
      <point x="676" y="253"/>
      <point x="628" y="171"/>
      <point x="549" y="103" type="curve" smooth="yes"/>
      <point x="470" y="35"/>
      <point x="383" y="0"/>
      <point x="286" y="0" type="curve" smooth="yes"/>
      <point x="103" y="0" type="line"/>
      <point x="214" y="700" type="line"/>
    </contour>
    <contour>
      <point x="104" y="319" type="line"/>
      <point x="113" y="379" type="line"/>
      <point x="361" y="379" type="line"/>
      <point x="352" y="319" type="line"/>
    </contour>
  </outline>
</glyph>
